<?xml version="1.0" encoding="UTF-8" standalone="no"?>
<!-- Created with Inkscape (http://www.inkscape.org/) -->

<svg
   xmlns:dc="http://purl.org/dc/elements/1.1/"
   xmlns:cc="http://creativecommons.org/ns#"
   xmlns:rdf="http://www.w3.org/1999/02/22-rdf-syntax-ns#"
   xmlns:svg="http://www.w3.org/2000/svg"
   xmlns="http://www.w3.org/2000/svg"
   xmlns:sodipodi="http://sodipodi.sourceforge.net/DTD/sodipodi-0.dtd"
   xmlns:inkscape="http://www.inkscape.org/namespaces/inkscape"
   id="svg2"
   version="1.1"
   inkscape:version="0.48.3.1 r9886"
   width="1000"
   height="1000"
   xml:space="preserve"
   sodipodi:docname="1.ai"><metadata
     id="metadata8"><rdf:RDF><cc:Work
         rdf:about=""><dc:format>image/svg+xml</dc:format><dc:type
           rdf:resource="http://purl.org/dc/dcmitype/StillImage" /><dc:title></dc:title></cc:Work></rdf:RDF></metadata><defs
     id="defs6"><clipPath
       clipPathUnits="userSpaceOnUse"
       id="clipPath18"><path
         d="M 0,800 800,800 800,0 0,0 0,800 z"
         id="path20" /></clipPath><clipPath
       clipPathUnits="userSpaceOnUse"
       id="clipPath166"><path
         d="M 0,800 800,800 800,0 0,0 0,800 z"
         id="path168" /></clipPath></defs><sodipodi:namedview
     pagecolor="#ffffff"
     bordercolor="#666666"
     borderopacity="1"
     objecttolerance="10"
     gridtolerance="10"
     guidetolerance="10"
     inkscape:pageopacity="0"
     inkscape:pageshadow="2"
     inkscape:window-width="1366"
     inkscape:window-height="681"
     id="namedview4"
     showgrid="false"
     showguides="true"
     inkscape:guide-bbox="true"
     inkscape:zoom="0.411"
     inkscape:cx="738.61856"
     inkscape:cy="407.83302"
     inkscape:window-x="0"
     inkscape:window-y="27"
     inkscape:window-maximized="1"
     inkscape:current-layer="g10"><inkscape:grid
       type="xygrid"
       id="grid3872" /></sodipodi:namedview><g
     id="g10"
     inkscape:groupmode="layer"
     inkscape:label="1"
     transform="matrix(1.25,0,0,-1.25,0,1000)"><g
       id="g3874"><g
         transform="translate(-10.102249,-92.305074)"
         id="g3659"><g
           id="g226"
           transform="matrix(1.9684943,0,0,1.9684943,464.86788,616.5045)"><path
             d="m 0,0 c 0,-4.611 -3.738,-8.35 -8.349,-8.35 l -63.302,0 C -76.262,-8.35 -80,-4.611 -80,0 l 0,0.301 c 0,4.611 3.738,8.349 8.349,8.349 l 63.302,0 C -3.738,8.65 0,4.912 0,0.301 L 0,0 z"
             style="fill:#e6d91e;fill-opacity:1;fill-rule:nonzero;stroke:none"
             id="path228"
             inkscape:connector-curvature="0" /></g><g
           id="g230"
           transform="matrix(1.9684943,0,0,1.9684943,488.48981,573.19664)"><path
             d="m 0,0 c 0,-4.611 -3.738,-8.349 -8.35,-8.349 l -87.3,0 c -4.612,0 -8.35,3.738 -8.35,8.349 l 0,0.302 c 0,4.611 3.738,8.349 8.35,8.349 l 87.3,0 C -3.738,8.651 0,4.913 0,0.302 L 0,0 z"
             style="fill:#e6d91e;fill-opacity:1;fill-rule:nonzero;stroke:none"
             id="path232"
             inkscape:connector-curvature="0" /></g><g
           id="g234"
           transform="matrix(1.9684943,0,0,1.9684943,488.48981,529.89075)"><path
             d="m 0,0 c 0,-4.611 -3.738,-8.35 -8.35,-8.35 l -87.3,0 c -4.612,0 -8.35,3.739 -8.35,8.35 l 0,0.301 c 0,4.611 3.738,8.349 8.35,8.349 l 87.3,0 C -3.738,8.65 0,4.912 0,0.301 L 0,0 z"
             style="fill:#e6d91e;fill-opacity:1;fill-rule:nonzero;stroke:none"
             id="path236"
             inkscape:connector-curvature="0" /></g><g
           id="g238"
           transform="matrix(1.9684943,0,0,1.9684943,488.48981,486.5829)"><path
             d="m 0,0 c 0,-4.611 -3.738,-8.349 -8.35,-8.349 l -87.3,0 c -4.612,0 -8.35,3.738 -8.35,8.349 l 0,0.302 c 0,4.611 3.738,8.349 8.35,8.349 l 87.3,0 C -3.738,8.651 0,4.913 0,0.302 L 0,0 z"
             style="fill:#e6d91e;fill-opacity:1;fill-rule:nonzero;stroke:none"
             id="path240"
             inkscape:connector-curvature="0" /></g><g
           id="g242"
           transform="matrix(1.9684943,0,0,1.9684943,358.56919,437.79731)"><path
             d="m 0,0 c 0,-3.074 -2.492,-5.566 -5.566,-5.566 l -7.868,0 C -16.508,-5.566 -19,-3.074 -19,0 l 0,5.868 c 0,3.074 2.492,5.566 5.566,5.566 l 7.868,0 C -2.492,11.434 0,8.942 0,5.868 L 0,0 z"
             style="fill:#e6d91e;fill-opacity:1;fill-rule:nonzero;stroke:none"
             id="path244"
             inkscape:connector-curvature="0" /></g><g
           id="g246"
           transform="matrix(1.9684943,0,0,1.9684943,453.05692,437.79731)"><path
             d="m 0,0 c 0,-3.074 -2.492,-5.566 -5.565,-5.566 l -7.87,0 C -16.508,-5.566 -19,-3.074 -19,0 l 0,5.868 c 0,3.074 2.492,5.566 5.565,5.566 l 7.87,0 C -2.492,11.434 0,8.942 0,5.868 L 0,0 z"
             style="fill:#e6d91e;fill-opacity:1;fill-rule:nonzero;stroke:none"
             id="path248"
             inkscape:connector-curvature="0" /></g><g
           id="g250"
           transform="matrix(1.9684943,0,0,1.9684943,407.78155,197.70537)"><path
             d="m 0,0 c 0,1.878 -1.305,3.401 -2.915,3.401 l -15.17,0 C -19.695,3.401 -21,1.878 -21,0 l 0,-0.197 c 0,-1.879 1.305,-3.402 2.915,-3.402 l 15.17,0 c 1.61,0 2.915,1.523 2.915,3.402 L 0,0 z"
             style="fill:#999999;fill-opacity:1;fill-rule:nonzero;stroke:none"
             id="path252"
             inkscape:connector-curvature="0" /></g><g
           id="g254"
           transform="matrix(1.9684943,0,0,1.9684943,454.52364,416.99839)"><path
             d="m 0,0 -69.49,0 c -5.709,0 -10.337,-5 -10.337,-10 l 90.164,0 C 10.337,-5 5.709,0 0,0"
             style="fill:#999999;fill-opacity:1;fill-rule:nonzero;stroke:none"
             id="path256"
             inkscape:connector-curvature="0" /></g><g
           id="g258"
           transform="matrix(1.9684943,0,0,1.9684943,297.54587,342.91076)"><path
             d="m 0,0 c 0,-5.709 4.546,-10.363 10.255,-10.363 l 69.49,0 C 85.454,-10.363 90,-5.709 90,0 l 0,20.637 -90,0 L 0,0 z"
             style="fill:#999999;fill-opacity:1;fill-rule:nonzero;stroke:none"
             id="path260"
             inkscape:connector-curvature="0" /></g><g
           id="g262"
           transform="matrix(1.9684943,0,0,1.9684943,329.04178,235.28846)"><path
             d="m 0,0 c 0,-5.709 5.003,-10.691 10.711,-10.691 l 36.18,0 C 52.6,-10.691 57,-5.709 57,0 L 57,8.349 0,0.397 0,0 z"
             style="fill:#999999;fill-opacity:1;fill-rule:nonzero;stroke:none"
             id="path264"
             inkscape:connector-curvature="0" /></g><g
           id="g266"
           transform="matrix(1.9684943,0,0,1.9684943,329.04178,248.59312)"><path
             d="M 0,0 57,7.952 57,15.903 0,7.952 0,0 z"
             style="fill:#999999;fill-opacity:1;fill-rule:nonzero;stroke:none"
             id="path268"
             inkscape:connector-curvature="0" /></g><g
           id="g270"
           transform="matrix(1.9684943,0,0,1.9684943,421.34565,312.6682)"><path
             d="m 0,0 -36.179,0 c -5.709,0 -10.712,-4.578 -10.712,-10.286 l 0,-7.952 57.041,7.926 C 10.15,-4.603 5.709,0 0,0"
             style="fill:#999999;fill-opacity:1;fill-rule:nonzero;stroke:none"
             id="path272"
             inkscape:connector-curvature="0" /></g><g
           id="g274"
           transform="matrix(1.9684943,0,0,1.9684943,448.43371,600.06836)"><path
             d="m 0,0 c 4.61,0 8.349,3.738 8.349,8.35 l 0,0.3 C 8.349,13.262 4.61,17 0,17 l -31.651,0 0,-17 L 0,0 z"
             style="fill:#fcee21;fill-opacity:1;fill-rule:nonzero;stroke:none"
             id="path276"
             inkscape:connector-curvature="0" /></g><g
           id="g278"
           transform="matrix(1.9684943,0,0,1.9684943,472.05367,556.76149)"><path
             d="m 0,0 c 4.611,0 8.35,3.738 8.35,8.349 l 0,0.302 C 8.35,13.262 4.611,17 0,17 l -43.65,0 0,-17 L 0,0 z"
             style="fill:#fcee21;fill-opacity:1;fill-rule:nonzero;stroke:none"
             id="path280"
             inkscape:connector-curvature="0" /></g><g
           id="g282"
           transform="matrix(1.9684943,0,0,1.9684943,472.05367,513.45461)"><path
             d="m 0,0 c 4.611,0 8.35,3.738 8.35,8.35 l 0,0.3 C 8.35,13.262 4.611,17 0,17 l -43.65,0 0,-17 L 0,0 z"
             style="fill:#fcee21;fill-opacity:1;fill-rule:nonzero;stroke:none"
             id="path284"
             inkscape:connector-curvature="0" /></g><g
           id="g286"
           transform="matrix(1.9684943,0,0,1.9684943,472.05367,470.14774)"><path
             d="m 0,0 c 4.611,0 8.35,3.738 8.35,8.349 l 0,0.302 C 8.35,13.262 4.611,17 0,17 l -43.65,0 0,-17 L 0,0 z"
             style="fill:#fcee21;fill-opacity:1;fill-rule:nonzero;stroke:none"
             id="path288"
             inkscape:connector-curvature="0" /></g><g
           id="g290"
           transform="matrix(1.9684943,0,0,1.9684943,426.61098,460.30527)"><path
             d="m 0,0 c -3.073,0 -5.565,-2.492 -5.565,-5.566 l 0,-5.868 C -5.565,-14.508 -3.073,-17 0,-17 l 7.869,0 c 3.073,0 5.566,2.492 5.566,5.566 l 0,5.868 C 13.435,-2.492 10.942,0 7.869,0 L 0,0 z"
             style="fill:#fcee21;fill-opacity:1;fill-rule:nonzero;stroke:none"
             id="path292"
             inkscape:connector-curvature="0" /></g><g
           id="g294"
           transform="matrix(1.9684943,0,0,1.9684943,402.04339,190.62155)"><path
             d="m 0,0 c 1.61,0 2.915,1.523 2.915,3.401 l 0,0.198 C 2.915,5.477 1.61,7 0,7 l -8.085,0 0,-7 L 0,0 z"
             style="fill:#cccccc;fill-opacity:1;fill-rule:nonzero;stroke:none"
             id="path296"
             inkscape:connector-curvature="0" /></g><g
           id="g298"
           transform="matrix(1.9684943,0,0,1.9684943,474.87177,397.31345)"><path
             d="m 0,0 c 0,5 -4.628,10 -10.337,10 l -34.745,0 0,-10 L 0,0 z"
             style="fill:#cccccc;fill-opacity:1;fill-rule:nonzero;stroke:none"
             id="path300"
             inkscape:connector-curvature="0" /></g><g
           id="g302"
           transform="matrix(1.9684943,0,0,1.9684943,454.52364,322.51067)"><path
             d="m 0,0 c 5.709,0 10.255,4.654 10.255,10.363 l 0,20.637 -45,0 0,-31 L 0,0 z"
             style="fill:#cccccc;fill-opacity:1;fill-rule:nonzero;stroke:none"
             id="path304"
             inkscape:connector-curvature="0" /></g><g
           id="g306"
           transform="matrix(1.9684943,0,0,1.9684943,421.34565,214.24348)"><path
             d="m 0,0 c 5.709,0 10.109,4.982 10.109,10.691 l 0,8.349 -28,-3.906 L -17.891,0 0,0 z"
             style="fill:#cccccc;fill-opacity:1;fill-rule:nonzero;stroke:none"
             id="path308"
             inkscape:connector-curvature="0" /></g><g
           id="g310"
           transform="matrix(1.9684943,0,0,1.9684943,441.24595,264.24599)"><path
             d="M 0,0 0,7.951 -28,4.045 -28,-3.906 0,0 z"
             style="fill:#cccccc;fill-opacity:1;fill-rule:nonzero;stroke:none"
             id="path312"
             inkscape:connector-curvature="0" /></g><g
           id="g314"
           transform="matrix(1.9684943,0,0,1.9684943,441.32666,292.37007)"><path
             d="m 0,0 c 0,5.709 -4.441,10.312 -10.15,10.312 l -17.891,0 0,-14.208 L 0,0 z"
             style="fill:#cccccc;fill-opacity:1;fill-rule:nonzero;stroke:none"
             id="path316"
             inkscape:connector-curvature="0" /></g></g><g
         transform="matrix(6.168776,0,0,1.9684943,560,449.4644)"
         id="g290-0-0"><path
           inkscape:connector-curvature="0"
           id="path292-2-6"
           style="fill:#fcee21;fill-opacity:1;fill-rule:nonzero;stroke:none"
           d="m 0,0 c -3.073,0 -5.565,-2.492 -5.565,-5.566 l 0,-5.868 C -5.565,-14.508 -3.073,-17 0,-17 l 7.869,0 c 3.073,0 5.566,2.492 5.566,5.566 l 0,5.868 C 13.435,-2.492 10.942,0 7.869,0 L 0,0 z" /></g><g
         transform="matrix(6.168776,0,0,1.9684943,143.4579,464)"
         id="g290-0-0-3"><path
           inkscape:connector-curvature="0"
           id="path292-2-6-3"
           style="fill:#fcee21;fill-opacity:1;fill-rule:nonzero;stroke:none"
           d="m 0,0 c -3.073,0 -5.565,-2.492 -5.565,-5.566 l 0,-5.868 C -5.565,-14.508 -3.073,-17 0,-17 l 7.869,0 c 3.073,0 5.566,2.492 5.566,5.566 l 0,5.868 C 13.435,-2.492 10.942,0 7.869,0 L 0,0 z" /></g><g
         transform="matrix(0,6.168776,-1.9684943,0,350.5356,624)"
         id="g290-0-0-7"><path
           inkscape:connector-curvature="0"
           id="path292-2-6-0"
           style="fill:#fcee21;fill-opacity:1;fill-rule:nonzero;stroke:none"
           d="m 0,0 c -3.073,0 -5.565,-2.492 -5.565,-5.566 l 0,-5.868 C -5.565,-14.508 -3.073,-17 0,-17 l 7.869,0 c 3.073,0 5.566,2.492 5.566,5.566 l 0,5.868 C 13.435,-2.492 10.942,0 7.869,0 L 0,0 z" /></g><g
         transform="matrix(3.9904524,4.7042626,-1.5011591,1.2733778,518.4803,613.64742)"
         id="g290-0-0-4"><path
           inkscape:connector-curvature="0"
           id="path292-2-6-8"
           style="fill:#fcee21;fill-opacity:1;fill-rule:nonzero;stroke:none"
           d="m 0,0 c -3.073,0 -5.565,-2.492 -5.565,-5.566 l 0,-5.868 C -5.565,-14.508 -3.073,-17 0,-17 l 7.869,0 c 3.073,0 5.566,2.492 5.566,5.566 l 0,5.868 C 13.435,-2.492 10.942,0 7.869,0 L 0,0 z" /></g><g
         transform="matrix(4.7042626,-3.9904524,1.2733778,1.5011591,176.62958,632.92057)"
         id="g290-0-0-4-1"><path
           inkscape:connector-curvature="0"
           id="path292-2-6-8-7"
           style="fill:#fcee21;fill-opacity:1;fill-rule:nonzero;stroke:none"
           d="m 0,0 c -3.073,0 -5.565,-2.492 -5.565,-5.566 l 0,-5.868 C -5.565,-14.508 -3.073,-17 0,-17 l 7.869,0 c 3.073,0 5.566,2.492 5.566,5.566 l 0,5.868 C 13.435,-2.492 10.942,0 7.869,0 L 0,0 z" /></g></g></g></svg>