<?xml version="1.0" encoding="UTF-8" standalone="no"?>
<!-- Created with Inkscape (http://www.inkscape.org/) -->

<svg
   xmlns:dc="http://purl.org/dc/elements/1.1/"
   xmlns:cc="http://creativecommons.org/ns#"
   xmlns:rdf="http://www.w3.org/1999/02/22-rdf-syntax-ns#"
   xmlns:svg="http://www.w3.org/2000/svg"
   xmlns="http://www.w3.org/2000/svg"
   xmlns:xlink="http://www.w3.org/1999/xlink"
   xmlns:sodipodi="http://sodipodi.sourceforge.net/DTD/sodipodi-0.dtd"
   xmlns:inkscape="http://www.inkscape.org/namespaces/inkscape"
   width="300"
   height="396.1506"
   id="svg2"
   version="1.1"
   inkscape:version="0.48.3.1 r9886"
   sodipodi:docname="New document 1">
  <defs
     id="defs4"><radialGradient
   r="1"
   fy="0"
   fx="0"
   cy="0"
   cx="0"
   spreadMethod="pad"
   gradientTransform="matrix(200,0,0,-200,200,200)"
   gradientUnits="userSpaceOnUse"
   id="radialGradient7706"
   xlink:href="#radialGradient54"
   inkscape:collect="always" />
<clipPath
   id="clipPath74"
   clipPathUnits="userSpaceOnUse">
  <path
     id="path76"
     d="M 0,400 400,400 400,0 0,0 0,400 z"
     inkscape:connector-curvature="0" />
</clipPath>
<radialGradient
   id="radialGradient54"
   spreadMethod="pad"
   gradientTransform="matrix(200,0,0,-200,200,200)"
   gradientUnits="userSpaceOnUse"
   r="1"
   cy="0"
   cx="0"
   fy="0"
   fx="0">
  <stop
     id="stop56"
     offset="0"
     style="stop-opacity:1;stop-color:#ededed" />
  <stop
     id="stop58"
     offset="0.797714"
     style="stop-opacity:1;stop-color:#dadada" />
  <stop
     id="stop60"
     offset="0.797714"
     style="stop-opacity:1;stop-color:#dadada" />
  <stop
     id="stop62"
     offset="1"
     style="stop-opacity:1;stop-color:#dadada" />
</radialGradient>
<mask
   id="mask38"
   height="1"
   width="1"
   y="0"
   x="0"
   maskUnits="userSpaceOnUse">
  <g
     id="g40">
    <g
       id="g42"
       clip-path="url(#clipPath24)">
      <g
         id="g44">
        <g
           id="g46">
          <path
             id="path48"
             style="fill:url(#radialGradient28);stroke:none"
             d="m -32767,32767 65534,0 0,-65534 -65534,0 0,65534 z"
             inkscape:connector-curvature="0" />
        </g>
      </g>
    </g>
  </g>
</mask>
<radialGradient
   id="radialGradient28"
   spreadMethod="pad"
   gradientTransform="matrix(200,0,0,-200,200,200)"
   gradientUnits="userSpaceOnUse"
   r="1"
   cy="0"
   cx="0"
   fy="0"
   fx="0">
  <stop
     id="stop30"
     offset="0"
     style="stop-opacity:0;stop-color:#ffffff" />
  <stop
     id="stop32"
     offset="0.797714"
     style="stop-opacity:0.6512398;stop-color:#ffffff" />
  <stop
     id="stop34"
     offset="0.797714"
     style="stop-opacity:0.6512398;stop-color:#ffffff" />
  <stop
     id="stop36"
     offset="1"
     style="stop-opacity:0.95001144;stop-color:#ffffff" />
</radialGradient>
<clipPath
   id="clipPath24"
   clipPathUnits="userSpaceOnUse">
  <path
     id="path26"
     d="m -32767,32767 65534,0 0,-65534 -65534,0 0,65534 z"
     inkscape:connector-curvature="0" />
</clipPath>
<clipPath
   id="clipPath16"
   clipPathUnits="userSpaceOnUse">
  <path
     id="path18"
     d="M 0,0 400,0 400,400 0,400 0,0 z"
     inkscape:connector-curvature="0" />
</clipPath>

</defs>
  <sodipodi:namedview
     id="base"
     pagecolor="#ffffff"
     bordercolor="#666666"
     borderopacity="1.0"
     inkscape:pageopacity="0.0"
     inkscape:pageshadow="2"
     inkscape:zoom="1.0374842"
     inkscape:cx="150"
     inkscape:cy="198.0753"
     inkscape:document-units="px"
     inkscape:current-layer="layer1"
     showgrid="false"
     fit-margin-top="0"
     fit-margin-left="0"
     fit-margin-right="0"
     fit-margin-bottom="0"
     inkscape:window-width="1366"
     inkscape:window-height="681"
     inkscape:window-x="0"
     inkscape:window-y="27"
     inkscape:window-maximized="1" />
  <metadata
     id="metadata7">
    <rdf:RDF>
      <cc:Work
         rdf:about="">
        <dc:format>image/svg+xml</dc:format>
        <dc:type
           rdf:resource="http://purl.org/dc/dcmitype/StillImage" />
        <dc:title></dc:title>
      </cc:Work>
    </rdf:RDF>
  </metadata>
  <g
     inkscape:label="Layer 1"
     inkscape:groupmode="layer"
     id="layer1"
     transform="translate(-246.20975,-320.76711)">
    <g
       id="g3073"
       transform="matrix(3.4445033,0,0,-3.4445033,-216.43767,1645.7505)"><g
   transform="translate(196.20414,354.40952)"
   id="g702">
  <path
     inkscape:connector-curvature="0"
     id="path704"
     style="fill:#d9553f;fill-opacity:1;fill-rule:nonzero;stroke:none"
     d="M 0,0 0,-84.753 -18.343,-73.791 -36.684,-84.753 -36.684,0 0,0 z" />
</g>
<g
   transform="translate(178.59184,282.22152)"
   id="g706">
  <path
     inkscape:connector-curvature="0"
     id="path708"
     style="fill:#ffffff;fill-opacity:1;fill-rule:nonzero;stroke:none"
     d="M 0,0 -0.73,0.436 -1.461,0 -1.717,0.429 -0.73,1.019 0.256,0.429 0,0 z" />
</g>
<g
   transform="translate(173.88084,280.27912)"
   id="g710">
  <path
     inkscape:connector-curvature="0"
     id="path712"
     style="fill:#ffffff;fill-opacity:1;fill-rule:nonzero;stroke:none"
     d="M 0,0 -0.256,0.429 1.369,1.4 1.625,0.971 0,0 z m -3.25,-1.942 -0.256,0.428 1.625,0.972 0.256,-0.429 -1.625,-0.971 z m -3.249,-1.943 -0.256,0.429 1.624,0.971 0.256,-0.429 -1.624,-0.971 z m -3.25,-1.943 -0.256,0.429 1.625,0.971 0.256,-0.428 -1.625,-0.972 z" />
</g>
<g
   transform="translate(161.27054,272.74102)"
   id="g714">
  <path
     inkscape:connector-curvature="0"
     id="path716"
     style="fill:#ffffff;fill-opacity:1;fill-rule:nonzero;stroke:none"
     d="m 0,0 0,1.441 0.5,0 0,-0.559 L 0.98,1.168 1.236,0.74 0,0 z" />
</g>
<path
   inkscape:connector-curvature="0"
   id="path718"
   style="fill:#ffffff;fill-opacity:1;fill-rule:nonzero;stroke:none"
   d="m 161.77024,347.44912 -0.5,0 0,1.98 0.5,0 0,-1.98 z m 0,-3.961 -0.5,0 0,1.98 0.5,0 0,-1.98 z m 0,-3.96 -0.5,0 0,1.98 0.5,0 0,-1.98 z m 0,-3.96 -0.5,0 0,1.98 0.5,0 0,-1.98 z m 0,-3.961 -0.5,0 0,1.98 0.5,0 0,-1.98 z m 0,-3.96 -0.5,0 0,1.98 0.5,0 0,-1.98 z m 0,-3.961 -0.5,0 0,1.98 0.5,0 0,-1.98 z m 0,-3.96 -0.5,0 0,1.98 0.5,0 0,-1.98 z m 0,-3.96 -0.5,0 0,1.98 0.5,0 0,-1.98 z m 0,-3.961 -0.5,0 0,1.98 0.5,0 0,-1.98 z m 0,-3.96 -0.5,0 0,1.98 0.5,0 0,-1.98 z m 0,-3.961 -0.5,0 0,1.98 0.5,0 0,-1.98 z m 0,-3.96 -0.5,0 0,1.98 0.5,0 0,-1.98 z m 0,-3.96 -0.5,0 0,1.98 0.5,0 0,-1.98 z m 0,-3.961 -0.5,0 0,1.98 0.5,0 0,-1.98 z m 0,-3.96 -0.5,0 0,1.98 0.5,0 0,-1.98 z m 0,-3.96 -0.5,0 0,1.98 0.5,0 0,-1.98 z m 0,-3.961 -0.5,0 0,1.98 0.5,0 0,-1.98 z m 0,-3.96 -0.5,0 0,1.98 0.5,0 0,-1.98 z" />
<path
   inkscape:connector-curvature="0"
   id="path730"
   style="fill:#ffffff;fill-opacity:1;fill-rule:nonzero;stroke:none"
   d="m 194.45424,347.44912 -0.5,0 0,1.98 0.5,0 0,-1.98 z m 0,-3.96 -0.5,0 0,1.98 0.5,0 0,-1.98 z m 0,-3.96 -0.5,0 0,1.98 0.5,0 0,-1.98 z m 0,-3.961 -0.5,0 0,1.98 0.5,0 0,-1.98 z m 0,-3.96 -0.5,0 0,1.98 0.5,0 0,-1.98 z m 0,-3.961 -0.5,0 0,1.98 0.5,0 0,-1.98 z m 0,-3.96 -0.5,0 0,1.98 0.5,0 0,-1.98 z m 0,-3.961 -0.5,0 0,1.98 0.5,0 0,-1.98 z m 0,-3.96 -0.5,0 0,1.98 0.5,0 0,-1.98 z m 0,-3.96 -0.5,0 0,1.98 0.5,0 0,-1.98 z m 0,-3.961 -0.5,0 0,1.98 0.5,0 0,-1.98 z m 0,-3.96 -0.5,0 0,1.98 0.5,0 0,-1.98 z m 0,-3.96 -0.5,0 0,1.98 0.5,0 0,-1.98 z m 0,-3.961 -0.5,0 0,1.98 0.5,0 0,-1.98 z m 0,-3.96 -0.5,0 0,1.98 0.5,0 0,-1.98 z m 0,-3.961 -0.5,0 0,1.98 0.5,0 0,-1.98 z m 0,-3.96 -0.5,0 0,1.98 0.5,0 0,-1.98 z m 0,-3.96 -0.5,0 0,1.98 0.5,0 0,-1.98 z m 0,-3.961 -0.5,0 0,1.98 0.5,0 0,-1.98 z" />
<g
   transform="translate(194.45414,272.74102)"
   id="g732">
  <path
     inkscape:connector-curvature="0"
     id="path734"
     style="fill:#ffffff;fill-opacity:1;fill-rule:nonzero;stroke:none"
     d="m 0,0 -1.236,0.74 0.256,0.428 0.48,-0.286 0,0.559 0.5,0 L 0,0 z" />
</g>
<g
   transform="translate(181.84184,280.27912)"
   id="g736">
  <path
     inkscape:connector-curvature="0"
     id="path738"
     style="fill:#ffffff;fill-opacity:1;fill-rule:nonzero;stroke:none"
     d="M 0,0 -1.625,0.971 -1.369,1.4 0.256,0.429 0,0 z m 3.251,-1.943 -1.626,0.971 0.256,0.43 1.626,-0.971 -0.256,-0.43 z m 3.25,-1.942 -1.625,0.971 0.256,0.429 1.625,-0.971 -0.256,-0.429 z m 3.25,-1.942 -1.625,0.971 0.256,0.429 1.625,-0.971 -0.256,-0.429 z" />
</g>
<g
   transform="translate(177.86134,383.36162)"
   id="g740">
  <path
     inkscape:connector-curvature="0"
     id="path742"
     style="fill:#366f7c;fill-opacity:1;fill-rule:nonzero;stroke:none"
     d="m 0,0 c 2.641,0 7.93,1.802 10.492,1.17 2.563,-0.633 6.408,-4.684 8.744,-5.912 2.338,-1.226 7.86,-2.089 9.834,-3.839 1.977,-1.751 3.498,-7.126 4.996,-9.299 1.5,-2.172 5.989,-5.501 6.924,-7.969 0.936,-2.468 -0.215,-7.936 0.102,-10.554 0.318,-2.621 2.746,-7.656 2.428,-10.276 -0.319,-2.62 -3.879,-6.926 -4.815,-9.393 -0.935,-2.467 -1.127,-8.052 -2.627,-10.224 -1.498,-2.172 -6.652,-4.331 -8.629,-6.081 -1.974,-1.749 -4.738,-6.607 -7.076,-7.833 -2.336,-1.227 -7.904,-0.743 -10.467,-1.374 -2.562,-0.631 -7.267,-3.647 -9.906,-3.647 -2.637,0 -7.342,3.016 -9.904,3.647 -2.563,0.631 -8.131,0.147 -10.467,1.374 -2.336,1.226 -5.102,6.084 -7.076,7.833 -1.977,1.75 -7.131,3.909 -8.629,6.081 -1.5,2.172 -1.692,7.757 -2.627,10.224 -0.936,2.467 -4.496,6.773 -4.815,9.393 -0.318,2.62 2.11,7.655 2.428,10.276 0.319,2.618 -0.834,8.086 0.102,10.554 0.935,2.468 5.424,5.797 6.924,7.969 1.498,2.173 3.019,7.548 4.996,9.299 1.974,1.75 7.496,2.613 9.834,3.839 2.336,1.228 6.181,5.28 8.744,5.912 C -7.928,1.802 -2.639,0 0,0" />
</g>
<g
   transform="translate(215.88474,341.39832)"
   id="g744">
  <path
     inkscape:connector-curvature="0"
     id="path746"
     style="fill:#366f7c;fill-opacity:1;fill-rule:nonzero;stroke:none"
     d="m 0,0 c 0,20.999 -17.023,38.022 -38.021,38.022 -21,0 -38.024,-17.023 -38.024,-38.022 0,-21 17.024,-38.023 38.024,-38.023 C -17.023,-38.023 0,-21 0,0" />
</g>
<g
   transform="translate(177.86334,379.42072)"
   id="g748">
  <path
     inkscape:connector-curvature="0"
     id="path750"
     style="fill:#ffffff;fill-opacity:1;fill-rule:nonzero;stroke:none"
     d="m 0,0 c -21,0 -38.023,-17.023 -38.023,-38.022 0,-21 17.023,-38.024 38.023,-38.024 20.998,0 38.021,17.024 38.021,38.024 C 38.021,-17.023 20.998,0 0,0 m 0,-2 c 19.862,0 36.021,-16.16 36.021,-36.022 0,-19.864 -16.159,-36.024 -36.021,-36.024 -19.863,0 -36.023,16.16 -36.023,36.024 C -36.023,-18.16 -19.863,-2 0,-2" />
</g>
<g
   transform="translate(177.86334,318.77912)"
   id="g796">
  <path
     inkscape:connector-curvature="0"
     id="path798"
     style="fill:#ffffff;fill-opacity:1;fill-rule:nonzero;stroke:none"
     d="M 0,0 1.144,-2.318 3.702,-2.691 1.852,-4.495 2.287,-7.043 0,-5.84 l -2.29,-1.203 0.437,2.548 -1.85,1.804 2.558,0.373 L 0,0 z" />
</g>
<g
   transform="translate(170.27244,318.77912)"
   id="g800">
  <path
     inkscape:connector-curvature="0"
     id="path802"
     style="fill:#ffffff;fill-opacity:1;fill-rule:nonzero;stroke:none"
     d="M 0,0 0.659,-1.337 2.134,-1.551 1.066,-2.591 1.318,-4.06 0,-3.367 -1.32,-4.06 l 0.253,1.469 -1.069,1.04 1.475,0.214 L 0,0 z" />
</g>
<g
   transform="translate(185.45314,318.77912)"
   id="g804">
  <path
     inkscape:connector-curvature="0"
     id="path806"
     style="fill:#ffffff;fill-opacity:1;fill-rule:nonzero;stroke:none"
     d="M 0,0 0.659,-1.337 2.135,-1.551 1.069,-2.591 1.318,-4.06 0,-3.367 -1.318,-4.06 l 0.252,1.469 -1.068,1.04 1.475,0.214 L 0,0 z" />
</g>
<g
   transform="translate(177.86334,370.45592)"
   id="g808">
  <path
     inkscape:connector-curvature="0"
     id="path810"
     style="fill:#ffffff;fill-opacity:1;fill-rule:nonzero;stroke:none"
     d="M 0,0 1.144,-2.318 3.702,-2.691 1.852,-4.495 2.287,-7.043 0,-5.84 l -2.29,-1.203 0.437,2.548 -1.85,1.804 2.558,0.373 L 0,0 z" />
</g>
<g
   transform="translate(170.27244,367.47252)"
   id="g812">
  <path
     inkscape:connector-curvature="0"
     id="path814"
     style="fill:#ffffff;fill-opacity:1;fill-rule:nonzero;stroke:none"
     d="M 0,0 0.659,-1.337 2.134,-1.551 1.066,-2.591 1.318,-4.06 0,-3.367 -1.32,-4.06 l 0.253,1.469 -1.069,1.04 1.475,0.214 L 0,0 z" />
</g>
<g
   transform="translate(185.45314,367.47252)"
   id="g816">
  <path
     inkscape:connector-curvature="0"
     id="path818"
     style="fill:#ffffff;fill-opacity:1;fill-rule:nonzero;stroke:none"
     d="M 0,0 0.659,-1.337 2.135,-1.551 1.069,-2.591 1.318,-4.06 0,-3.367 -1.318,-4.06 l 0.252,1.469 -1.068,1.04 1.475,0.214 L 0,0 z" />
</g>
<text
   transform="scale(1,-1)"
   sodipodi:linespacing="100%"
   id="text7708"
   y="-350.36496"
   x="178.8353"
   style="font-size:12.80000019px;font-style:normal;font-variant:normal;font-weight:bold;font-stretch:normal;text-align:center;line-height:100%;letter-spacing:0px;word-spacing:0px;writing-mode:lr-tb;text-anchor:middle;fill:#000000;fill-opacity:1;stroke:none;font-family:Sans;-inkscape-font-specification:Sans Bold"
   xml:space="preserve"><tspan
     style="font-size:12.80000019px;font-style:normal;font-variant:normal;font-weight:bold;font-stretch:normal;text-align:center;line-height:100%;writing-mode:lr-tb;text-anchor:middle;fill:#ffffff;font-family:Sans;-inkscape-font-specification:Sans Bold"
     y="-350.36496"
     x="178.8353"
     id="tspan7710"
     sodipodi:role="line">Best</tspan><tspan
     style="font-size:12.80000019px;font-style:normal;font-variant:normal;font-weight:bold;font-stretch:normal;text-align:center;line-height:100%;writing-mode:lr-tb;text-anchor:middle;fill:#ffffff;font-family:Sans;-inkscape-font-specification:Sans Bold"
     id="tspan7712"
     y="-337.56497"
     x="178.8353"
     sodipodi:role="line">Academic</tspan><tspan
     style="font-size:12.80000019px;font-style:normal;font-variant:normal;font-weight:bold;font-stretch:normal;text-align:center;line-height:100%;writing-mode:lr-tb;text-anchor:middle;fill:#ffffff;font-family:Sans;-inkscape-font-specification:Sans Bold"
     id="tspan7714"
     y="-324.76495"
     x="178.8353"
     sodipodi:role="line">Essays</tspan></text>

</g>
  </g>
</svg>
