<?xml version="1.0" encoding="UTF-8" standalone="no"?>
<!-- Created with Inkscape (http://www.inkscape.org/) -->

<svg
   xmlns:dc="http://purl.org/dc/elements/1.1/"
   xmlns:cc="http://creativecommons.org/ns#"
   xmlns:rdf="http://www.w3.org/1999/02/22-rdf-syntax-ns#"
   xmlns:svg="http://www.w3.org/2000/svg"
   xmlns="http://www.w3.org/2000/svg"
   xmlns:sodipodi="http://sodipodi.sourceforge.net/DTD/sodipodi-0.dtd"
   xmlns:inkscape="http://www.inkscape.org/namespaces/inkscape"
   id="svg2"
   version="1.1"
   inkscape:version="0.48.3.1 r9886"
   width="1000"
   height="1000"
   xml:space="preserve"
   sodipodi:docname="04.ai"><metadata
     id="metadata8"><rdf:RDF><cc:Work
         rdf:about=""><dc:format>image/svg+xml</dc:format><dc:type
           rdf:resource="http://purl.org/dc/dcmitype/StillImage" /><dc:title></dc:title></cc:Work></rdf:RDF></metadata><defs
     id="defs6"><clipPath
       clipPathUnits="userSpaceOnUse"
       id="clipPath32"><path
         d="M 0,800 800,800 800,0 0,0 0,800 z"
         id="path34" /></clipPath><clipPath
       clipPathUnits="userSpaceOnUse"
       id="clipPath40"><path
         d="m 421.045,163.729 49.646,0 0,-35.245 -49.646,0 0,35.245 z"
         id="path42" /></clipPath><clipPath
       clipPathUnits="userSpaceOnUse"
       id="clipPath64"><path
         d="M 0,800 800,800 800,0 0,0 0,800 z"
         id="path66" /></clipPath><clipPath
       clipPathUnits="userSpaceOnUse"
       id="clipPath204"><path
         d="m 145.983,281.312 64.869,0 0,-165.962 -64.869,0 0,165.962 z"
         id="path206" /></clipPath><clipPath
       clipPathUnits="userSpaceOnUse"
       id="clipPath272"><path
         d="m 635.974,292.096 64.868,0 0,-166.102 -64.868,0 0,166.102 z"
         id="path274" /></clipPath><clipPath
       clipPathUnits="userSpaceOnUse"
       id="clipPath354"><path
         d="m 398.324,467.748 71.742,0 0,-147.609 -71.742,0 0,147.609 z"
         id="path356" /></clipPath><clipPath
       clipPathUnits="userSpaceOnUse"
       id="clipPath456"><path
         d="m 399.395,699.382 70.661,0 0,-145.691 -70.661,0 0,145.691 z"
         id="path458" /></clipPath><clipPath
       clipPathUnits="userSpaceOnUse"
       id="clipPath532"><path
         d="m 102.827,393.944 99.934,0 0,-62.516 -99.934,0 0,62.516 z"
         id="path534" /></clipPath><clipPath
       clipPathUnits="userSpaceOnUse"
       id="clipPath554"><path
         d="m 146.895,484.816 61.643,0 0,-155.097 -61.643,0 0,155.097 z"
         id="path556" /></clipPath><clipPath
       clipPathUnits="userSpaceOnUse"
       id="clipPath618"><path
         d="m 640.01,722.899 60.59,0 0,-152.69 -60.59,0 0,152.69 z"
         id="path620" /></clipPath><clipPath
       clipPathUnits="userSpaceOnUse"
       id="clipPath650"><path
         d="m 594.684,631.927 99.933,0 0,-62.516 -99.933,0 0,62.516 z"
         id="path652" /></clipPath><clipPath
       clipPathUnits="userSpaceOnUse"
       id="clipPath688"><path
         d="m 96.4888,670.361 13.9382,0 0,-2.719 -13.9382,0 0,2.719 z"
         id="path690" /></clipPath><clipPath
       clipPathUnits="userSpaceOnUse"
       id="clipPath708"><path
         d="m 96.4888,640.745 13.9382,0 0,-2.719 -13.9382,0 0,2.719 z"
         id="path710" /></clipPath><clipPath
       clipPathUnits="userSpaceOnUse"
       id="clipPath728"><path
         d="m 96.4888,610.789 13.9382,0 0,-2.72 -13.9382,0 0,2.72 z"
         id="path730" /></clipPath><clipPath
       clipPathUnits="userSpaceOnUse"
       id="clipPath748"><path
         d="m 96.4888,581.415 13.9382,0 0,-2.72 -13.9382,0 0,2.72 z"
         id="path750" /></clipPath><clipPath
       clipPathUnits="userSpaceOnUse"
       id="clipPath780"><path
         d="m 165.723,640.807 26.548,0 0,-37.655 -26.548,0 0,37.655 z"
         id="path782" /></clipPath><clipPath
       clipPathUnits="userSpaceOnUse"
       id="clipPath812"><path
         d="m 167.465,644.49 44.39,0 0,-49.631 -44.39,0 0,49.631 z"
         id="path814" /></clipPath><clipPath
       clipPathUnits="userSpaceOnUse"
       id="clipPath950"><path
         d="m 637.885,439.68 73.921,0 0,-97.805 -73.921,0 0,97.805 z"
         id="path952" /></clipPath><clipPath
       clipPathUnits="userSpaceOnUse"
       id="clipPath1010"><path
         d="m 646.304,438.283 10.578,0 0,-28.515 -10.578,0 0,28.515 z"
         id="path1012" /></clipPath></defs><sodipodi:namedview
     pagecolor="#ffffff"
     bordercolor="#666666"
     borderopacity="1"
     objecttolerance="10"
     gridtolerance="10"
     guidetolerance="10"
     inkscape:pageopacity="0"
     inkscape:pageshadow="2"
     inkscape:window-width="1366"
     inkscape:window-height="681"
     id="namedview4"
     showgrid="false"
     inkscape:zoom="0.411"
     inkscape:cx="500"
     inkscape:cy="500"
     inkscape:window-x="0"
     inkscape:window-y="27"
     inkscape:window-maximized="1"
     inkscape:current-layer="g10" /><g
     id="g10"
     inkscape:groupmode="layer"
     inkscape:label="04"
     transform="matrix(1.25,0,0,-1.25,0,1000)"><g
       id="g4896"
       transform="matrix(5.7290615,0,0,5.7290615,-502.32829,-3218.2445)"><g
         transform="translate(126.55316,689.16852)"
         id="g668"><path
           inkscape:connector-curvature="0"
           id="path670"
           style="fill:#edf1ef;fill-opacity:1;fill-rule:nonzero;stroke:none"
           d="m 0,0 0,-0.012 0,-114.636 32.702,0 25.084,0 0,17.664 17.664,0 L 75.45,0 0,0 z" /></g><g
         transform="translate(184.33926,574.52012)"
         id="g672"><path
           inkscape:connector-curvature="0"
           id="path674"
           style="fill:#f5fffa;fill-opacity:1;fill-rule:nonzero;stroke:none"
           d="M 0,0 8.832,8.832 17.664,17.664 0,17.664 0,0 z" /></g><g
         transform="translate(118.37636,672.31402)"
         id="g676"><path
           inkscape:connector-curvature="0"
           id="path678"
           style="fill:#75b13a;fill-opacity:1;fill-rule:nonzero;stroke:none"
           d="m 0,0 c -2.235,0 -4.048,1.812 -4.048,4.047 0,2.236 1.813,4.048 4.048,4.048 2.235,0 4.048,-1.812 4.048,-4.048 C 4.048,1.812 2.235,0 0,0 m 0,-29.683 c -2.235,0 -4.048,1.812 -4.048,4.048 0,2.236 1.813,4.048 4.048,4.048 2.235,0 4.048,-1.812 4.048,-4.048 0,-2.236 -1.813,-4.048 -4.048,-4.048 m 0,-29.681 c -2.235,0 -4.048,1.811 -4.048,4.047 0,2.236 1.813,4.048 4.048,4.048 2.235,0 4.048,-1.812 4.048,-4.048 0,-2.236 -1.813,-4.047 -4.048,-4.047 m 0,-29.683 c -2.235,0 -4.048,1.812 -4.048,4.048 0,2.236 1.813,4.048 4.048,4.048 2.235,0 4.048,-1.812 4.048,-4.048 0,-2.236 -1.813,-4.048 -4.048,-4.048 m 2.515,105.89 c -5.905,0 -10.691,-4.786 -10.691,-10.692 l 0,-93.255 c 0,-5.904 4.786,-10.69 10.691,-10.69 l 5.662,0 0,114.637 -5.662,0 z" /></g><g
         transform="translate(120.15956,676.20072)"
         id="g680"><path
           inkscape:connector-curvature="0"
           id="path682"
           style="fill:#c5c9c8;fill-opacity:1;fill-rule:nonzero;stroke:none"
           d="m 0,0 c 0,-1.502 -1.217,-2.72 -2.72,-2.72 l -8.499,0 c -1.502,0 -2.719,1.218 -2.719,2.72 0,1.502 1.217,2.719 2.719,2.719 l 8.499,0 C -1.217,2.719 0,1.502 0,0" /></g><g
         transform="translate(9.7323601,5.8394161)"
         id="g684"><g
           id="g686" /><g
           id="g692"><g
             style="opacity:0.27999902"
             id="g694"
             clip-path="url(#clipPath688)"><g
               id="g696"
               transform="translate(110.4272,670.3613)"><path
                 inkscape:connector-curvature="0"
                 id="path698"
                 style="fill:#c5c9c8;fill-opacity:1;fill-rule:nonzero;stroke:none"
                 d="m 0,0 0,0 c 0,-1.502 -1.217,-2.72 -2.72,-2.72 l -8.499,0 c -1.502,0 -2.719,1.218 -2.719,2.72 L 0,0 z" /></g></g></g></g><g
         transform="translate(120.15956,646.58452)"
         id="g700"><path
           inkscape:connector-curvature="0"
           id="path702"
           style="fill:#c5c9c8;fill-opacity:1;fill-rule:nonzero;stroke:none"
           d="m 0,0 c 0,-1.502 -1.217,-2.719 -2.72,-2.719 l -8.499,0 c -1.502,0 -2.719,1.217 -2.719,2.719 0,1.503 1.217,2.72 2.719,2.72 l 8.499,0 C -1.217,2.72 0,1.503 0,0" /></g><g
         transform="translate(9.7323601,5.8394161)"
         id="g704"><g
           id="g706" /><g
           id="g712"><g
             style="opacity:0.27999902"
             id="g714"
             clip-path="url(#clipPath708)"><g
               id="g716"
               transform="translate(110.4272,640.7451)"><path
                 inkscape:connector-curvature="0"
                 id="path718"
                 style="fill:#c5c9c8;fill-opacity:1;fill-rule:nonzero;stroke:none"
                 d="m 0,0 0,0 c 0,-1.502 -1.217,-2.719 -2.72,-2.719 l -8.499,0 c -1.502,0 -2.719,1.217 -2.719,2.719 L 0,0 z" /></g></g></g></g><g
         transform="translate(120.15956,616.62852)"
         id="g720"><path
           inkscape:connector-curvature="0"
           id="path722"
           style="fill:#c5c9c8;fill-opacity:1;fill-rule:nonzero;stroke:none"
           d="m 0,0 c 0,-1.503 -1.217,-2.72 -2.72,-2.72 l -8.499,0 c -1.502,0 -2.719,1.217 -2.719,2.72 0,1.502 1.217,2.72 2.719,2.72 l 8.499,0 C -1.217,2.72 0,1.502 0,0" /></g><g
         transform="translate(9.7323601,5.8394161)"
         id="g724"><g
           id="g726" /><g
           id="g732"><g
             style="opacity:0.27999902"
             id="g734"
             clip-path="url(#clipPath728)"><g
               id="g736"
               transform="translate(110.4272,610.7891)"><path
                 inkscape:connector-curvature="0"
                 id="path738"
                 style="fill:#c5c9c8;fill-opacity:1;fill-rule:nonzero;stroke:none"
                 d="m 0,0 0,0 c 0,-1.503 -1.217,-2.72 -2.72,-2.72 l -8.499,0 c -1.502,0 -2.719,1.217 -2.719,2.72 L 0,0 z" /></g></g></g></g><g
         transform="translate(120.15956,587.25442)"
         id="g740"><path
           inkscape:connector-curvature="0"
           id="path742"
           style="fill:#c5c9c8;fill-opacity:1;fill-rule:nonzero;stroke:none"
           d="m 0,0 c 0,-1.502 -1.217,-2.72 -2.72,-2.72 l -8.499,0 c -1.502,0 -2.719,1.218 -2.719,2.72 0,1.502 1.217,2.72 2.719,2.72 l 8.499,0 C -1.217,2.72 0,1.502 0,0" /></g><g
         transform="translate(9.7323601,5.8394161)"
         id="g744"><g
           id="g746" /><g
           id="g752"><g
             style="opacity:0.27999902"
             id="g754"
             clip-path="url(#clipPath748)"><g
               id="g756"
               transform="translate(110.4272,581.415)"><path
                 inkscape:connector-curvature="0"
                 id="path758"
                 style="fill:#c5c9c8;fill-opacity:1;fill-rule:nonzero;stroke:none"
                 d="m 0,0 0,0 c 0,-1.502 -1.217,-2.72 -2.72,-2.72 l -8.499,0 c -1.502,0 -2.719,1.218 -2.719,2.72 L 0,0 z" /></g></g></g></g><path
         inkscape:connector-curvature="0"
         id="path760"
         style="fill:#8b8b8c;fill-opacity:1;fill-rule:nonzero;stroke:none"
         d="m 195.57836,670.76142 -62.601,0 0,2.72 62.601,0 0,-2.72 z" /><path
         inkscape:connector-curvature="0"
         id="path762"
         style="fill:#8b8b8c;fill-opacity:1;fill-rule:nonzero;stroke:none"
         d="m 195.57836,661.16542 -62.601,0 0,2.72 62.601,0 0,-2.72 z" /><path
         inkscape:connector-curvature="0"
         id="path764"
         style="fill:#8b8b8c;fill-opacity:1;fill-rule:nonzero;stroke:none"
         d="m 195.57836,651.57142 -62.601,0 0,2.721 62.601,0 0,-2.721 z" /><path
         inkscape:connector-curvature="0"
         id="path766"
         style="fill:#8b8b8c;fill-opacity:1;fill-rule:nonzero;stroke:none"
         d="m 195.57836,641.97842 -62.601,0 0,2.72 62.601,0 0,-2.72 z" /><path
         inkscape:connector-curvature="0"
         id="path768"
         style="fill:#8b8b8c;fill-opacity:1;fill-rule:nonzero;stroke:none"
         d="m 195.57836,632.38442 -62.601,0 0,2.719 62.601,0 0,-2.719 z" /><path
         inkscape:connector-curvature="0"
         id="path770"
         style="fill:#8b8b8c;fill-opacity:1;fill-rule:nonzero;stroke:none"
         d="m 195.57836,622.78842 -62.601,0 0,2.721 62.601,0 0,-2.721 z" /><path
         inkscape:connector-curvature="0"
         id="path772"
         style="fill:#8b8b8c;fill-opacity:1;fill-rule:nonzero;stroke:none"
         d="m 195.57836,613.19442 -62.601,0 0,2.72 62.601,0 0,-2.72 z" /><path
         inkscape:connector-curvature="0"
         id="path774"
         style="fill:#8b8b8c;fill-opacity:1;fill-rule:nonzero;stroke:none"
         d="m 195.57836,603.60142 -62.601,0 0,2.72 62.601,0 0,-2.72 z" /><g
         transform="translate(9.7323601,5.8394161)"
         id="g776"><g
           id="g778" /><g
           id="g784"><g
             style="opacity:0.11000103"
             id="g786"
             clip-path="url(#clipPath780)"><g
               id="g788"
               transform="translate(192.271,624.9209)"><path
                 inkscape:connector-curvature="0"
                 id="path790"
                 style="fill:#1c1c1b;fill-opacity:1;fill-rule:nonzero;stroke:none"
                 d="m 0,0 -13.373,13.184 -8.8,1.797 -4.349,0.889 -0.016,0.016 0.003,-0.013 -0.013,0.003 0.894,-4.375 L -23.857,2.7 0,-21.769 0,0 z" /></g></g></g></g><g
         transform="translate(226.81976,611.17242)"
         id="g792"><path
           inkscape:connector-curvature="0"
           id="path794"
           style="fill:#ff4234;fill-opacity:1;fill-rule:nonzero;stroke:none"
           d="M 0,0 -10.484,-10.484 -46.941,25.973 -36.457,36.456 0,0 z" /></g><g
         transform="translate(220.80076,617.19002)"
         id="g796"><path
           inkscape:connector-curvature="0"
           id="path798"
           style="fill:#fff09e;fill-opacity:1;fill-rule:nonzero;stroke:none"
           d="M 0,0 -10.484,-10.483 -12.381,-8.587 -1.897,1.897 0,0 z" /></g><g
         transform="translate(179.87836,637.14512)"
         id="g800"><path
           inkscape:connector-curvature="0"
           id="path802"
           style="fill:#fff09e;fill-opacity:1;fill-rule:nonzero;stroke:none"
           d="M 0,0 10.484,10.483 1.684,12.281 -1.797,8.801 0,0 z" /></g><g
         transform="translate(178.08096,645.94582)"
         id="g804"><path
           inkscape:connector-curvature="0"
           id="path806"
           style="fill:#1c1c1b;fill-opacity:1;fill-rule:nonzero;stroke:none"
           d="M 0,0 3.481,3.48 -0.894,4.374 0,0 z" /></g><g
         transform="translate(9.7323601,5.8394161)"
         id="g808"><g
           id="g810" /><g
           id="g816"><g
             style="opacity:0.27999902"
             id="g818"
             clip-path="url(#clipPath812)"><g
               id="g820"
               transform="translate(211.855,600.1006)"><path
                 inkscape:connector-curvature="0"
                 id="path822"
                 style="fill:#ff4234;fill-opacity:1;fill-rule:nonzero;stroke:none"
                 d="M 0,0 -5.242,-5.241 -11.26,0.777 -6.018,6.019 0,0 z" /></g><g
               id="g824"
               transform="translate(175.3984,636.5576)"><path
                 inkscape:connector-curvature="0"
                 id="path826"
                 style="fill:#ff4234;fill-opacity:1;fill-rule:nonzero;stroke:none"
                 d="M 0,0 28.541,-28.541 23.299,-33.782 -5.242,-5.241 0,0 z" /></g><g
               id="g828"
               transform="translate(205.8369,606.1191)"><path
                 inkscape:connector-curvature="0"
                 id="path830"
                 style="fill:#fff09e;fill-opacity:1;fill-rule:nonzero;stroke:none"
                 d="M 0,0 -5.242,-5.241 -7.14,-3.344 -1.898,1.897 0,0 z" /></g><g
               id="g832"
               transform="translate(175.3984,636.5576)"><path
                 inkscape:connector-curvature="0"
                 id="path834"
                 style="fill:#fff09e;fill-opacity:1;fill-rule:nonzero;stroke:none"
                 d="M 0,0 -5.242,-5.241 -7.04,3.559 -5.299,5.3 0,0 z" /></g><g
               id="g836"
               transform="translate(168.3584,640.1162)"><path
                 inkscape:connector-curvature="0"
                 id="path838"
                 style="fill:#1c1c1b;fill-opacity:1;fill-rule:nonzero;stroke:none"
                 d="M 0,0 -0.894,4.374 1.741,1.741 0,0 z" /></g></g></g></g></g></g></svg>