<?xml version="1.0" encoding="UTF-8" standalone="no"?>
<!-- Generator: Adobe Illustrator 16.2.1, SVG Export Plug-In . SVG Version: 6.00 Build 0)  -->

<svg
   xmlns:dc="http://purl.org/dc/elements/1.1/"
   xmlns:cc="http://creativecommons.org/ns#"
   xmlns:rdf="http://www.w3.org/1999/02/22-rdf-syntax-ns#"
   xmlns:svg="http://www.w3.org/2000/svg"
   xmlns="http://www.w3.org/2000/svg"
   xmlns:sodipodi="http://sodipodi.sourceforge.net/DTD/sodipodi-0.dtd"
   xmlns:inkscape="http://www.inkscape.org/namespaces/inkscape"
   version="1.1"
   id="Layer_1"
   x="0px"
   y="0px"
   width="512px"
   height="512px"
   viewBox="0 0 512 512"
   enable-background="new 0 0 512 512"
   xml:space="preserve"
   inkscape:version="0.48.3.1 r9886"
   sodipodi:docname="num2.svg"><metadata
   id="metadata13"><rdf:RDF><cc:Work
       rdf:about=""><dc:format>image/svg+xml</dc:format><dc:type
         rdf:resource="http://purl.org/dc/dcmitype/StillImage" /></cc:Work></rdf:RDF></metadata><defs
   id="defs11" /><sodipodi:namedview
   pagecolor="#ffffff"
   bordercolor="#666666"
   borderopacity="1"
   objecttolerance="10"
   gridtolerance="10"
   guidetolerance="10"
   inkscape:pageopacity="0"
   inkscape:pageshadow="2"
   inkscape:window-width="1366"
   inkscape:window-height="681"
   id="namedview9"
   showgrid="false"
   inkscape:zoom="0.4609375"
   inkscape:cx="256"
   inkscape:cy="135.63801"
   inkscape:window-x="0"
   inkscape:window-y="27"
   inkscape:window-maximized="1"
   inkscape:current-layer="Layer_1" />

<g
   id="g5"
   style="fill:#666666">
	<path
   d="M176,209.75c2.531-24.406,10.969-44.141,25.375-59.219c14.344-15.031,34-22.531,58.859-22.531   c12.234,0,23.172,2.141,32.594,6.484c9.422,4.297,17.375,10.141,23.719,17.484c6.328,7.281,11.219,15.547,14.516,24.797   c3.281,9.266,4.938,18.844,4.938,28.703c0,8.625-0.984,16.391-3.062,23.266c-2.094,6.875-4.953,12.984-8.688,18.297   c-3.75,5.438-8.031,10.375-13.109,15c-4.922,4.688-10.328,9.078-16.188,13.234c-10.844,8.406-22.125,16.453-33.672,24.203   c-11.594,7.75-22.719,16.531-33.375,26.328c-3.875,3.672-7.062,7.438-9.594,11.453c-2.5,4.016-4.594,9.031-6.266,15.016h117.375   V384H178.531v-24.203c0-10.047,3.188-20,9.625-29.578c6.438-9.734,14.438-19.188,24.125-28.219   c9.625-9.031,20.188-17.828,31.781-26.359c11.609-8.516,22.531-16.766,32.891-24.781c7.844-5.984,14.031-12.359,18.672-19.234   c4.516-6.859,6.859-15.625,6.859-26.344c0-15.172-3.812-27.031-11.734-35.531c-7.781-8.484-17.938-12.734-30.516-12.734   c-15.359,0-27.531,4.703-36.453,14.109c-9,9.375-13.438,22.25-13.438,38.625H176z"
   id="path7"
   style="fill:#666666" />
</g>
</svg>