<?xml version="1.0" encoding="UTF-8" standalone="no"?>
<!-- Created with Inkscape (http://www.inkscape.org/) -->

<svg
   xmlns:dc="http://purl.org/dc/elements/1.1/"
   xmlns:cc="http://creativecommons.org/ns#"
   xmlns:rdf="http://www.w3.org/1999/02/22-rdf-syntax-ns#"
   xmlns:svg="http://www.w3.org/2000/svg"
   xmlns="http://www.w3.org/2000/svg"
   xmlns:sodipodi="http://sodipodi.sourceforge.net/DTD/sodipodi-0.dtd"
   xmlns:inkscape="http://www.inkscape.org/namespaces/inkscape"
   id="svg2"
   version="1.1"
   inkscape:version="0.48.3.1 r9886"
   width="890.88159"
   height="166.09038"
   xml:space="preserve"
   sodipodi:docname="professionals.svg"><metadata
     id="metadata8"><rdf:RDF><cc:Work
         rdf:about=""><dc:format>image/svg+xml</dc:format><dc:type
           rdf:resource="http://purl.org/dc/dcmitype/StillImage" /><dc:title /></cc:Work></rdf:RDF></metadata><defs
     id="defs6"><clipPath
       clipPathUnits="userSpaceOnUse"
       id="clipPath50"><path
         d="M 0,800 800,800 800,0 0,0 0,800 z"
         id="path52"
         inkscape:connector-curvature="0" /></clipPath></defs><sodipodi:namedview
     pagecolor="#ffffff"
     bordercolor="#666666"
     borderopacity="1"
     objecttolerance="10"
     gridtolerance="10"
     guidetolerance="10"
     inkscape:pageopacity="0"
     inkscape:pageshadow="2"
     inkscape:window-width="1366"
     inkscape:window-height="681"
     id="namedview4"
     showgrid="false"
     fit-margin-top="0"
     fit-margin-left="0"
     fit-margin-right="0"
     fit-margin-bottom="0"
     inkscape:zoom="0.411"
     inkscape:cx="445.49236"
     inkscape:cy="-36.438039"
     inkscape:window-x="0"
     inkscape:window-y="27"
     inkscape:window-maximized="1"
     inkscape:current-layer="g10" /><g
     id="g10"
     inkscape:groupmode="layer"
     inkscape:label="Comp_Proffesion-icons"
     transform="matrix(1.25,0,0,-1.25,-54.507637,717.39455)"><g
       id="g4735"
       style="fill:#666666;fill-opacity:1"
       transform="translate(821.41119,323.11436)"><g
         transform="translate(-751.47108,140.16242)"
         id="g210"
         style="fill:#666666;fill-opacity:1"><path
           inkscape:connector-curvature="0"
           id="path212"
           style="fill:#666666;fill-opacity:1;fill-rule:nonzero;stroke:none"
           d="m 0,0 c -3.549,0 -6.424,2.874 -6.424,6.422 0,3.546 2.875,6.422 6.424,6.422 3.546,0 6.421,-2.876 6.421,-6.422 C 6.421,2.874 3.546,0 0,0 m 26.327,28.377 -52.661,0 0,-49.415 75.804,0 0,6.123 -23.143,0 0,43.292 z" /></g><g
         transform="translate(-741.74808,175.02052)"
         id="g214"
         style="fill:#666666;fill-opacity:1"><path
           inkscape:connector-curvature="0"
           id="path216"
           style="fill:#666666;fill-opacity:1;fill-rule:nonzero;stroke:none"
           d="m 0,0 c 0.612,0 1.225,0.048 1.823,0.142 0.546,-0.996 1.166,-1.913 1.774,-2.845 l 8.76,0 C 10.224,-0.223 8.324,2.62 6.826,5.852 L 5.309,9.112 C 3.756,8.35 1.549,7.04 0,7.04 c -7.55,0 -7.69,14.158 -0.17,14.427 l 3.572,-0.19 0.502,3.106 c 0.188,1.171 0.472,2.302 0.8,3.414 5.362,1.428 11.421,5.378 13.158,15.804 12.708,-12.71 29.147,-15.787 39.157,-16.392 0.251,-0.925 0.469,-1.861 0.624,-2.826 l 0.501,-3.106 c 0.425,0.021 3.196,0.137 3.58,0.19 3.11,-0.116 5.608,-3.304 5.608,-7.209 0,-3.98 -2.593,-7.218 -5.785,-7.218 -1.543,0 -3.749,1.308 -5.307,2.072 L 54.724,5.852 C 49.614,-5.164 40.212,-12.28 30.773,-12.28 c -3.542,0 -7.08,1.006 -10.39,2.843 l 0,-7.697 c 3.357,-1.375 6.856,-2.188 10.39,-2.188 11.321,0 22.42,7.548 28.951,19.464 C 60.325,0.048 60.934,0 61.547,0 c 7.073,0 12.826,6.396 12.826,14.258 0,6.126 -3.502,11.348 -8.395,13.359 -1.059,18.417 -10.877,36.71 -35.172,36.71 -23.305,0 -33.99,-18.276 -35.16,-36.686 -4.933,-1.987 -8.472,-7.225 -8.472,-13.383 C -12.826,6.396 -7.07,0 0,0" /></g><g
         transform="translate(-686.79898,160.58922)"
         id="g218"
         style="fill:#666666;fill-opacity:1"><path
           inkscape:connector-curvature="0"
           id="path220"
           style="fill:#666666;fill-opacity:1;fill-rule:nonzero;stroke:none"
           d="m 0,0 c -6.767,-6.245 -0.174,-29.306 -22.25,-30.616 l 0,6.959 c 0,1.044 -0.845,1.889 -1.889,1.889 -1.044,0 -1.889,-0.845 -1.889,-1.889 l 0,-6.965 c -3.546,0.201 -6.291,1.004 -8.538,2.16 l 0,-3.101 23.142,0 0,-9.747 32.792,0 c 0,0.052 0.004,0.1 0.004,0.152 C 21.372,-24.746 12.974,-9.04 0,0" /></g><g
         transform="translate(-721.08508,199.08372)"
         id="g222"
         style="fill:#666666;fill-opacity:1"><path
           inkscape:connector-curvature="0"
           id="path224"
           style="fill:#666666;fill-opacity:1;fill-rule:nonzero;stroke:none"
           d="m 0,0 c -1.978,0 -3.583,-2.516 -3.583,-5.623 0,-3.109 1.605,-5.627 3.583,-5.627 1.985,0 3.59,2.518 3.59,5.627 C 3.59,-2.516 1.985,0 0,0" /></g><g
         transform="translate(-700.54718,187.83352)"
         id="g226"
         style="fill:#666666;fill-opacity:1"><path
           inkscape:connector-curvature="0"
           id="path228"
           style="fill:#666666;fill-opacity:1;fill-rule:nonzero;stroke:none"
           d="M 0,0 C 1.978,0 3.587,2.518 3.587,5.627 3.587,8.734 1.978,11.25 0,11.25 -1.981,11.25 -3.586,8.734 -3.586,5.627 -3.586,2.518 -1.981,0 0,0" /></g><g
         transform="translate(-710.97478,173.83032)"
         id="g230"
         style="fill:#666666;fill-opacity:1"><path
           inkscape:connector-curvature="0"
           id="path232"
           style="fill:#666666;fill-opacity:1;fill-rule:nonzero;stroke:none"
           d="m 0,0 c 3.59,0 6.516,2.793 6.937,5.517 l -13.874,0 C -6.516,2.793 -3.59,0 0,0" /></g><g
         transform="translate(-675.24958,172.14972)"
         id="g234"
         style="fill:#666666;fill-opacity:1"><path
           inkscape:connector-curvature="0"
           id="path236"
           style="fill:#666666;fill-opacity:1;fill-rule:nonzero;stroke:none"
           d="m 0,0 c -1.579,-0.543 -3.86,-0.893 -4.682,-0.906 -1.598,-2.601 -3.436,-4.937 -5.399,-7.073 6.797,-4.767 12.391,-10.507 16.919,-18.8 0.025,0.077 0.051,0.157 0.077,0.234 C 11.992,-10.219 3.749,-2.541 0,0" /></g><g
         transform="translate(-518.63363,164.48588)"
         id="g412"
         style="fill:#666666;fill-opacity:1"><path
           inkscape:connector-curvature="0"
           id="path414"
           style="fill:#666666;fill-opacity:1;fill-rule:nonzero;stroke:none"
           d="m 0,0 c 3.065,0 5.563,2.382 5.922,4.704 l -11.841,0 C -5.559,2.382 -3.061,0 0,0" /></g><g
         transform="translate(-535.57013,227.95498)"
         id="g416"
         style="fill:#666666;fill-opacity:1"><path
           inkscape:connector-curvature="0"
           id="path418"
           style="fill:#666666;fill-opacity:1;fill-rule:nonzero;stroke:none"
           d="m 0,0 c 2.026,-0.46 4.28,-0.056 6.106,1.295 1.747,1.299 2.846,3.297 3.006,5.467 0.224,3.057 3.744,5.547 7.848,5.547 4.101,0 7.621,-2.49 7.845,-5.547 0.164,-2.17 1.259,-4.168 3.005,-5.467 1.827,-1.351 4.081,-1.755 6.107,-1.295 7.057,1.571 13.108,-4.268 8.64,-8.848 -3.161,-3.244 -2.122,-7.133 -2.122,-18.139 l -46.953,0 c 0,11.006 1.039,14.895 -2.122,18.139 C -13.152,-4.224 -6.978,1.555 0,0 m 43.2,-56.452 c -1.315,0 -3.201,1.12 -4.528,1.77 l -1.294,-2.78 c -4.36,-9.4 -12.385,-15.474 -20.442,-15.474 -8.048,0 -16.073,6.074 -20.437,15.474 l -1.291,2.78 c -1.326,-0.647 -3.213,-1.77 -4.531,-1.77 -6.446,0 -6.562,12.089 -0.144,12.313 l 2.957,-0.156 0.056,-0.04 c 2.166,1.735 4.168,5.671 5.819,9.859 l 35.147,0 c 1.643,-4.16 3.633,-8.072 5.783,-9.823 0.016,-0.012 0.028,-0.024 0.044,-0.036 l 0.056,0.04 c 0.503,0.028 2.645,0.112 2.957,0.156 2.654,-0.096 4.788,-2.818 4.788,-6.15 0,-3.393 -2.218,-6.163 -4.94,-6.163 m -63.469,6.163 c 0,-6.706 4.911,-12.169 10.946,-12.169 0.523,0 1.047,0.044 1.554,0.124 5.579,-10.171 15.046,-16.613 24.705,-16.613 9.663,0 19.135,6.442 24.71,16.613 0.511,-0.08 1.031,-0.124 1.554,-0.124 6.038,0 10.946,5.463 10.946,12.169 0,5.367 -3.153,9.898 -7.501,11.513 0.28,0.983 0.599,2.45 0.815,4.304 0.256,0 0.464,0.208 0.464,0.46 l 0,16.864 c 0,1.763 0.531,3.485 1.526,4.936 1.347,1.958 2.142,4.232 2.142,6.677 0,7.354 -6.901,13.32 -15.418,13.32 -1.354,0 -2.645,-0.196 -3.9,-0.48 -0.507,6.962 -7.133,12.493 -15.314,12.493 -8.184,0 -14.81,-5.531 -15.317,-12.493 -1.255,0.284 -2.542,0.48 -3.901,0.48 -8.516,0 -15.418,-5.966 -15.418,-13.32 0,-2.445 0.796,-4.719 2.142,-6.677 0.999,-1.459 1.527,-3.166 1.527,-4.936 l 0,-16.9 c 0,-0.236 0.188,-0.424 0.424,-0.424 0.215,-1.854 0.539,-3.321 0.811,-4.304 -4.344,-1.618 -7.497,-6.146 -7.497,-11.513" /></g><g
         transform="translate(-518.58983,124.36698)"
         id="g420"
         style="fill:#666666;fill-opacity:1"><path
           inkscape:connector-curvature="0"
           id="path422"
           style="fill:#666666;fill-opacity:1;fill-rule:nonzero;stroke:none"
           d="m 0,0 c -1.727,0 -3.129,1.399 -3.129,3.125 0,1.73 1.402,3.129 3.129,3.129 1.727,0 3.129,-1.399 3.129,-3.129 C 3.129,1.399 1.727,0 0,0 m 20.589,28.817 c -5.947,-5.483 -13.212,-16.3 -20.633,-16.3 -7.417,0 -14.682,10.817 -20.625,16.3 -11.073,-7.713 -24.693,-21.12 -24.693,-35.127 0,-0.044 0.008,-0.084 0.008,-0.128 l 90.628,0 c 0,0.044 0.004,0.084 0.004,0.128 0,14.007 -13.615,27.414 -24.689,35.127" /></g><g
         transform="translate(-527.26163,186.03798)"
         id="g424"
         style="fill:#666666;fill-opacity:1"><path
           inkscape:connector-curvature="0"
           id="path426"
           style="fill:#666666;fill-opacity:1;fill-rule:nonzero;stroke:none"
           d="m 0,0 c -1.686,0 -3.053,-2.15 -3.053,-4.8 0,-2.653 1.367,-4.807 3.053,-4.807 1.694,0 3.065,2.154 3.065,4.807 C 3.065,-2.15 1.694,0 0,0" /></g><g
         transform="translate(-509.73383,186.03798)"
         id="g428"
         style="fill:#666666;fill-opacity:1"><path
           inkscape:connector-curvature="0"
           id="path430"
           style="fill:#666666;fill-opacity:1;fill-rule:nonzero;stroke:none"
           d="m 0,0 c -1.686,0 -3.057,-2.15 -3.057,-4.8 0,-2.653 1.371,-4.807 3.057,-4.807 1.69,0 3.061,2.154 3.061,4.807 C 3.061,-2.15 1.69,0 0,0" /></g><g
         transform="translate(-351.31913,117.95298)"
         id="g432"
         style="fill:#666666;fill-opacity:1"><path
           inkscape:connector-curvature="0"
           id="path434"
           style="fill:#666666;fill-opacity:1;fill-rule:nonzero;stroke:none"
           d="m 0,0 0,41.489 c 0,2.306 -1.864,4.173 -4.168,4.173 -2.302,0 -4.168,-1.867 -4.168,-4.173 L -8.336,0 0,0 z" /></g><g
         transform="translate(-347.14903,131.99168)"
         id="g436"
         style="fill:#666666;fill-opacity:1"><path
           inkscape:connector-curvature="0"
           id="path438"
           style="fill:#666666;fill-opacity:1;fill-rule:nonzero;stroke:none"
           d="M 0,0 C 7.719,2.354 14.593,7.238 13.727,20.305 12.654,36.478 4.822,57.167 -3.699,64.149 -6.392,66.355 -10.3,66.347 -12.99,64.137 -21.506,57.147 -29.329,36.47 -30.402,20.305 -31.269,7.238 -24.395,2.354 -16.677,0 l 0,27.451 c 0,4.596 3.741,8.34 8.339,8.34 4.597,0 8.338,-3.744 8.338,-8.34 L 0,0 z" /></g><path
         d="m -328.36433,210.06398 c 7.341,1.531 15.236,2.457 23.586,2.457 8.398,0 16.339,-0.939 23.714,-2.489 0.594,-1.307 1.207,-2.566 1.847,-3.717 -6.191,1.559 -15.31,2.842 -25.507,2.842 -10.211,0 -19.342,-1.283 -25.534,-2.846 0.655,1.171 1.29,2.414 1.894,3.753 m -15.668,-15.262 c 0.41,3.329 2.376,6.318 5.923,6.446 l 0.947,-0.052 c 2.642,-1.211 9.082,-2.206 17.52,-2.754 -0.008,-0.155 -0.03,-0.303 -0.03,-0.463 0,-3.353 1.734,-6.067 3.866,-6.067 2.138,0 3.873,2.714 3.873,6.067 0,0.04 -0.006,0.072 -0.006,0.104 2.325,-0.064 4.735,-0.104 7.215,-0.104 2.476,0 4.884,0.04 7.208,0.104 0,-0.032 -0.007,-0.064 -0.007,-0.104 0,-3.353 1.735,-6.067 3.871,-6.067 2.134,0 3.868,2.714 3.868,6.067 0,0.16 -0.022,0.308 -0.03,0.463 8.404,0.544 14.828,1.535 17.492,2.738 0.462,0.024 0.857,0.048 0.985,0.068 8.123,-0.308 7.943,-15.566 -0.189,-15.566 -1.667,0 -4.047,1.415 -5.727,2.234 -8.219,-17.687 -18.273,-23.074 -27.471,-23.074 -9.193,0 -19.252,5.383 -27.472,23.074 -1.679,-0.819 -4.059,-2.234 -5.731,-2.234 -0.202,0 -0.372,0.052 -0.564,0.068 1.589,-3.209 3.025,-6.682 4.262,-10.278 7.178,-11.214 18.21,-18.231 29.505,-18.231 12.213,0 24.182,8.144 31.231,21 8.407,-1.319 15.804,5.951 15.804,15.226 0,6.618 -3.807,12.205 -9.096,14.367 0.234,1.538 0.398,3.089 0.398,4.687 0,19.487 -17.186,35.28 -38.391,35.28 -21.206,0 -38.392,-15.793 -38.392,-35.28 0,-1.614 0.169,-3.18 0.403,-4.731 -3.203,-1.339 -5.842,-3.952 -7.419,-7.277 0.677,-0.34 1.327,-0.736 1.92,-1.219 1.465,-1.203 2.878,-2.742 4.234,-4.492"
         style="fill:#666666;fill-opacity:1;fill-rule:nonzero;stroke:none"
         id="path442"
         inkscape:connector-curvature="0" /><g
         transform="translate(-278.64633,162.51968)"
         id="g444"
         style="fill:#666666;fill-opacity:1"><path
           inkscape:connector-curvature="0"
           id="path446"
           style="fill:#666666;fill-opacity:1;fill-rule:nonzero;stroke:none"
           d="m 0,0 c -7.517,-6.933 -16.702,-29.621 -26.078,-29.621 -9.337,0 -18.481,22.471 -25.976,29.513 0.677,-3.429 1.141,-6.758 1.347,-9.843 0.835,-12.628 -4.752,-20.865 -16.607,-24.477 l -1.283,-0.392 0,-9.747 99.802,0 c 0,0.056 0.006,0.112 0.006,0.168 C 31.211,-26.695 13.995,-9.755 0,0" /></g><g
         transform="translate(-297.24303,182.75688)"
         id="g448"
         style="fill:#666666;fill-opacity:1"><path
           inkscape:connector-curvature="0"
           id="path450"
           style="fill:#666666;fill-opacity:1;fill-rule:nonzero;stroke:none"
           d="m 0,0 -14.968,0 c 0.453,-2.937 3.611,-5.955 7.485,-5.955 3.873,0 7.029,3.018 7.483,5.955" /></g><g
         transform="translate(-140.75143,196.50728)"
         id="g452"
         style="fill:#666666;fill-opacity:1"><path
           inkscape:connector-curvature="0"
           id="path454"
           style="fill:#666666;fill-opacity:1;fill-rule:nonzero;stroke:none"
           d="m 0,0 3.532,-0.184 0.496,3.069 c 0.186,1.159 0.468,2.274 0.791,3.377 5.303,1.415 11.296,5.323 13.014,15.63 C 30.403,9.319 46.661,6.278 56.561,5.679 56.811,4.767 57.025,3.84 57.179,2.885 l 0.495,-3.069 c 0.42,0.016 3.162,0.132 3.541,0.184 3.077,-0.112 5.547,-3.265 5.547,-7.13 0,-3.936 -2.565,-7.141 -5.723,-7.141 -1.524,0 -3.706,1.299 -5.247,2.054 l -1.501,-3.229 C 49.238,-26.34 39.939,-33.377 30.604,-33.377 c -9.332,0 -18.631,7.037 -23.687,17.931 l -1.498,3.229 C 3.882,-12.968 1.7,-14.271 0.168,-14.271 -7.299,-14.271 -7.439,-0.264 0,0 M -7.231,33.661 1.129,45.366 8.248,34.352 C 4.652,31.123 1.856,27.139 -0.15,22.703 L -7.231,33.661 z M 18.333,50.182 23.77,41.765 C 18.884,40.902 14.694,39.115 11.155,36.65 L 4.228,47.368 18.333,50.182 z M -12.519,-7.13 c 0,-7.772 5.693,-14.102 12.687,-14.102 0.605,0 1.211,0.051 1.802,0.143 6.462,-11.785 17.438,-19.254 28.634,-19.254 11.195,0 22.173,7.469 28.633,19.254 0.595,-0.092 1.197,-0.143 1.802,-0.143 6.998,0 12.687,6.33 12.687,14.102 0,6.063 -3.463,11.226 -8.303,13.212 -1.047,18.216 -10.758,36.311 -34.788,36.311 -0.961,0 -1.866,-0.076 -2.783,-0.14 L 20.071,54.294 0.128,50.318 -11.692,33.769 -1.783,18.431 C -3.084,14.475 -3.875,10.298 -4.141,6.11 -9.02,4.144 -12.519,-1.035 -12.519,-7.13" /></g><path
         inkscape:connector-curvature="0"
         id="path456"
         style="fill:#666666;fill-opacity:1;fill-rule:nonzero;stroke:none"
         d="m -74.20883,133.10108 -16.027,0 0,4.26 16.027,0 0,-4.26 z m -0.61,16.549 7.793,1.499 c -5.259,6.202 -12.734,8.564 -16.627,9.415 -1.808,0.392 -3.636,-0.531 -4.395,-2.218 -3.771,-8.376 -0.814,-26.476 -20.196,-27.626 l 0,6.885 c 0,1.032 -0.835,1.867 -1.868,1.867 -1.033,0 -1.869,-0.835 -1.869,-1.867 l 0,-6.889 c -19.513,1.107 -16.496,19.238 -20.261,27.626 -0.755,1.687 -2.591,2.614 -4.396,2.222 -3.894,-0.851 -11.373,-3.213 -16.632,-9.415 l 7.793,-1.499 c -6.089,-8.388 -9.719,-18.703 -9.719,-29.357 0,-0.048 0.005,-0.096 0.005,-0.148 l 90.089,0 c 0,0.052 0.002,0.1 0.002,0.148 0,10.654 -3.63,20.969 -9.719,29.357" /><g
         transform="translate(-120.14673,187.95068)"
         id="g458"
         style="fill:#666666;fill-opacity:1"><path
           inkscape:connector-curvature="0"
           id="path460"
           style="fill:#666666;fill-opacity:1;fill-rule:nonzero;stroke:none"
           d="m 0,0 c 1.962,0 3.551,2.49 3.551,5.563 0,3.073 -1.589,5.563 -3.551,5.563 -1.956,0 -3.545,-2.49 -3.545,-5.563 C -3.545,2.49 -1.956,0 0,0" /></g><g
         transform="translate(-99.83543,187.95068)"
         id="g462"
         style="fill:#666666;fill-opacity:1"><path
           inkscape:connector-curvature="0"
           id="path464"
           style="fill:#666666;fill-opacity:1;fill-rule:nonzero;stroke:none"
           d="m 0,0 c 1.956,0 3.549,2.49 3.549,5.563 0,3.073 -1.593,5.563 -3.549,5.563 -1.958,0 -3.547,-2.49 -3.547,-5.563 C -3.547,2.49 -1.958,0 0,0" /></g><g
         transform="translate(-110.14783,174.09988)"
         id="g466"
         style="fill:#666666;fill-opacity:1"><path
           inkscape:connector-curvature="0"
           id="path468"
           style="fill:#666666;fill-opacity:1;fill-rule:nonzero;stroke:none"
           d="m 0,0 c 3.55,0 6.444,2.761 6.862,5.455 l -13.724,0 C -6.444,2.761 -3.551,0 0,0" /></g></g></g></svg>