<?xml version="1.0" encoding="UTF-8" standalone="no"?>
<!-- Created with Inkscape (http://www.inkscape.org/) -->

<svg
   xmlns:dc="http://purl.org/dc/elements/1.1/"
   xmlns:cc="http://creativecommons.org/ns#"
   xmlns:rdf="http://www.w3.org/1999/02/22-rdf-syntax-ns#"
   xmlns:svg="http://www.w3.org/2000/svg"
   xmlns="http://www.w3.org/2000/svg"
   xmlns:xlink="http://www.w3.org/1999/xlink"
   xmlns:sodipodi="http://sodipodi.sourceforge.net/DTD/sodipodi-0.dtd"
   xmlns:inkscape="http://www.inkscape.org/namespaces/inkscape"
   id="svg2"
   version="1.1"
   inkscape:version="0.48.3.1 r9886"
   width="1000"
   height="1000"
   xml:space="preserve"
   sodipodi:docname="student-happy.svg"><metadata
     id="metadata8"><rdf:RDF><cc:Work
         rdf:about=""><dc:format>image/svg+xml</dc:format><dc:type
           rdf:resource="http://purl.org/dc/dcmitype/StillImage" /><dc:title /></cc:Work></rdf:RDF></metadata><defs
     id="defs6"><clipPath
       clipPathUnits="userSpaceOnUse"
       id="clipPath32"><path
         d="M 0,800 800,800 800,0 0,0 0,800 z"
         id="path34" /></clipPath><clipPath
       clipPathUnits="userSpaceOnUse"
       id="clipPath40"><path
         d="m 421.045,163.729 49.646,0 0,-35.245 -49.646,0 0,35.245 z"
         id="path42" /></clipPath><clipPath
       clipPathUnits="userSpaceOnUse"
       id="clipPath64"><path
         d="M 0,800 800,800 800,0 0,0 0,800 z"
         id="path66" /></clipPath><clipPath
       clipPathUnits="userSpaceOnUse"
       id="clipPath204"><path
         d="m 145.983,281.312 64.869,0 0,-165.962 -64.869,0 0,165.962 z"
         id="path206" /></clipPath><clipPath
       clipPathUnits="userSpaceOnUse"
       id="clipPath272"><path
         d="m 635.974,292.096 64.868,0 0,-166.102 -64.868,0 0,166.102 z"
         id="path274" /></clipPath><clipPath
       clipPathUnits="userSpaceOnUse"
       id="clipPath354"><path
         d="m 398.324,467.748 71.742,0 0,-147.609 -71.742,0 0,147.609 z"
         id="path356" /></clipPath><clipPath
       clipPathUnits="userSpaceOnUse"
       id="clipPath456"><path
         d="m 399.395,699.382 70.661,0 0,-145.691 -70.661,0 0,145.691 z"
         id="path458" /></clipPath><clipPath
       clipPathUnits="userSpaceOnUse"
       id="clipPath532"><path
         d="m 102.827,393.944 99.934,0 0,-62.516 -99.934,0 0,62.516 z"
         id="path534" /></clipPath><clipPath
       clipPathUnits="userSpaceOnUse"
       id="clipPath554"><path
         d="m 146.895,484.816 61.643,0 0,-155.097 -61.643,0 0,155.097 z"
         id="path556" /></clipPath><clipPath
       clipPathUnits="userSpaceOnUse"
       id="clipPath618"><path
         d="m 640.01,722.899 60.59,0 0,-152.69 -60.59,0 0,152.69 z"
         id="path620" /></clipPath><clipPath
       clipPathUnits="userSpaceOnUse"
       id="clipPath650"><path
         d="m 594.684,631.927 99.933,0 0,-62.516 -99.933,0 0,62.516 z"
         id="path652" /></clipPath><clipPath
       clipPathUnits="userSpaceOnUse"
       id="clipPath688"><path
         d="m 96.4888,670.361 13.9382,0 0,-2.719 -13.9382,0 0,2.719 z"
         id="path690" /></clipPath><clipPath
       clipPathUnits="userSpaceOnUse"
       id="clipPath708"><path
         d="m 96.4888,640.745 13.9382,0 0,-2.719 -13.9382,0 0,2.719 z"
         id="path710" /></clipPath><clipPath
       clipPathUnits="userSpaceOnUse"
       id="clipPath728"><path
         d="m 96.4888,610.789 13.9382,0 0,-2.72 -13.9382,0 0,2.72 z"
         id="path730" /></clipPath><clipPath
       clipPathUnits="userSpaceOnUse"
       id="clipPath748"><path
         d="m 96.4888,581.415 13.9382,0 0,-2.72 -13.9382,0 0,2.72 z"
         id="path750" /></clipPath><clipPath
       clipPathUnits="userSpaceOnUse"
       id="clipPath780"><path
         d="m 165.723,640.807 26.548,0 0,-37.655 -26.548,0 0,37.655 z"
         id="path782" /></clipPath><clipPath
       clipPathUnits="userSpaceOnUse"
       id="clipPath812"><path
         d="m 167.465,644.49 44.39,0 0,-49.631 -44.39,0 0,49.631 z"
         id="path814" /></clipPath><clipPath
       clipPathUnits="userSpaceOnUse"
       id="clipPath950"><path
         d="m 637.885,439.68 73.921,0 0,-97.805 -73.921,0 0,97.805 z"
         id="path952" /></clipPath><clipPath
       clipPathUnits="userSpaceOnUse"
       id="clipPath1010"><path
         d="m 646.304,438.283 10.578,0 0,-28.515 -10.578,0 0,28.515 z"
         id="path1012" /></clipPath><clipPath
       id="clipPath4037"
       clipPathUnits="userSpaceOnUse"><path
         id="path4039"
         d="M 0,800 800,800 800,0 0,0 0,800 z" /></clipPath><clipPath
       id="clipPath4023"
       clipPathUnits="userSpaceOnUse"><path
         id="path4025"
         d="M 0,800 800,800 800,0 0,0 0,800 z" /></clipPath><clipPath
       id="clipPath4015"
       clipPathUnits="userSpaceOnUse"><path
         id="path4017"
         d="M 0,800 800,800 800,0 0,0 0,800 z" /></clipPath><clipPath
       id="clipPath1010-5"
       clipPathUnits="userSpaceOnUse"><path
         id="path1012-8"
         d="m 646.304,438.283 10.578,0 0,-28.515 -10.578,0 0,28.515 z" /></clipPath><clipPath
       id="clipPath950-1"
       clipPathUnits="userSpaceOnUse"><path
         id="path952-3"
         d="m 637.885,439.68 73.921,0 0,-97.805 -73.921,0 0,97.805 z" /></clipPath><clipPath
       id="clipPath812-2"
       clipPathUnits="userSpaceOnUse"><path
         id="path814-7"
         d="m 167.465,644.49 44.39,0 0,-49.631 -44.39,0 0,49.631 z" /></clipPath><clipPath
       id="clipPath780-8"
       clipPathUnits="userSpaceOnUse"><path
         id="path782-8"
         d="m 165.723,640.807 26.548,0 0,-37.655 -26.548,0 0,37.655 z" /></clipPath><clipPath
       id="clipPath748-3"
       clipPathUnits="userSpaceOnUse"><path
         id="path750-3"
         d="m 96.4888,581.415 13.9382,0 0,-2.72 -13.9382,0 0,2.72 z" /></clipPath><clipPath
       id="clipPath728-9"
       clipPathUnits="userSpaceOnUse"><path
         id="path730-4"
         d="m 96.4888,610.789 13.9382,0 0,-2.72 -13.9382,0 0,2.72 z" /></clipPath><clipPath
       id="clipPath708-4"
       clipPathUnits="userSpaceOnUse"><path
         id="path710-8"
         d="m 96.4888,640.745 13.9382,0 0,-2.719 -13.9382,0 0,2.719 z" /></clipPath><clipPath
       id="clipPath688-7"
       clipPathUnits="userSpaceOnUse"><path
         id="path690-5"
         d="m 96.4888,670.361 13.9382,0 0,-2.719 -13.9382,0 0,2.719 z" /></clipPath><clipPath
       id="clipPath650-2"
       clipPathUnits="userSpaceOnUse"><path
         id="path652-0"
         d="m 594.684,631.927 99.933,0 0,-62.516 -99.933,0 0,62.516 z" /></clipPath><clipPath
       id="clipPath618-7"
       clipPathUnits="userSpaceOnUse"><path
         id="path620-1"
         d="m 640.01,722.899 60.59,0 0,-152.69 -60.59,0 0,152.69 z" /></clipPath><clipPath
       id="clipPath554-7"
       clipPathUnits="userSpaceOnUse"><path
         id="path556-3"
         d="m 146.895,484.816 61.643,0 0,-155.097 -61.643,0 0,155.097 z" /></clipPath><clipPath
       id="clipPath532-2"
       clipPathUnits="userSpaceOnUse"><path
         id="path534-6"
         d="m 102.827,393.944 99.934,0 0,-62.516 -99.934,0 0,62.516 z" /></clipPath><clipPath
       id="clipPath456-6"
       clipPathUnits="userSpaceOnUse"><path
         id="path458-9"
         d="m 399.395,699.382 70.661,0 0,-145.691 -70.661,0 0,145.691 z" /></clipPath><clipPath
       id="clipPath354-6"
       clipPathUnits="userSpaceOnUse"><path
         id="path356-3"
         d="m 398.324,467.748 71.742,0 0,-147.609 -71.742,0 0,147.609 z" /></clipPath><clipPath
       id="clipPath272-1"
       clipPathUnits="userSpaceOnUse"><path
         id="path274-4"
         d="m 635.974,292.096 64.868,0 0,-166.102 -64.868,0 0,166.102 z" /></clipPath><clipPath
       id="clipPath204-4"
       clipPathUnits="userSpaceOnUse"><path
         id="path206-5"
         d="m 145.983,281.312 64.869,0 0,-165.962 -64.869,0 0,165.962 z" /></clipPath><clipPath
       id="clipPath64-9"
       clipPathUnits="userSpaceOnUse"><path
         id="path66-8"
         d="M 0,800 800,800 800,0 0,0 0,800 z" /></clipPath><clipPath
       id="clipPath40-7"
       clipPathUnits="userSpaceOnUse"><path
         id="path42-3"
         d="m 421.045,163.729 49.646,0 0,-35.245 -49.646,0 0,35.245 z" /></clipPath><clipPath
       id="clipPath32-5"
       clipPathUnits="userSpaceOnUse"><path
         id="path34-7"
         d="M 0,800 800,800 800,0 0,0 0,800 z" /></clipPath><radialGradient
       gradientUnits="userSpaceOnUse"
       gradientTransform="matrix(0.13411024,0,0,-0.13180086,251.73773,324.26634)"
       r="292.31146"
       fy="300"
       fx="300"
       cy="300"
       cx="300"
       id="radialGradient2256"
       xlink:href="#linearGradient2250"
       inkscape:collect="always" /><linearGradient
       id="linearGradient2250"><stop
         id="stop2252"
         offset="0"
         style="stop-color:#008700;stop-opacity:1;" /><stop
         id="stop2254"
         offset="1"
         style="stop-color:#006f00;stop-opacity:1;" /></linearGradient></defs><sodipodi:namedview
     pagecolor="#ffffff"
     bordercolor="#666666"
     borderopacity="1"
     objecttolerance="10"
     gridtolerance="10"
     guidetolerance="10"
     inkscape:pageopacity="0"
     inkscape:pageshadow="2"
     inkscape:window-width="1366"
     inkscape:window-height="681"
     id="namedview4"
     showgrid="false"
     inkscape:zoom="0.411"
     inkscape:cx="500"
     inkscape:cy="500"
     inkscape:window-x="0"
     inkscape:window-y="27"
     inkscape:window-maximized="1"
     inkscape:current-layer="g10" /><g
     id="g10"
     inkscape:groupmode="layer"
     inkscape:label="04"
     transform="matrix(1.25,0,0,-1.25,0,1000)"><g
       id="g7331"
       transform="translate(30.508475,23.728814)"><g
         transform="matrix(2.5807493,0,0,2.5807493,390.24758,336.67973)"
         id="g172"><path
           inkscape:connector-curvature="0"
           id="path174"
           style="fill:#51223a;fill-opacity:1;fill-rule:nonzero;stroke:none"
           d="M 0,0 C 0.098,0.86 0.229,1.724 0.381,2.587 0.533,1.724 0.664,0.86 0.762,0 1.609,-7.456 1.385,-15.153 0.381,-22.561 -0.623,-15.153 -0.849,-7.456 0,0 m 32.92,1.726 c 5.786,-2.788 9.097,-3.082 15.412,-2.376 -8.751,5.258 -13.638,16.972 -14.739,26.816 -0.501,4.48 0.497,8.958 0.933,13.459 0.343,3.529 1.397,6.404 1.418,11.496 L 0.506,73.787 C 0.456,73.577 0.424,73.366 0.381,73.156 0.339,73.366 0.305,73.577 0.256,73.787 L -33.436,50.984 c -0.101,-4.646 0.27,-7.63 0.612,-11.162 0.436,-4.501 0.495,-9.176 -0.007,-13.656 -1.102,-9.844 -5.988,-21.558 -14.739,-26.816 6.316,-0.706 9.626,-0.412 15.412,2.376 -0.154,-5.776 -1.748,-11.463 -4.432,-16.668 -1.592,-3.084 -11.614,-12.744 -10.763,-14.774 0.845,-2.012 7.705,-3.898 9.394,-4.398 2.809,-0.829 5.875,-1.19 8.658,-2.242 2.543,-0.963 4.956,-2.713 7.697,-3.162 3.006,-0.492 5.881,0.687 8.836,0.897 2.375,0.169 4.818,0.001 7.202,0.001 0.252,0 0.5,-0.014 0.751,-0.02 -0.724,-0.474 -1.578,-0.808 -2.611,-0.941 2.623,-0.088 5.21,0.232 7.807,0.528 2.597,-0.296 5.182,-0.616 7.807,-0.528 -1.033,0.133 -1.888,0.467 -2.612,0.941 0.251,0.006 0.5,0.02 0.751,0.02 2.385,0 4.827,0.168 7.203,-0.001 2.955,-0.21 5.829,-1.389 8.835,-0.897 2.741,0.449 5.155,2.199 7.698,3.162 2.782,1.052 5.85,1.413 8.657,2.242 1.69,0.5 8.55,2.386 9.394,4.398 0.853,2.03 -9.171,11.69 -10.762,14.774 -2.685,5.205 -4.279,10.892 -4.432,16.668" /></g><g
         transform="matrix(2.5807493,0,0,2.5807493,469.99867,435.76889)"
         id="g176"><path
           inkscape:connector-curvature="0"
           id="path178"
           style="fill:#ffc95e;fill-opacity:1;fill-rule:nonzero;stroke:none"
           d="m 0,0 c -0.122,0 -0.239,-0.041 -0.362,-0.055 -2.164,18.873 -14.776,33.374 -30.058,33.374 -15.31,0 -27.943,-14.558 -30.07,-33.482 -2.474,-0.745 -4.334,-3.956 -4.334,-7.805 0,-4.202 2.226,-7.608 5.041,-7.908 2.013,-9.72 6.867,-17.933 13.338,-23.122 l 0,-9.169 30.421,0 -0.047,9.258 c 7.309,5.077 12.868,12.564 15.034,23.128 0.337,-0.096 0.683,-0.154 1.037,-0.154 3.001,0 5.434,3.567 5.434,7.967 C 5.434,-3.567 3.001,0 0,0" /></g><g
         transform="matrix(2.5807493,0,0,2.5807493,453.0625,319.87467)"
         id="g180"><path
           inkscape:connector-curvature="0"
           id="path182"
           style="fill:#fffffc;fill-opacity:1;fill-rule:nonzero;stroke:none"
           d="M 0,0 C 0,0 -1.15,8.701 -5.948,5.987 -14.712,1.028 -22.19,-1.028 -24.016,-1.376 -25.841,-1.028 -32.703,0.475 -41.467,5.433 -46.266,8.147 -46.266,0 -46.266,0 L -23.133,-28.383 0,0 z" /></g><path
         d="m 558.02906,249.47363 -104.96682,70.40026 -59.70047,-71.03512 -59.69789,71.03512 -104.96424,-70.40026 0.0671,-83.41498 329.72427,0 -0.46195,83.41498 z"
         style="fill:#444443;fill-opacity:1;fill-rule:nonzero;stroke:none"
         id="path186"
         inkscape:connector-curvature="0" /><g
         transform="matrix(2.5807493,0,0,2.5807493,314.52117,489.61932)"
         id="g188"><path
           inkscape:connector-curvature="0"
           id="path190"
           style="fill:#51223a;fill-opacity:1;fill-rule:nonzero;stroke:none"
           d="m 0,0 c -4.956,-4.432 -1.335,-13.021 2.946,-16.313 5.354,-4.115 13.221,-4.074 19.71,-3.755 7.187,0.354 15.197,1.013 21.57,-2.444 2.4,-1.3 4.756,-3.168 6.968,-4.759 1.919,-1.379 3.522,-4.065 5.572,-4.91 1.086,1.339 1.376,2.72 1.955,4.3 0.589,1.609 0.983,3.512 1.512,5.169 1.241,3.886 1.241,8.288 1.074,12.38 -0.286,7.027 -3.623,14.953 -7.99,20.436 -2.528,3.175 -6.611,5.967 -10.368,7.395 -2.628,0.997 -8.738,3.29 -11.161,0.872 L 0,0 z" /></g><path
         d="m 393.36255,594.72189 -159.55741,-58.39461 0,-13.98508 69.90734,-18.91432 0,-42.34235 c 0,0 27.81274,7.95645 89.65007,11.87919 60.22953,-3.60789 89.64749,-11.87919 89.64749,-11.87919 l 0,42.34235 69.90992,18.91432 0,13.98508 -159.55741,58.39461 z"
         style="fill:#444443;fill-opacity:1;fill-rule:nonzero;stroke:none"
         id="path194"
         inkscape:connector-curvature="0" /><g
         transform="matrix(2.5807493,0,0,2.5807493,537.06047,426.55226)"
         id="g196"><path
           inkscape:connector-curvature="0"
           id="path198"
           style="fill:#5f5f5e;fill-opacity:1;fill-rule:nonzero;stroke:none"
           d="m 0,0 c 1.067,0.2 1.876,1.133 1.876,2.259 0,1.27 -1.03,2.301 -2.301,2.301 l -0.392,0 0,41.973 c 0,1.75 -1.418,3.168 -3.167,3.168 -1.749,0 -3.167,-1.418 -3.167,-3.168 l 0,-41.973 -0.024,0 c -1.271,0 -2.302,-1.031 -2.302,-2.301 0,-1.007 0.651,-1.853 1.552,-2.166 -3.14,-6.706 -5.13,-11.696 -4.285,-12.436 5.955,-5.226 10.495,-5.226 16.451,0 C 5.082,-11.606 3.132,-6.69 0,0" /></g><g
         transform="matrix(2.5807493,0,0,2.5807493,14.660298,-131.27257)"
         id="g200"><g
           id="g202" /><g
           id="g208"><g
             style="opacity:0.27999902"
             id="g210"
             clip-path="url(#clipPath204)"><g
               id="g212"
               transform="translate(146.8818,141.8252)"><path
                 inkscape:connector-curvature="0"
                 id="path214"
                 style="fill:#51223a;fill-opacity:1;fill-rule:nonzero;stroke:none"
                 d="M 0,0 C 2.596,-0.296 4.342,-0.033 6.965,0.055 5.932,0.189 5.077,0.523 4.354,0.996 c 0.25,0.008 0.5,0.022 0.75,0.022 2.384,0 4.829,0.168 7.203,-0.002 2.956,-0.21 5.83,-1.389 8.837,-0.897 2.739,0.448 5.153,2.199 7.696,3.161 2.782,1.054 5.85,1.413 8.658,2.243 1.69,0.499 8.548,2.386 9.393,4.398 0.852,2.03 -9.171,11.688 -10.761,14.772 -2.685,5.206 -4.279,10.895 -4.433,16.669 5.786,-2.787 9.096,-3.082 15.413,-2.376 -8.751,5.26 -13.638,16.973 -14.74,26.818 -0.501,4.478 0.497,8.957 0.935,13.458 0.341,3.53 1.395,6.405 1.418,11.496 l -35.225,22.528 c -0.049,-0.21 0.005,-0.4 -0.038,-0.61" /></g><g
               id="g216"
               transform="translate(146.0449,171.6904)"><path
                 inkscape:connector-curvature="0"
                 id="path218"
                 style="fill:#ffc95e;fill-opacity:1;fill-rule:nonzero;stroke:none"
                 d="m 0,0 14.492,0 -0.047,9.258 c 7.31,5.078 12.868,12.564 15.034,23.129 0.337,-0.098 0.683,-0.155 1.039,-0.155 3,0 5.431,3.568 5.431,7.967 0,4.402 -2.431,7.968 -5.431,7.968 -0.123,0 -0.241,-0.041 -0.364,-0.055 C 27.99,66.985 15.929,81.349 0.646,81.349" /></g><g
               id="g220"
               transform="translate(146.8662,146.5674)"><path
                 inkscape:connector-curvature="0"
                 id="path222"
                 style="fill:#fffffc;fill-opacity:1;fill-rule:nonzero;stroke:none"
                 d="m 0,0 23.132,28.383 c 0,0 -1.15,8.701 -5.947,5.987 C 8.421,29.412 0.942,27.355 -0.883,27.008 L 0,0 z" /></g><g
               id="g224"
               transform="translate(146.9561,115.3486)"><path
                 inkscape:connector-curvature="0"
                 id="path226"
                 style="fill:#444443;fill-opacity:1;fill-rule:nonzero;stroke:none"
                 d="M 0,0 63.896,0 63.716,32.322 23.042,59.602 -0.09,32.076 0,0 z" /></g><g
               id="g228"
               transform="translate(146.1592,221.0098)"><path
                 inkscape:connector-curvature="0"
                 id="path230"
                 style="fill:#51223a;fill-opacity:1;fill-rule:nonzero;stroke:none"
                 d="m 0,0 c 7.187,0.353 8.01,0.659 14.384,-2.797 2.398,-1.301 4.756,-3.168 6.968,-4.76 1.919,-1.381 3.521,-4.064 5.57,-4.91 1.086,1.34 1.377,2.721 1.955,4.3 0.59,1.608 0.984,3.513 1.514,5.169 1.241,3.887 1.24,8.287 1.074,12.38 -0.288,7.027 -3.624,14.953 -7.991,20.436 -2.528,3.175 -6.611,5.967 -10.368,7.395 C 10.479,38.211 3.005,38.406 0.582,35.99 L 0,0 z" /></g><g
               id="g232"
               transform="translate(146.0449,233.9414)"><path
                 inkscape:connector-curvature="0"
                 id="path234"
                 style="fill:#444443;fill-opacity:1;fill-rule:nonzero;stroke:none"
                 d="m 0,0 c 23.339,-1.398 35.384,-4.274 35.384,-4.274 l 0,16.407 27.087,7.33 0,5.418 L 0.696,47.37" /></g><g
               id="g236"
               transform="translate(202.3721,216.2871)"><path
                 inkscape:connector-curvature="0"
                 id="path238"
                 style="fill:#5f5f5e;fill-opacity:1;fill-rule:nonzero;stroke:none"
                 d="m 0,0 c 1.066,0.199 1.874,1.133 1.874,2.258 0,1.27 -1.029,2.301 -2.3,2.301 l -0.392,0 0,41.974 c 0,1.749 -1.418,3.166 -3.167,3.166 -1.749,0 -3.167,-1.417 -3.167,-3.166 l 0,-41.974 -0.024,0 c -1.271,0 -2.301,-1.031 -2.301,-2.301 0,-1.006 0.651,-1.853 1.551,-2.166 -3.141,-6.705 -5.13,-11.696 -4.285,-12.437 5.956,-5.224 10.496,-5.224 16.451,0 C 5.081,-11.606 3.132,-6.691 0,0" /></g></g></g></g><path
         inkscape:connector-curvature="0"
         d="m 393.97482,356.57425 c -9.094,0 -16.492,7.397 -16.492,16.492 0,1.214 0.985,2.199 2.199,2.199 1.214,0 2.199,-0.985 2.199,-2.199 0,-6.669 5.425,-12.094 12.094,-12.094 6.668,0 12.095,5.425 12.095,12.094 0,1.214 0.983,2.199 2.198,2.199 1.214,0 2.2,-0.985 2.2,-2.199 0,-9.095 -7.398,-16.492 -16.493,-16.492"
         style="fill:#444443;fill-opacity:1;fill-rule:nonzero;stroke:none"
         id="path4169" /></g><g
       id="g3590"
       transform="translate(-903.33334,-235)"><g
         transform="matrix(1.6252253,0,0,1.6252253,1135.0438,592.8209)"
         id="g668"><path
           inkscape:connector-curvature="0"
           id="path670"
           style="fill:#edf1ef;fill-opacity:1;fill-rule:nonzero;stroke:none"
           d="m 0,0 0,-0.012 0,-114.636 32.702,0 25.084,0 0,17.664 17.664,0 L 75.45,0 0,0 z" /></g><g
         transform="matrix(1.6252253,0,0,1.6252253,1228.9592,406.49142)"
         id="g672"><path
           inkscape:connector-curvature="0"
           id="path674"
           style="fill:#f5fffa;fill-opacity:1;fill-rule:nonzero;stroke:none"
           d="M 0,0 8.832,8.832 17.664,17.664 0,17.664 0,0 z" /></g><g
         transform="matrix(1.6252253,0,0,1.6252253,1121.7546,565.42854)"
         id="g676"><path
           inkscape:connector-curvature="0"
           id="path678"
           style="fill:#75b13a;fill-opacity:1;fill-rule:nonzero;stroke:none"
           d="m 0,0 c -2.235,0 -4.048,1.812 -4.048,4.047 0,2.236 1.813,4.048 4.048,4.048 2.235,0 4.048,-1.812 4.048,-4.048 C 4.048,1.812 2.235,0 0,0 m 0,-29.683 c -2.235,0 -4.048,1.812 -4.048,4.048 0,2.236 1.813,4.048 4.048,4.048 2.235,0 4.048,-1.812 4.048,-4.048 0,-2.236 -1.813,-4.048 -4.048,-4.048 m 0,-29.681 c -2.235,0 -4.048,1.811 -4.048,4.047 0,2.236 1.813,4.048 4.048,4.048 2.235,0 4.048,-1.812 4.048,-4.048 0,-2.236 -1.813,-4.047 -4.048,-4.047 m 0,-29.683 c -2.235,0 -4.048,1.812 -4.048,4.048 0,2.236 1.813,4.048 4.048,4.048 2.235,0 4.048,-1.812 4.048,-4.048 0,-2.236 -1.813,-4.048 -4.048,-4.048 m 2.515,105.89 c -5.905,0 -10.691,-4.786 -10.691,-10.692 l 0,-93.255 c 0,-5.904 4.786,-10.69 10.691,-10.69 l 5.662,0 0,114.637 -5.662,0 z" /></g><g
         transform="matrix(1.6252253,0,0,1.6252253,1124.6527,571.74531)"
         id="g680"><path
           inkscape:connector-curvature="0"
           id="path682"
           style="fill:#c5c9c8;fill-opacity:1;fill-rule:nonzero;stroke:none"
           d="m 0,0 c 0,-1.502 -1.217,-2.72 -2.72,-2.72 l -8.499,0 c -1.502,0 -2.719,1.218 -2.719,2.72 0,1.502 1.217,2.719 2.719,2.719 l 8.499,0 C -1.217,2.719 0,1.502 0,0" /></g><g
         transform="matrix(1.6252253,0,0,1.6252253,945.18364,-517.74284)"
         id="g684"><g
           id="g686" /><g
           id="g692"><g
             style="opacity:0.27999902"
             id="g694"
             clip-path="url(#clipPath688-7)"><g
               id="g696"
               transform="translate(110.4272,670.3613)"><path
                 inkscape:connector-curvature="0"
                 id="path698"
                 style="fill:#c5c9c8;fill-opacity:1;fill-rule:nonzero;stroke:none"
                 d="m 0,0 0,0 c 0,-1.502 -1.217,-2.72 -2.72,-2.72 l -8.499,0 c -1.502,0 -2.719,1.218 -2.719,2.72 L 0,0 z" /></g></g></g></g><g
         transform="matrix(1.6252253,0,0,1.6252253,1124.6527,523.61231)"
         id="g700"><path
           inkscape:connector-curvature="0"
           id="path702"
           style="fill:#c5c9c8;fill-opacity:1;fill-rule:nonzero;stroke:none"
           d="m 0,0 c 0,-1.502 -1.217,-2.719 -2.72,-2.719 l -8.499,0 c -1.502,0 -2.719,1.217 -2.719,2.719 0,1.503 1.217,2.72 2.719,2.72 l 8.499,0 C -1.217,2.72 0,1.503 0,0" /></g><g
         transform="matrix(1.6252253,0,0,1.6252253,945.18364,-517.74284)"
         id="g704"><g
           id="g706" /><g
           id="g712"><g
             style="opacity:0.27999902"
             id="g714"
             clip-path="url(#clipPath708-4)"><g
               id="g716"
               transform="translate(110.4272,640.7451)"><path
                 inkscape:connector-curvature="0"
                 id="path718"
                 style="fill:#c5c9c8;fill-opacity:1;fill-rule:nonzero;stroke:none"
                 d="m 0,0 0,0 c 0,-1.502 -1.217,-2.719 -2.72,-2.719 l -8.499,0 c -1.502,0 -2.719,1.217 -2.719,2.719 L 0,0 z" /></g></g></g></g><g
         transform="matrix(1.6252253,0,0,1.6252253,1124.6527,474.92706)"
         id="g720"><path
           inkscape:connector-curvature="0"
           id="path722"
           style="fill:#c5c9c8;fill-opacity:1;fill-rule:nonzero;stroke:none"
           d="m 0,0 c 0,-1.503 -1.217,-2.72 -2.72,-2.72 l -8.499,0 c -1.502,0 -2.719,1.217 -2.719,2.72 0,1.502 1.217,2.72 2.719,2.72 l 8.499,0 C -1.217,2.72 0,1.502 0,0" /></g><g
         transform="matrix(1.6252253,0,0,1.6252253,945.18364,-517.74284)"
         id="g724"><g
           id="g726" /><g
           id="g732"><g
             style="opacity:0.27999902"
             id="g734"
             clip-path="url(#clipPath728-9)"><g
               id="g736"
               transform="translate(110.4272,610.7891)"><path
                 inkscape:connector-curvature="0"
                 id="path738"
                 style="fill:#c5c9c8;fill-opacity:1;fill-rule:nonzero;stroke:none"
                 d="m 0,0 0,0 c 0,-1.503 -1.217,-2.72 -2.72,-2.72 l -8.499,0 c -1.502,0 -2.719,1.217 -2.719,2.72 L 0,0 z" /></g></g></g></g><g
         transform="matrix(1.6252253,0,0,1.6252253,1124.6527,427.18753)"
         id="g740"><path
           inkscape:connector-curvature="0"
           id="path742"
           style="fill:#c5c9c8;fill-opacity:1;fill-rule:nonzero;stroke:none"
           d="m 0,0 c 0,-1.502 -1.217,-2.72 -2.72,-2.72 l -8.499,0 c -1.502,0 -2.719,1.218 -2.719,2.72 0,1.502 1.217,2.72 2.719,2.72 l 8.499,0 C -1.217,2.72 0,1.502 0,0" /></g><g
         transform="matrix(1.6252253,0,0,1.6252253,945.18364,-517.74284)"
         id="g744"><g
           id="g746" /><g
           id="g752"><g
             style="opacity:0.27999902"
             id="g754"
             clip-path="url(#clipPath748-3)"><g
               id="g756"
               transform="translate(110.4272,581.415)"><path
                 inkscape:connector-curvature="0"
                 id="path758"
                 style="fill:#c5c9c8;fill-opacity:1;fill-rule:nonzero;stroke:none"
                 d="m 0,0 0,0 c 0,-1.502 -1.217,-2.72 -2.72,-2.72 l -8.499,0 c -1.502,0 -2.719,1.218 -2.719,2.72 L 0,0 z" /></g></g></g></g><path
         inkscape:connector-curvature="0"
         id="path760"
         style="fill:#8b8b8c;fill-opacity:1;fill-rule:nonzero;stroke:none"
         d="m 1247.2253,562.90522 -101.7408,0 0,4.42061 101.7408,0 0,-4.42061 z" /><path
         inkscape:connector-curvature="0"
         id="path762"
         style="fill:#8b8b8c;fill-opacity:1;fill-rule:nonzero;stroke:none"
         d="m 1247.2253,547.30956 -101.7408,0 0,4.42061 101.7408,0 0,-4.42061 z" /><path
         inkscape:connector-curvature="0"
         id="path764"
         style="fill:#8b8b8c;fill-opacity:1;fill-rule:nonzero;stroke:none"
         d="m 1247.2253,531.71715 -101.7408,0 0,4.42223 101.7408,0 0,-4.42223 z" /><path
         inkscape:connector-curvature="0"
         id="path766"
         style="fill:#8b8b8c;fill-opacity:1;fill-rule:nonzero;stroke:none"
         d="m 1247.2253,516.12636 -101.7408,0 0,4.42061 101.7408,0 0,-4.42061 z" /><path
         inkscape:connector-curvature="0"
         id="path768"
         style="fill:#8b8b8c;fill-opacity:1;fill-rule:nonzero;stroke:none"
         d="m 1247.2253,500.53395 -101.7408,0 0,4.41899 101.7408,0 0,-4.41899 z" /><path
         inkscape:connector-curvature="0"
         id="path770"
         style="fill:#8b8b8c;fill-opacity:1;fill-rule:nonzero;stroke:none"
         d="m 1247.2253,484.93829 -101.7408,0 0,4.42223 101.7408,0 0,-4.42223 z" /><path
         inkscape:connector-curvature="0"
         id="path772"
         style="fill:#8b8b8c;fill-opacity:1;fill-rule:nonzero;stroke:none"
         d="m 1247.2253,469.34588 -101.7408,0 0,4.42061 101.7408,0 0,-4.42061 z" /><path
         inkscape:connector-curvature="0"
         id="path774"
         style="fill:#8b8b8c;fill-opacity:1;fill-rule:nonzero;stroke:none"
         d="m 1247.2253,453.75509 -101.7408,0 0,4.42061 101.7408,0 0,-4.42061 z" /></g><path
       id="check"
       style="fill:url(#radialGradient2256);fill-opacity:1;fill-rule:evenodd;stroke:none"
       d="m 252.76884,270.69625 c 0,0 15.44485,-17.39245 18.53383,-24.49708 l 13.28257,0 c 5.56014,16.98934 27.18293,57.54906 45.71675,71.75832 3.84002,4.93716 -5.80666,6.97511 -13.59146,3.70677 -11.73282,-4.92587 -33.86126,-42.53548 -37.99434,-51.58581 -5.86904,-1.54449 -12.04698,9.88471 -12.04698,9.88471 l -13.90037,-9.26691 z"
       inkscape:connector-curvature="0" /></g></svg>