<?xml version="1.0" encoding="UTF-8" standalone="no"?>
<!-- Created with Inkscape (http://www.inkscape.org/) -->

<svg
   xmlns:dc="http://purl.org/dc/elements/1.1/"
   xmlns:cc="http://creativecommons.org/ns#"
   xmlns:rdf="http://www.w3.org/1999/02/22-rdf-syntax-ns#"
   xmlns:svg="http://www.w3.org/2000/svg"
   xmlns="http://www.w3.org/2000/svg"
   xmlns:sodipodi="http://sodipodi.sourceforge.net/DTD/sodipodi-0.dtd"
   xmlns:inkscape="http://www.inkscape.org/namespaces/inkscape"
   id="svg2"
   version="1.1"
   inkscape:version="0.48.3.1 r9886"
   width="1000"
   height="1000"
   xml:space="preserve"
   sodipodi:docname="timely.svg"><metadata
     id="metadata8"><rdf:RDF><cc:Work
         rdf:about=""><dc:format>image/svg+xml</dc:format><dc:type
           rdf:resource="http://purl.org/dc/dcmitype/StillImage" /><dc:title /></cc:Work></rdf:RDF></metadata><defs
     id="defs6"><clipPath
       clipPathUnits="userSpaceOnUse"
       id="clipPath18"><path
         d="M 0,800 800,800 800,0 0,0 0,800 z"
         id="path20" /></clipPath><clipPath
       clipPathUnits="userSpaceOnUse"
       id="clipPath154"><path
         d="M 0,800 800,800 800,0 0,0 0,800 z"
         id="path156" /></clipPath></defs><sodipodi:namedview
     pagecolor="#ffffff"
     bordercolor="#666666"
     borderopacity="1"
     objecttolerance="10"
     gridtolerance="10"
     guidetolerance="10"
     inkscape:pageopacity="0"
     inkscape:pageshadow="2"
     inkscape:window-width="1366"
     inkscape:window-height="681"
     id="namedview4"
     showgrid="false"
     inkscape:zoom="0.411"
     inkscape:cx="405.10949"
     inkscape:cy="500"
     inkscape:window-x="0"
     inkscape:window-y="27"
     inkscape:window-maximized="1"
     inkscape:current-layer="g10"><inkscape:grid
       type="xygrid"
       id="grid4053" /></sodipodi:namedview><g
     id="g10"
     inkscape:groupmode="layer"
     inkscape:label="11"
     transform="matrix(1.25,0,0,-1.25,0,1000)"><g
       id="g3038"><g
         style="fill:#cccccc"
         transform="matrix(3.2203379,0,0,3.2203379,256.15996,566.09869)"
         id="g354"><path
           inkscape:connector-curvature="0"
           id="path356"
           style="fill:#cccccc;fill-opacity:1;fill-rule:nonzero;stroke:none"
           d="m 0,0 c -1.834,1.835 -4.557,1.976 -6.393,0.141 l -7.975,-7.976 c -1.835,-1.834 -1.695,-4.557 0.14,-6.393 1.608,-1.606 4.044,-1.739 6.056,-0.344 l 4.606,-4.606 8.516,8.518 -4.604,4.606 C 1.74,-4.042 1.608,-1.607 0,0" /></g><g
         style="fill:#cccccc"
         transform="matrix(3.2203379,0,0,3.2203379,423.6507,737.34725)"
         id="g358"><path
           inkscape:connector-curvature="0"
           id="path360"
           style="fill:#cccccc;fill-opacity:1;fill-rule:nonzero;stroke:none"
           d="m 0,0 c -13.757,0 -24.948,-10.266 -24.948,-22.884 0,-12.618 11.191,-22.883 24.948,-22.883 13.757,0 24.948,10.265 24.948,22.883 C 24.948,-10.266 13.757,0 0,0 m 0,-51.524 c -16.931,0 -30.706,12.848 -30.706,28.64 0,15.793 13.775,28.642 30.706,28.642 16.931,0 30.705,-12.849 30.705,-28.642 0,-15.792 -13.774,-28.64 -30.705,-28.64" /></g><g
         style="fill:#cccccc"
         transform="matrix(3.2203379,0,0,3.2203379,422.10655,565.9541)"
         id="g362"><path
           inkscape:connector-curvature="0"
           id="path364"
           style="fill:#cccccc;fill-opacity:1;fill-rule:nonzero;stroke:none"
           d="m 0,0 c -36.498,0 -66.191,-29.693 -66.191,-66.191 0,-36.498 29.693,-66.194 66.191,-66.194 36.498,0 66.191,29.696 66.191,66.194 C 66.191,-29.693 36.498,0 0,0 m 0,-141.02 c -41.26,0 -74.827,33.569 -74.827,74.829 0,41.259 33.567,74.827 74.827,74.827 41.261,0 74.827,-33.568 74.827,-74.827 0,-41.26 -33.566,-74.829 -74.827,-74.829" /></g><path
         inkscape:connector-curvature="0"
         id="path366"
         style="fill:#e6e6e6;fill-opacity:1;fill-rule:nonzero;stroke:none"
         d="m 434.9879,515.10786 -19.32203,0 0,32.20338 19.32203,0 0,-32.20338 z" /><g
         style="fill:#e6e6e6"
         transform="matrix(3.2203379,0,0,3.2203379,314.26613,474.51712)"
         id="g368"><path
           inkscape:connector-curvature="0"
           id="path370"
           style="fill:#e6e6e6;fill-opacity:1;fill-rule:nonzero;stroke:none"
           d="m 0,0 -4.072,-4.071 -7.123,7.125 4.07,4.07 L 0,0 z" /></g><path
         inkscape:connector-curvature="0"
         id="path372"
         style="fill:#e6e6e6;fill-opacity:1;fill-rule:nonzero;stroke:none"
         d="m 264.30999,341.20962 -35.42371,0 0,19.32203 35.42371,0 0,-19.32203 z" /><g
         style="fill:#ececec"
         transform="matrix(3.2203379,0,0,3.2203379,301.15356,245.08382)"
         id="g374"><path
           inkscape:connector-curvature="0"
           id="path376"
           style="fill:#ececec;fill-opacity:1;fill-rule:nonzero;stroke:none"
           d="M 0,0 4.072,-4.07 -3.053,-11.195 -7.124,-7.123 0,0 z" /></g><path
         inkscape:connector-curvature="0"
         id="path378"
         style="fill:#ececec;fill-opacity:1;fill-rule:nonzero;stroke:none"
         d="m 415.66587,189.85374 19.32203,0 0,-32.20338 -19.32203,0 0,32.20338 z" /><g
         style="fill:#ececec"
         transform="matrix(3.2203379,0,0,3.2203379,530.58524,231.97608)"
         id="g380"><path
           inkscape:connector-curvature="0"
           id="path382"
           style="fill:#ececec;fill-opacity:1;fill-rule:nonzero;stroke:none"
           d="M 0,0 4.07,4.07 11.195,-3.053 7.124,-7.125 0,0 z" /></g><path
         inkscape:connector-curvature="0"
         id="path384"
         style="fill:#ececec;fill-opacity:1;fill-rule:nonzero;stroke:none"
         d="m 586.34378,360.53165 32.20338,0 0,-19.32203 -32.20338,0 0,19.32203 z" /><g
         style="fill:#e6e6e6"
         transform="matrix(3.2203379,0,0,3.2203379,543.69331,461.40615)"
         id="g386"><path
           inkscape:connector-curvature="0"
           id="path388"
           style="fill:#e6e6e6;fill-opacity:1;fill-rule:nonzero;stroke:none"
           d="M 0,0 -4.07,4.071 3.054,11.195 7.125,7.125 0,0 z" /></g><path
         inkscape:connector-curvature="0"
         id="path390"
         style="fill:#b3b3b3;fill-opacity:1;fill-rule:nonzero;stroke:none"
         d="m 457.53027,569.85361 -61.18642,0 0,77.28811 61.18642,0 0,-77.28811 z" /><g
         style="fill:#b3b3b3"
         transform="matrix(3.2203379,0,0,3.2203379,480.07263,638.89604)"
         id="g392"><path
           inkscape:connector-curvature="0"
           id="path394"
           style="fill:#b3b3b3;fill-opacity:1;fill-rule:nonzero;stroke:none"
           d="m 0,0 c 0,-0.795 -0.645,-1.439 -1.439,-1.439 l -30.122,0 C -32.355,-1.439 -33,-0.795 -33,0 l 0,16.121 c 0,0.795 0.645,1.44 1.439,1.44 l 30.122,0 C -0.645,17.561 0,16.916 0,16.121 L 0,0 z" /></g><g
         transform="matrix(3.2203379,0,0,3.2203379,570.24209,353.34868)"
         id="g396"><path
           inkscape:connector-curvature="0"
           id="path398"
           style="fill:#c1272d;fill-opacity:1;fill-rule:nonzero;stroke:none"
           d="m 0,0 0,-0.172 c 0,-12.349 -5.627,-23.504 -13.73,-31.582 -0.03,-0.027 0.113,0.018 0.082,-0.027 C -21.721,-39.826 -32,-44.791 -45,-44.791 l 0,89.684 c 13,0 23.063,-5.067 31.193,-13.243 0.03,-0.027 0.485,-0.041 0.498,-0.071 C -5.275,23.477 0,12.321 0,0" /></g><g
         style="fill:#ececec"
         transform="matrix(3.2203379,0,0,3.2203379,394.65832,351.9839)"
         id="g400"><path
           inkscape:connector-curvature="0"
           id="path402"
           style="fill:#ececec;fill-opacity:1;fill-rule:nonzero;stroke:none"
           d="m 0,0 c -0.456,5.19 2.843,8.654 8.051,8.654 l 0.461,0 c 5.211,0 8.508,-3.46 8.052,-8.649 C 15.556,-11.577 11.475,-33.857 9.896,-43.953 9.563,-46.057 6.93,-45.886 6.671,-44.151 4.918,-32.331 1.009,-11.578 0,0" /></g></g></g></svg>