<?xml version="1.0" encoding="UTF-8" standalone="no"?>
<!-- Created with Inkscape (http://www.inkscape.org/) -->

<svg
   xmlns:dc="http://purl.org/dc/elements/1.1/"
   xmlns:cc="http://creativecommons.org/ns#"
   xmlns:rdf="http://www.w3.org/1999/02/22-rdf-syntax-ns#"
   xmlns:svg="http://www.w3.org/2000/svg"
   xmlns="http://www.w3.org/2000/svg"
   xmlns:sodipodi="http://sodipodi.sourceforge.net/DTD/sodipodi-0.dtd"
   xmlns:inkscape="http://www.inkscape.org/namespaces/inkscape"
   id="svg2"
   version="1.1"
   inkscape:version="0.48.3.1 r9886"
   width="200"
   height="200"
   xml:space="preserve"
   sodipodi:docname="04.ai"><metadata
     id="metadata8"><rdf:RDF><cc:Work
         rdf:about=""><dc:format>image/svg+xml</dc:format><dc:type
           rdf:resource="http://purl.org/dc/dcmitype/StillImage" /><dc:title></dc:title></cc:Work></rdf:RDF></metadata><defs
     id="defs6"><clipPath
       clipPathUnits="userSpaceOnUse"
       id="clipPath32"><path
         d="M 0,800 800,800 800,0 0,0 0,800 z"
         id="path34"
         inkscape:connector-curvature="0" /></clipPath><clipPath
       clipPathUnits="userSpaceOnUse"
       id="clipPath40"><path
         d="m 421.045,163.729 49.646,0 0,-35.245 -49.646,0 0,35.245 z"
         id="path42"
         inkscape:connector-curvature="0" /></clipPath><clipPath
       clipPathUnits="userSpaceOnUse"
       id="clipPath64"><path
         d="M 0,800 800,800 800,0 0,0 0,800 z"
         id="path66"
         inkscape:connector-curvature="0" /></clipPath><clipPath
       clipPathUnits="userSpaceOnUse"
       id="clipPath204"><path
         d="m 145.983,281.312 64.869,0 0,-165.962 -64.869,0 0,165.962 z"
         id="path206"
         inkscape:connector-curvature="0" /></clipPath><clipPath
       clipPathUnits="userSpaceOnUse"
       id="clipPath272"><path
         d="m 635.974,292.096 64.868,0 0,-166.102 -64.868,0 0,166.102 z"
         id="path274"
         inkscape:connector-curvature="0" /></clipPath><clipPath
       clipPathUnits="userSpaceOnUse"
       id="clipPath354"><path
         d="m 398.324,467.748 71.742,0 0,-147.609 -71.742,0 0,147.609 z"
         id="path356"
         inkscape:connector-curvature="0" /></clipPath><clipPath
       clipPathUnits="userSpaceOnUse"
       id="clipPath456"><path
         d="m 399.395,699.382 70.661,0 0,-145.691 -70.661,0 0,145.691 z"
         id="path458"
         inkscape:connector-curvature="0" /></clipPath><clipPath
       clipPathUnits="userSpaceOnUse"
       id="clipPath532"><path
         d="m 102.827,393.944 99.934,0 0,-62.516 -99.934,0 0,62.516 z"
         id="path534"
         inkscape:connector-curvature="0" /></clipPath><clipPath
       clipPathUnits="userSpaceOnUse"
       id="clipPath554"><path
         d="m 146.895,484.816 61.643,0 0,-155.097 -61.643,0 0,155.097 z"
         id="path556"
         inkscape:connector-curvature="0" /></clipPath><clipPath
       clipPathUnits="userSpaceOnUse"
       id="clipPath618"><path
         d="m 640.01,722.899 60.59,0 0,-152.69 -60.59,0 0,152.69 z"
         id="path620"
         inkscape:connector-curvature="0" /></clipPath><clipPath
       clipPathUnits="userSpaceOnUse"
       id="clipPath650"><path
         d="m 594.684,631.927 99.933,0 0,-62.516 -99.933,0 0,62.516 z"
         id="path652"
         inkscape:connector-curvature="0" /></clipPath><clipPath
       clipPathUnits="userSpaceOnUse"
       id="clipPath688"><path
         d="m 96.4888,670.361 13.9382,0 0,-2.719 -13.9382,0 0,2.719 z"
         id="path690"
         inkscape:connector-curvature="0" /></clipPath><clipPath
       clipPathUnits="userSpaceOnUse"
       id="clipPath708"><path
         d="m 96.4888,640.745 13.9382,0 0,-2.719 -13.9382,0 0,2.719 z"
         id="path710"
         inkscape:connector-curvature="0" /></clipPath><clipPath
       clipPathUnits="userSpaceOnUse"
       id="clipPath728"><path
         d="m 96.4888,610.789 13.9382,0 0,-2.72 -13.9382,0 0,2.72 z"
         id="path730"
         inkscape:connector-curvature="0" /></clipPath><clipPath
       clipPathUnits="userSpaceOnUse"
       id="clipPath748"><path
         d="m 96.4888,581.415 13.9382,0 0,-2.72 -13.9382,0 0,2.72 z"
         id="path750"
         inkscape:connector-curvature="0" /></clipPath><clipPath
       clipPathUnits="userSpaceOnUse"
       id="clipPath780"><path
         d="m 165.723,640.807 26.548,0 0,-37.655 -26.548,0 0,37.655 z"
         id="path782"
         inkscape:connector-curvature="0" /></clipPath><clipPath
       clipPathUnits="userSpaceOnUse"
       id="clipPath812"><path
         d="m 167.465,644.49 44.39,0 0,-49.631 -44.39,0 0,49.631 z"
         id="path814"
         inkscape:connector-curvature="0" /></clipPath><clipPath
       clipPathUnits="userSpaceOnUse"
       id="clipPath950"><path
         d="m 637.885,439.68 73.921,0 0,-97.805 -73.921,0 0,97.805 z"
         id="path952"
         inkscape:connector-curvature="0" /></clipPath><clipPath
       clipPathUnits="userSpaceOnUse"
       id="clipPath1010"><path
         d="m 646.304,438.283 10.578,0 0,-28.515 -10.578,0 0,28.515 z"
         id="path1012"
         inkscape:connector-curvature="0" /></clipPath></defs><sodipodi:namedview
     pagecolor="#ffffff"
     bordercolor="#666666"
     borderopacity="1"
     objecttolerance="10"
     gridtolerance="10"
     guidetolerance="10"
     inkscape:pageopacity="0"
     inkscape:pageshadow="2"
     inkscape:window-width="1366"
     inkscape:window-height="681"
     id="namedview4"
     showgrid="false"
     fit-margin-top="0"
     fit-margin-left="0"
     fit-margin-right="0"
     fit-margin-bottom="0"
     inkscape:zoom="0.411"
     inkscape:cx="101.48859"
     inkscape:cy="-104.36971"
     inkscape:window-x="0"
     inkscape:window-y="27"
     inkscape:window-maximized="1"
     inkscape:current-layer="g10" /><g
     id="g10"
     inkscape:groupmode="layer"
     inkscape:label="04"
     transform="matrix(1.25,0,0,-1.25,-398.51141,712.06509)"><g
       id="g4896"
       transform="translate(1.9464915,-144.03893)"><g
         transform="translate(430.2197,626.6802)"
         id="g414"><path
           inkscape:connector-curvature="0"
           id="path416"
           style="fill:#eda729;fill-opacity:1;fill-rule:nonzero;stroke:none"
           d="m 0,0 c -2.631,5.438 -1.941,6.692 -3.131,12.763 -1.215,6.211 -2.742,17.445 -2.375,23.75 0.238,4.082 -0.596,11.773 -1.521,16.698 -0.012,0.058 -0.022,0.115 -0.034,0.173 -0.041,0.208 -0.08,0.42 -0.121,0.617 l -0.021,0.002 c -2.516,10.726 -12.137,18.716 -23.633,18.716 -11.495,0 -21.116,-7.991 -23.632,-18.718 l -0.002,0 c -0.003,-0.016 -0.006,-0.034 -0.009,-0.051 -0.174,-0.753 -0.315,-1.519 -0.417,-2.298 -0.808,-4.874 -1.462,-11.465 -1.249,-15.139 0.367,-6.305 -1.159,-17.539 -2.375,-23.75 C -59.708,6.692 -59.019,5.438 -61.651,0 c -1.551,-3.206 -2.652,-4.747 1.502,-6.5 7.072,-2.985 16.545,-3.479 24.071,-3.485 2.007,-0.002 3.835,0.281 5.253,0.993 1.417,-0.712 3.246,-0.995 5.253,-0.993 7.527,0.006 16.998,0.5 24.072,3.485 4.152,1.753 3.053,3.294 1.5,6.5" /></g><g
         transform="translate(441.6436,633.1411)"
         id="g418"><path
           inkscape:connector-curvature="0"
           id="path420"
           style="fill:#655174;fill-opacity:1;fill-rule:nonzero;stroke:none"
           d="m 0,0 c -1.611,1.703 -13.211,7.74 -26.836,10.649 l 0,0.006 c -5.344,1.139 -10.996,1.795 -16.479,1.521 -5.41,0.27 -11.159,-0.338 -16.516,-1.397 l 0,10e-4 c -0.018,-0.004 -0.036,-0.008 -0.055,-0.011 -0.008,-0.002 -0.017,-0.003 -0.025,-0.004 l 0,-0.001 C -73.771,7.998 -85.685,2.125 -86.69,0 c -2.233,-4.726 -9.741,-36.04 -8.28,-43.831 1.461,-7.795 12.176,-17.045 12.176,-17.045 l 39.449,0 39.449,0 c 0,0 10.712,9.25 12.175,17.045 C 9.738,-36.04 4.262,-4.506 0,0" /></g><g
         transform="translate(398.3252,617.7485)"
         id="g422"><path
           inkscape:connector-curvature="0"
           id="path424"
           style="fill:#ffc95e;fill-opacity:1;fill-rule:nonzero;stroke:none"
           d="m 0,0 c 0,0 12.119,20.262 12.736,26.754 -4.234,0.658 -8.497,1.04 -12.733,0.83 -4.201,0.21 -8.558,-0.148 -12.738,-0.753 C -12.162,20.294 0,0 0,0" /></g><g
         transform="translate(405.333,654.8784)"
         id="g426"><path
           inkscape:connector-curvature="0"
           id="path428"
           style="fill:#ffc95e;fill-opacity:1;fill-rule:nonzero;stroke:none"
           d="m 0,0 -7.009,0 -7.006,0 -2.9,-14.197 9.906,0 9.907,0 L 0,0 z" /></g><g
         transform="translate(419.4932,674.7485)"
         id="g430"><path
           inkscape:connector-curvature="0"
           id="path432"
           style="fill:#ffc95e;fill-opacity:1;fill-rule:nonzero;stroke:none"
           d="m 0,0 c -0.084,0 -0.164,-0.029 -0.248,-0.038 -1.465,12.779 -10.004,22.6 -20.353,22.6 -10.367,0 -18.92,-9.858 -20.361,-22.674 -1.676,-0.504 -2.935,-2.679 -2.935,-5.284 0,-2.846 1.507,-5.154 3.414,-5.355 1.363,-6.581 4.648,-12.145 9.033,-15.657 l 0,-6.209 20.596,0 -0.031,6.268 c 4.951,3.438 8.713,8.508 10.18,15.661 0.228,-0.064 0.465,-0.102 0.705,-0.102 2.031,0 3.678,2.415 3.678,5.394 C 3.678,-2.415 2.031,0 0,0" /></g><g
         transform="translate(398.3242,606.2007)"
         id="g434"><path
           inkscape:connector-curvature="0"
           id="path436"
           style="fill:#c8dac9;fill-opacity:1;fill-rule:nonzero;stroke:none"
           d="m 0,0 -38.043,6.6 0,-51.631 38.043,0 38.044,0 0,51.631 L 0,0 z" /></g><path
         inkscape:connector-curvature="0"
         id="path438"
         style="fill:#61878b;fill-opacity:1;fill-rule:nonzero;stroke:none"
         d="m 470.056,565.248 -143.461,0 0,-11.541 143.461,0 0,11.541 z" /><g
         transform="translate(370.4941,580.5679)"
         id="g440"><path
           inkscape:connector-curvature="0"
           id="path442"
           style="fill:#ffc95e;fill-opacity:1;fill-rule:nonzero;stroke:none"
           d="m 0,0 c 0,4.771 -3.867,8.639 -8.637,8.639 -4.771,0 -8.638,-3.868 -8.638,-8.639 l 0,-6.684 c 0,-4.769 3.867,-8.636 8.638,-8.636 4.77,0 8.637,3.867 8.637,8.636 L 0,0 z" /></g><g
         transform="translate(443.4307,580.5679)"
         id="g444"><path
           inkscape:connector-curvature="0"
           id="path446"
           style="fill:#ffc95e;fill-opacity:1;fill-rule:nonzero;stroke:none"
           d="m 0,0 c 0,4.771 -3.867,8.639 -8.637,8.639 -4.771,0 -8.638,-3.868 -8.638,-8.639 l 0,-6.684 c 0,-4.769 3.867,-8.636 8.638,-8.636 4.77,0 8.637,3.867 8.637,8.636 L 0,0 z" /></g><g
         transform="translate(377.8252,681.9429)"
         id="g448"><path
           inkscape:connector-curvature="0"
           id="path450"
           style="fill:#eda729;fill-opacity:1;fill-rule:nonzero;stroke:none"
           d="m 0,0 c -0.528,-1.445 -2.833,-6.399 -1.489,-7.627 1.168,-1.068 7.96,-0.644 9.254,-0.353 6.843,1.542 12.425,2.672 18.066,4.75 4.669,1.718 8.013,2.857 12.089,5.77 4.576,3.271 -1.967,9.292 -5.184,10.959 C 27.42,16.256 21.604,16.983 15.75,15.305 12.646,14.414 9.409,13.49 6.938,11.318 5.148,9.747 0.601,4.766 0.75,2.75 L 0,0 z" /></g><g
         id="g452"><g
           id="g454" /><g
           id="g460"><g
             style="opacity:0.27999902"
             id="g462"
             clip-path="url(#clipPath456)"><g
               id="g464"
               transform="translate(441.6436,633.1255)"><path
                 inkscape:connector-curvature="0"
                 id="path466"
                 style="fill:#655174;fill-opacity:1;fill-rule:nonzero;stroke:none"
                 d="m 0,0 c -1.1,1.162 -6.85,4.341 -14.719,7.167 -3.664,1.316 -7.787,2.558 -12.117,3.482 l 0,0.006 c -1.234,0.264 -2.486,0.496 -3.748,0.703 -0.506,-5.31 -8.693,-19.813 -11.665,-24.929 l 0,-1.882 0,-11.302 36.974,6.414 0,-23.744 c 4.017,-0.742 7.062,-4.256 7.062,-8.488 l 0,-2.535 c 2.818,3.263 5.774,7.445 6.492,11.277 C 9.738,-36.04 4.262,-4.506 0,0" /></g><g
               id="g468"
               transform="translate(410.9658,644.4995)"><path
                 inkscape:connector-curvature="0"
                 id="path470"
                 style="fill:#655174;fill-opacity:1;fill-rule:nonzero;stroke:none"
                 d="m 0,0 c -0.775,0.126 -1.557,0.242 -2.34,0.342 l 0,-0.02 C -1.559,0.223 -0.777,0.121 0,0" /></g><g
               id="g472"
               transform="translate(411.0615,644.4868)"><path
                 inkscape:connector-curvature="0"
                 id="path474"
                 style="fill:#ffc95e;fill-opacity:1;fill-rule:nonzero;stroke:none"
                 d="M 0,0 C -0.031,0.005 -0.064,0.009 -0.096,0.013 -0.063,0.008 -0.033,0.002 -0.002,-0.003 -0.002,-0.003 0,-0.001 0,0" /></g><g
               id="g476"
               transform="translate(419.4932,674.7329)"><path
                 inkscape:connector-curvature="0"
                 id="path478"
                 style="fill:#ffc95e;fill-opacity:1;fill-rule:nonzero;stroke:none"
                 d="m 0,0 c -0.084,0 -0.164,-0.029 -0.248,-0.038 -0.426,3.721 -1.455,7.186 -2.951,10.236 -0.164,-0.16 -0.34,-0.315 -0.549,-0.464 -4.076,-2.913 -7.42,-4.051 -12.089,-5.77 -1.417,-0.522 -2.831,-0.985 -4.262,-1.408 l 0,-22.426 0,-9.529 0,-10e-4 0,-3.217 0,-1.45 0,-21.112 c 2.972,5.116 11.16,19.619 11.665,24.93 -0.031,0.005 -0.06,0.011 -0.093,0.016 -0.778,0.121 -1.559,0.222 -2.34,0.322 l 0,0.019 -0.018,3.543 c 4.951,3.438 8.713,8.508 10.18,15.661 0.228,-0.064 0.465,-0.102 0.705,-0.102 2.031,0 3.678,2.415 3.678,5.394 C 3.678,-2.415 2.031,0 0,0" /></g><g
               id="g480"
               transform="translate(436.3682,565.2319)"><path
                 inkscape:connector-curvature="0"
                 id="path482"
                 style="fill:#c8dac9;fill-opacity:1;fill-rule:nonzero;stroke:none"
                 d="M 0,0 0,0.148 C -0.512,0.055 -1.035,0 -1.574,0 L 0,0 z" /></g><g
               id="g484"
               transform="translate(399.3945,606.3706)"><path
                 inkscape:connector-curvature="0"
                 id="path486"
                 style="fill:#c8dac9;fill-opacity:1;fill-rule:nonzero;stroke:none"
                 d="m 0,0 0,-34.121 0,-7.018 35.399,0 c -4.216,0 -7.722,3.022 -8.48,7.018 -0.102,0.525 -0.158,1.064 -0.158,1.619 l 0,6.684 c 0,4.771 3.867,8.638 8.638,8.638 0.539,0 1.063,-0.056 1.575,-0.15 l 0,23.744 L 0,0 z" /></g><g
               id="g488"
               transform="translate(436.3682,565.2319)"><path
                 inkscape:connector-curvature="0"
                 id="path490"
                 style="fill:#61878b;fill-opacity:1;fill-rule:nonzero;stroke:none"
                 d="m 0,0 -1.574,0 -35.4,0 0,-4.078 0,-7.463 70.662,0 L 33.688,0 0,0 z" /></g><g
               id="g492"
               transform="translate(436.3682,589.0405)"><path
                 inkscape:connector-curvature="0"
                 id="path494"
                 style="fill:#ffc95e;fill-opacity:1;fill-rule:nonzero;stroke:none"
                 d="m 0,0 c -0.512,0.094 -1.035,0.15 -1.574,0.15 -4.772,0 -8.639,-3.867 -8.639,-8.638 l 0,-6.684 c 0,-0.555 0.057,-1.094 0.158,-1.619 0.758,-3.996 4.264,-7.018 8.481,-7.018 0.539,0 1.062,0.055 1.574,0.149 4.018,0.742 7.063,4.256 7.063,8.488 l 0,4.149 0,2.535 C 7.063,-4.256 4.018,-0.742 0,0" /></g><g
               id="g496"
               transform="translate(426.9248,640.2925)"><path
                 inkscape:connector-curvature="0"
                 id="path498"
                 style="fill:#eda729;fill-opacity:1;fill-rule:nonzero;stroke:none"
                 d="m 0,0 c -1.184,6.342 -2.561,16.859 -2.211,22.885 0.238,4.082 -0.596,11.773 -1.521,16.698 -0.012,0.058 -0.022,0.115 -0.034,0.173 -0.041,0.208 -0.08,0.42 -0.121,0.617 l -0.021,0.002 C -6.424,51.098 -16.039,59.085 -27.53,59.09 l 0,-1.283 0,-0.821 0,-19.99 c 1.43,0.424 2.844,0.887 4.261,1.408 4.669,1.719 8.013,2.858 12.089,5.771 0.209,0.148 0.385,0.304 0.549,0.464 1.496,-3.05 2.526,-6.516 2.951,-10.237 0.084,0.009 0.164,0.038 0.248,0.038 2.032,0 3.678,-2.415 3.678,-5.395 0,-2.98 -1.646,-5.395 -3.678,-5.395 -0.24,0 -0.476,0.038 -0.705,0.103 C -9.604,16.6 -13.365,11.529 -18.316,8.092 l 0.017,-3.543 c 0.783,-0.1 1.565,-0.216 2.34,-0.342 0.031,-0.004 0.064,-0.008 0.096,-0.013 0,-0.001 -0.002,-0.003 -0.002,-0.003 1.261,-0.207 2.513,-0.439 3.748,-0.703 l 0,-0.006 C -7.787,2.558 -3.664,1.316 0,0" /></g></g></g></g></g></g></svg>