<?xml version="1.0" encoding="UTF-8" standalone="no"?>
<!-- Generator: Adobe Illustrator 16.0.4, SVG Export Plug-In . SVG Version: 6.00 Build 0)  -->

<svg
   xmlns:dc="http://purl.org/dc/elements/1.1/"
   xmlns:cc="http://creativecommons.org/ns#"
   xmlns:rdf="http://www.w3.org/1999/02/22-rdf-syntax-ns#"
   xmlns:svg="http://www.w3.org/2000/svg"
   xmlns="http://www.w3.org/2000/svg"
   xmlns:sodipodi="http://sodipodi.sourceforge.net/DTD/sodipodi-0.dtd"
   xmlns:inkscape="http://www.inkscape.org/namespaces/inkscape"
   version="1.1"
   id="Layer_1"
   x="0px"
   y="0px"
   width="79.52px"
   height="79.52px"
   viewBox="0 0 79.52 79.52"
   style="enable-background:new 0 0 79.52 79.52;"
   xml:space="preserve"
   inkscape:version="0.48.3.1 r9886"
   sodipodi:docname="budget.svg"><metadata
   id="metadata17"><rdf:RDF><cc:Work
       rdf:about=""><dc:format>image/svg+xml</dc:format><dc:type
         rdf:resource="http://purl.org/dc/dcmitype/StillImage" /></cc:Work></rdf:RDF></metadata><defs
   id="defs15" /><sodipodi:namedview
   pagecolor="#ffffff"
   bordercolor="#666666"
   borderopacity="1"
   objecttolerance="10"
   gridtolerance="10"
   guidetolerance="10"
   inkscape:pageopacity="0"
   inkscape:pageshadow="2"
   inkscape:window-width="1366"
   inkscape:window-height="681"
   id="namedview13"
   showgrid="false"
   inkscape:zoom="2.967807"
   inkscape:cx="39.759998"
   inkscape:cy="39.0861"
   inkscape:window-x="0"
   inkscape:window-y="27"
   inkscape:window-maximized="1"
   inkscape:current-layer="Layer_1" />
<g
   id="g3"
   style="fill:#666666">
	<path
   d="M72.8,1.569L72.8,1.569C72.8,1.569,72.574,1.569,72.8,1.569C72.128,0.448,71.007,0,69.888,0l0,0H9.632l0,0   C7.615,0,6.048,1.569,6.048,3.584l0,0v3.137v11.647v6.496v11.648v6.494v11.648v6.496v11.647v3.137l0,0   c0,0.672,0.224,1.344,0.672,2.017l0,0l0,0c0.672,0.896,1.792,1.567,2.912,1.567l0,0h60.256l0,0c2.016,0,3.584-1.567,3.584-3.584   l0,0v-3.137V61.153v-6.496V43.007v-6.494V24.865v-6.496V6.721V3.584l0,0C73.246,2.689,73.024,2.24,72.8,1.569z M28.896,68.321   c0,0.896-0.672,1.568-1.567,1.568h-8.287c-0.896,0-1.568-0.673-1.568-1.568v-3.584c0-0.896,0.672-1.568,1.568-1.568h8.287   c0.896,0,1.567,0.672,1.567,1.568V68.321z M28.896,56.225c0,0.896-0.672,1.567-1.567,1.567h-8.287   c-0.896,0-1.568-0.672-1.568-1.567v-3.584c0-0.896,0.672-1.568,1.568-1.568h8.287c0.896,0,1.567,0.672,1.567,1.568V56.225z    M28.896,44.353c0,0.896-0.672,1.566-1.567,1.566h-8.287c-0.896,0-1.568-0.672-1.568-1.566v-3.584c0-0.896,0.672-1.568,1.568-1.568   h8.287c0.896,0,1.567,0.672,1.567,1.568V44.353z M45.246,68.321c0,0.896-0.672,1.568-1.566,1.568h-8.288   c-0.896,0-1.568-0.673-1.568-1.568v-3.584c0-0.896,0.673-1.568,1.568-1.568h8.288c0.896,0,1.566,0.672,1.566,1.568V68.321z    M45.246,56.225c0,0.896-0.672,1.567-1.566,1.567h-8.288c-0.896,0-1.568-0.672-1.568-1.567v-3.584c0-0.896,0.673-1.568,1.568-1.568   h8.288c0.896,0,1.566,0.672,1.566,1.568V56.225z M45.246,44.353c0,0.896-0.672,1.566-1.566,1.566h-8.288   c-0.896,0-1.568-0.672-1.568-1.566v-3.584c0-0.896,0.673-1.568,1.568-1.568h8.288c0.896,0,1.566,0.672,1.566,1.568V44.353z    M61.823,68.321c0,0.896-0.672,1.568-1.567,1.568h-8.287c-0.896,0-1.568-0.673-1.568-1.568v-3.584c0-0.896,0.672-1.568,1.568-1.568   h8.287c0.896,0,1.567,0.672,1.567,1.568V68.321z M61.823,56.225c0,0.896-0.672,1.567-1.567,1.567h-8.287   c-0.896,0-1.568-0.672-1.568-1.567v-3.584c0-0.896,0.672-1.568,1.568-1.568h8.287c0.896,0,1.567,0.672,1.567,1.568V56.225z    M61.823,44.353c0,0.896-0.672,1.566-1.567,1.566h-8.287c-0.896,0-1.568-0.672-1.568-1.566v-3.584c0-0.896,0.672-1.568,1.568-1.568   h8.287c0.896,0,1.567,0.672,1.567,1.568V44.353z M62.494,31.809L62.494,31.809c0,0.896-0.672,1.566-1.567,1.566H18.144   c-0.896,0-1.567-0.672-1.567-1.566V10.977c0-0.896,0.672-1.568,1.567-1.568h42.783c0.896,0,1.567,0.672,1.567,1.568V31.809z"
   id="path5"
   style="fill:#666666" />
	<path
   d="M28.448,19.712c-1.566-0.672-2.238-0.896-2.238-1.567c0-0.448,0.446-0.896,1.566-0.896c1.345,0,2.018,0.448,2.464,0.672   l0.448-2.016c-0.672-0.224-1.344-0.448-2.464-0.672v-1.568h-1.792v1.792c-1.792,0.448-2.912,1.568-2.912,3.136   c0,1.793,1.344,2.688,3.136,3.137c1.346,0.448,1.792,0.896,1.792,1.567s-0.672,1.121-1.792,1.121c-1.119,0-2.238-0.448-2.911-0.672   l-0.447,2.017c0.672,0.446,1.792,0.672,2.912,0.672v1.792h1.792v-2.018c2.016-0.446,3.136-1.791,3.136-3.358   C31.36,21.504,30.464,20.385,28.448,19.712z"
   id="path7"
   style="fill:#666666" />
	<path
   d="M40.544,19.712c-1.568-0.672-2.24-0.896-2.24-1.567c0-0.448,0.448-0.896,1.567-0.896c1.345,0,2.017,0.448,2.464,0.672   l0.448-2.016c-0.672-0.224-1.344-0.448-2.464-0.672v-1.568h-1.792v1.792c-1.792,0.448-2.912,1.568-2.912,3.136   c0,1.793,1.346,2.688,3.138,3.137c1.344,0.448,1.792,0.896,1.792,1.567s-0.673,1.121-1.792,1.121c-1.12,0-2.24-0.448-2.912-0.672   l-0.448,2.017c0.672,0.446,1.792,0.672,2.912,0.672v1.792h1.792v-2.018c2.016-0.446,3.136-1.791,3.136-3.358   C43.68,21.504,42.783,20.385,40.544,19.712z"
   id="path9"
   style="fill:#666666" />
	<path
   d="M52.864,19.712c-1.566-0.672-2.238-0.896-2.238-1.567c0-0.448,0.446-0.896,1.566-0.896c1.345,0,2.018,0.448,2.464,0.672   l0.448-2.016c-0.672-0.224-1.345-0.448-2.464-0.672v-1.568h-1.792v1.792c-1.792,0.448-2.912,1.568-2.912,3.136   c0,1.793,1.344,2.688,3.136,3.137c1.345,0.448,1.792,0.896,1.792,1.567s-0.672,1.121-1.792,1.121c-1.119,0-2.24-0.448-2.912-0.672   l-0.447,2.016c0.672,0.446,1.791,0.672,2.911,0.672v1.792h1.791v-2.018c2.018-0.446,3.138-1.791,3.138-3.358   C55.776,21.504,54.88,20.385,52.864,19.712z"
   id="path11"
   style="fill:#666666" />
</g>
</svg>