<?xml version="1.0" encoding="UTF-8" standalone="no"?>
<!-- Generator: Adobe Illustrator 16.0.4, SVG Export Plug-In . SVG Version: 6.00 Build 0)  -->

<svg
   xmlns:dc="http://purl.org/dc/elements/1.1/"
   xmlns:cc="http://creativecommons.org/ns#"
   xmlns:rdf="http://www.w3.org/1999/02/22-rdf-syntax-ns#"
   xmlns:svg="http://www.w3.org/2000/svg"
   xmlns="http://www.w3.org/2000/svg"
   xmlns:sodipodi="http://sodipodi.sourceforge.net/DTD/sodipodi-0.dtd"
   xmlns:inkscape="http://www.inkscape.org/namespaces/inkscape"
   version="1.1"
   id="Capa_1"
   x="0px"
   y="0px"
   width="57.557091"
   height="30.985264"
   viewBox="0 0 57.557091 30.985264"
   enable-background="new 0 0 64 64"
   xml:space="preserve"
   inkscape:version="0.48.3.1 r9886"
   sodipodi:docname="man77.svg"><metadata
   id="metadata9"><rdf:RDF><cc:Work
       rdf:about=""><dc:format>image/svg+xml</dc:format><dc:type
         rdf:resource="http://purl.org/dc/dcmitype/StillImage" /><dc:title></dc:title></cc:Work></rdf:RDF></metadata><defs
   id="defs7" /><sodipodi:namedview
   pagecolor="#ffffff"
   bordercolor="#666666"
   borderopacity="1"
   objecttolerance="10"
   gridtolerance="10"
   guidetolerance="10"
   inkscape:pageopacity="0"
   inkscape:pageshadow="2"
   inkscape:window-width="1366"
   inkscape:window-height="681"
   id="namedview5"
   showgrid="false"
   fit-margin-top="0"
   fit-margin-left="0"
   fit-margin-right="0"
   fit-margin-bottom="0"
   inkscape:zoom="3.6875"
   inkscape:cx="28.498754"
   inkscape:cy="11.850856"
   inkscape:window-x="0"
   inkscape:window-y="27"
   inkscape:window-maximized="1"
   inkscape:current-layer="Capa_1" />

<g
   id="g3049"
   style="fill:#666666"
   transform="translate(-3.5012459,-13.407966)"><path
     style="fill:#666666"
     inkscape:connector-curvature="0"
     id="path3"
     d="m 40.924011,25.936922 c -0.0998,0.0062 -0.423855,0.284813 -0.423855,0.284813 0.174364,0.07513 0.524213,-0.29098 0.423855,-0.284813 z m 0.04373,-0.05719 -0.02579,0.0157 c 0.009,-0.0034 0.01738,-0.0067 0.02523,-0.01009 0,-0.0022 5.6e-4,-0.0034 5.6e-4,-0.0056 z M 52.971365,13.407966 c 1.798021,0 3.255723,1.457703 3.255723,3.255723 0,1.798021 -1.457702,3.255724 -3.255723,3.255724 -1.79802,0 -3.255723,-1.457703 -3.255723,-3.255724 0,-1.79802 1.457703,-3.255723 3.255723,-3.255723 z M 33.426933,27.366593 h 0.872379 v -0.41937 h -0.872379 c -0.237718,0 -0.409278,-0.04709 -0.472071,-0.128951 -0.04766,-0.06279 -0.02691,-0.144649 -0.02691,-0.144649 l 0.01065,-2.531918 h -0.419369 v 2.442774 c -0.0185,0.08522 -0.04205,0.289858 0.09587,0.478239 0.146891,0.201275 0.421052,0.303875 0.811828,0.303875 z m 27.575814,5.94967 -0.118298,-0.959841 c -0.467586,-3.749661 -0.486088,-3.892628 -0.305557,-10.500507 0.0056,-0.231551 -0.174924,-0.423855 -0.408157,-0.430583 -0.219776,-0.01458 -0.423855,0.176046 -0.431143,0.407596 -0.181652,6.669551 -0.16203,6.818125 0.312285,10.625533 l 0.118858,0.961523 c 0.121663,0.921156 0.01458,1.559182 -0.298829,1.804748 -0.364986,0.281449 -1.003572,0.0314 -1.047303,0.01346 -3.084163,-0.948628 -6.926332,1.011422 -7.088921,1.092717 -0.205761,0.105403 -0.286495,0.35938 -0.179971,0.56514 0.07457,0.144088 0.221459,0.224823 0.372836,0.224823 0.06448,0 0.129511,-0.01346 0.192304,-0.0471 0.02523,-0.01177 1.740273,-0.883592 3.686867,-1.175132 v 6.528827 h -1.741954 c -0.354895,0 -0.642511,0.287055 -0.642511,0.64195 0,0.353773 0.287616,0.64195 0.642511,0.64195 h 4.94834 c 0.354895,0 0.642511,-0.288177 0.642511,-0.64195 0,-0.354895 -0.288177,-0.64195 -0.642511,-0.64195 h -1.605155 v -6.59947 c 0.386291,0.02635 0.767537,0.08634 1.133084,0.198472 0.04485,0.01794 1.084867,0.44516 1.839509,-0.134557 0.578035,-0.444039 0.788281,-1.312493 0.621205,-2.575649 z m -1.993689,-1.903424 c -0.07232,-2.757861 -0.9761,-5.402471 -1.047303,-8.148559 -0.104843,-3.999712 -6.233923,-4.090538 -6.28326,-0.188941 -2.345781,0.399187 -4.688758,0.611114 -7.073784,0.498983 -2.164689,-0.101478 -2.171417,3.251799 -0.02186,3.352156 2.505006,0.117177 4.989829,-0.12054 7.457271,-0.525333 0.253416,1.467794 0.553367,2.928301 0.648678,4.412915 -5.104203,1.782883 -7.933268,6.102729 -8.655391,11.592662 -0.005,0.03756 -0.0062,0.07793 -0.0095,0.117177 V 30.3689 h 3.21872 V 27.495543 H 35.698707 c 0.0067,-0.03644 0.0095,-0.07905 0.01177,-0.131754 0.0011,-0.0314 0.0028,-0.06616 0.005,-0.105403 0.01458,-0.242763 0.05719,-0.32574 0.294904,-0.371714 0.05999,-0.01121 0.135679,-0.01458 0.211928,-0.01346 v 0.201836 h 3.098179 c 0.09027,0.01682 0.17997,0.02971 0.263508,0.02971 0.130072,0 0.242203,-0.02971 0.30836,-0.118859 0.03476,-0.04654 0.03476,-0.11101 0.0342,-0.173243 0,-0.05999 -5.61e-4,-0.121662 0.02859,-0.158104 0.04485,-0.05438 0.131193,-0.09083 0.192304,-0.09643 -0.06447,0.124465 -0.104842,0.25678 -0.104842,0.396944 h 3.509139 c 0,-0.675029 -0.786038,-1.222228 -1.754289,-1.222228 -0.302754,0 -0.581399,0.05775 -0.829209,0.151377 0.05775,0.578035 -0.486088,0.52197 -0.696333,0.47936 -0.02467,0.03084 -0.04597,0.06335 -0.06728,0.09587 -0.0095,-0.0022 -0.01738,-0.0078 -0.02803,-0.0084 -0.09363,-0.0045 -0.228747,0.05214 -0.29995,0.138482 -0.05326,0.06504 -0.05214,0.149134 -0.05214,0.22314 5.61e-4,0.04541 5.61e-4,0.09251 -0.01346,0.11101 -0.037,0.0499 -0.109888,0.06616 -0.193426,0.07064 v -0.483284 h -3.394711 v 0.256219 c -0.09027,-5.6e-4 -0.174363,0.0073 -0.23155,0.0185 -0.301072,0.05775 -0.361623,0.196229 -0.377881,0.465344 -0.0022,0.04037 -0.0034,0.07625 -0.005,0.107645 -0.0022,0.06111 -0.0045,0.103722 -0.01289,0.13624 h -6.375259 v 2.873356 h 1.752047 V 44.3051 h 13.050926 v -1.39547 c 0.212488,2.147308 3.87749,1.951079 4.200427,-0.506832 0.558412,-4.246961 3.035386,-7.082754 7.199931,-8.021291 1.731302,0.263508 3.643696,-0.720441 3.585388,-2.968668 z m -25.054549,-13.377227 0.527577,7.522308 -1.393228,0.09755 -0.527576,-7.521747 1.393227,-0.09811 z" /><g
     transform="matrix(0.64064078,0,0,0.64064078,3.5012459,20.166797)"
     id="g3029"
     style="fill:#666666"><g
       id="g2987"
       style="fill:#666666">
	<path
   inkscape:connector-curvature="0"
   d="M 27.167,9.939 23.271,5.266 20.569,7.521 C 19.37,6.721 18.03,6.125 16.599,5.75 V 3.609 h 2.165 V 0 H 9.896 v 3.609 h 2.475 v 1.74 C 5.475,5.805 0,11.545 0,18.553 c 0,7.306 5.943,13.249 13.248,13.249 7.306,0 13.249,-5.943 13.249,-13.249 0,-2.396 -0.649,-4.64 -1.767,-6.581 L 27.167,9.939 z M 13.763,29.301 v -3.109 h -0.515 v 3.136 c -2.809,0 -5.361,-1.09 -7.282,-2.857 0.229,-0.149 0.391,-0.397 0.391,-0.692 0,-0.465 -0.378,-0.842 -0.843,-0.842 -0.276,0 -0.51,0.143 -0.664,0.349 C 3.369,23.441 2.477,21.105 2.475,18.56 H 5.153 V 18.046 H 2.501 c 0.123,-2.621 1.183,-4.996 2.856,-6.803 0.155,0.184 0.378,0.309 0.638,0.309 0.465,0 0.842,-0.377 0.842,-0.843 0,-0.236 -0.099,-0.448 -0.255,-0.601 C 8.418,8.655 10.731,7.78 13.248,7.78 v 3.615 h 0.515 V 7.806 c 2.267,0.107 4.349,0.914 6.038,2.216 -0.12,0.145 -0.203,0.325 -0.203,0.53 0,0.466 0.377,0.843 0.843,0.843 0.237,0 0.45,-0.101 0.603,-0.258 1.73,1.818 2.828,4.236 2.953,6.908 h -2.535 v 0.514 h 2.562 c -0.002,2.106 -0.619,4.066 -1.669,5.728 -0.143,-0.114 -0.316,-0.192 -0.513,-0.192 -0.466,0 -0.843,0.377 -0.843,0.842 0,0.286 0.151,0.525 0.368,0.679 -1.871,2.146 -4.574,3.541 -7.604,3.685 z"
   id="path2989"
   style="fill:#666666" />
	<path
   inkscape:connector-curvature="0"
   d="m 13.917,10.708 v 4.16 c 1.786,0.315 3.154,1.817 3.276,3.662 l 4.089,-0.668 c -0.437,-3.811 -3.521,-6.827 -7.365,-7.154 z"
   id="path2991"
   style="fill:#666666" />
</g><g
       id="g2993"
       style="fill:#666666">
</g><g
       id="g2995"
       style="fill:#666666">
</g><g
       id="g2997"
       style="fill:#666666">
</g><g
       id="g2999"
       style="fill:#666666">
</g><g
       id="g3001"
       style="fill:#666666">
</g><g
       id="g3003"
       style="fill:#666666">
</g><g
       id="g3005"
       style="fill:#666666">
</g><g
       id="g3007"
       style="fill:#666666">
</g><g
       id="g3009"
       style="fill:#666666">
</g><g
       id="g3011"
       style="fill:#666666">
</g><g
       id="g3013"
       style="fill:#666666">
</g><g
       id="g3015"
       style="fill:#666666">
</g><g
       id="g3017"
       style="fill:#666666">
</g><g
       id="g3019"
       style="fill:#666666">
</g><g
       id="g3021"
       style="fill:#666666">
</g></g></g></svg>