<?xml version="1.0" encoding="UTF-8" standalone="no"?>
<!-- Generator: Adobe Illustrator 17.0.0, SVG Export Plug-In . SVG Version: 6.00 Build 0)  -->

<svg
   xmlns:dc="http://purl.org/dc/elements/1.1/"
   xmlns:cc="http://creativecommons.org/ns#"
   xmlns:rdf="http://www.w3.org/1999/02/22-rdf-syntax-ns#"
   xmlns:svg="http://www.w3.org/2000/svg"
   xmlns="http://www.w3.org/2000/svg"
   xmlns:sodipodi="http://sodipodi.sourceforge.net/DTD/sodipodi-0.dtd"
   xmlns:inkscape="http://www.inkscape.org/namespaces/inkscape"
   version="1.1"
   id="Capa_1"
   x="0px"
   y="0px"
   width="441.94168"
   height="195.95732"
   viewBox="0 0 441.94168 195.95733"
   xml:space="preserve"
   inkscape:version="0.48.3.1 r9886"
   sodipodi:docname="proofread.svg"><metadata
     id="metadata23"><rdf:RDF><cc:Work
         rdf:about=""><dc:format>image/svg+xml</dc:format><dc:type
           rdf:resource="http://purl.org/dc/dcmitype/StillImage" /><dc:title /></cc:Work></rdf:RDF></metadata><defs
     id="defs21"><clipPath
       clipPathUnits="userSpaceOnUse"
       id="clipPath3108"><rect
         style="fill:#ff2a2a;fill-opacity:1;stroke:none"
         id="rect3110"
         width="134.89716"
         height="109.02647"
         x="907.32202"
         y="577.45026"
         rx="7.664258"
         ry="7.3916254" /></clipPath><clipPath
       clipPathUnits="userSpaceOnUse"
       id="clipPath3108-3"><rect
         style="fill:#ff2a2a;fill-opacity:1;stroke:none"
         id="rect3110-7"
         width="134.89716"
         height="109.02647"
         x="907.32202"
         y="577.45026"
         rx="7.664258"
         ry="7.3916254" /></clipPath><clipPath
       id="clipPath3470"
       clipPathUnits="userSpaceOnUse"><path
         id="path3472"
         d="m 0,595.28 595.28,0 L 595.28,0 0,0 0,595.28 z"
         inkscape:connector-curvature="0" /></clipPath><radialGradient
       id="radialGradient3458"
       spreadMethod="pad"
       gradientTransform="matrix(467.19107,0,0,-467.19107,289.43408,283.81934)"
       gradientUnits="userSpaceOnUse"
       r="1"
       cy="0"
       cx="0"
       fy="0"
       fx="0"><stop
         id="stop3460"
         offset="0"
         style="stop-opacity:1;stop-color:#754c29" /><stop
         id="stop3462"
         offset="1"
         style="stop-opacity:1;stop-color:#3c2415" /></radialGradient><clipPath
       id="clipPath3238"
       clipPathUnits="userSpaceOnUse"><path
         id="path3240"
         d="m 0,595.28 595.28,0 L 595.28,0 0,0 0,595.28 z"
         inkscape:connector-curvature="0" /></clipPath><radialGradient
       id="radialGradient3222"
       spreadMethod="pad"
       gradientTransform="matrix(570.36291,0,0,-570.36291,297.6377,297.63965)"
       gradientUnits="userSpaceOnUse"
       r="1"
       cy="0"
       cx="0"
       fy="0"
       fx="0"><stop
         id="stop3224"
         offset="0"
         style="stop-opacity:1;stop-color:#e8e3cf" /><stop
         id="stop3226"
         offset="0.90303"
         style="stop-opacity:1;stop-color:#a8856b" /><stop
         id="stop3228"
         offset="0.90303"
         style="stop-opacity:1;stop-color:#a8856b" /><stop
         id="stop3230"
         offset="1"
         style="stop-opacity:1;stop-color:#a8856b" /></radialGradient><radialGradient
       id="radialGradient3200"
       spreadMethod="pad"
       gradientTransform="matrix(494.41434,0,0,-494.41434,297.6377,297.63965)"
       gradientUnits="userSpaceOnUse"
       r="1"
       cy="0"
       cx="0"
       fy="0"
       fx="0"><stop
         id="stop3202"
         offset="0"
         style="stop-opacity:1;stop-color:#e8e3cf" /><stop
         id="stop3204"
         offset="0.860611"
         style="stop-opacity:1;stop-color:#a8856b" /><stop
         id="stop3206"
         offset="1"
         style="stop-opacity:1;stop-color:#a8856b" /></radialGradient></defs><sodipodi:namedview
     pagecolor="#ffffff"
     bordercolor="#666666"
     borderopacity="1"
     objecttolerance="10"
     gridtolerance="10"
     guidetolerance="10"
     inkscape:pageopacity="0"
     inkscape:pageshadow="2"
     inkscape:window-width="1366"
     inkscape:window-height="681"
     id="namedview19"
     showgrid="false"
     width="500px"
     fit-margin-top="0"
     fit-margin-left="0"
     fit-margin-right="0"
     fit-margin-bottom="0"
     inkscape:zoom="0.822"
     inkscape:cx="190"
     inkscape:cy="72.587947"
     inkscape:window-x="0"
     inkscape:window-y="27"
     inkscape:window-maximized="1"
     inkscape:current-layer="Capa_1"><inkscape:grid
       type="xygrid"
       id="grid3047" /></sodipodi:namedview><g
     id="g3075"><path
       style="fill:#666666"
       d="m 341.73087,171.44755 h -12.13713 l 0,0 h 2.8686 V 138.22052 H 302.11193 V 21.957322 h -6.71461 c -3.54643,0 -6.42107,2.982958 -6.42107,6.662991 V 184.10785 c 0,3.68004 2.87464,6.66299 6.42107,6.66299 h 63.30317 l -3.85813,-6.93302 -10.84199,-6.49658 -2.2695,-1.35959 v -2.71921 -1.81489 z m -18.34641,-23.80716 v 17.36396 l -16.73359,-17.36396 h 16.73359 z"
       id="path5-8"
       inkscape:connector-curvature="0" /><path
       style="fill:#666666"
       d="m 397.85644,21.957322 v 73.655185 l 5.92481,3.716773 h 7.21087 V 28.93079 c 0,-3.851513 -2.87464,-6.973468 -6.42107,-6.973468 h -6.71461 z"
       id="path7-6"
       inkscape:connector-curvature="0" /><path
       style="fill:#666666"
       d="m 312.4959,31.629266 h 72.24483 c 3.54643,0 5.60409,-2.75666 4.59646,-6.15784 l -2.44802,-8.260876 -0.32377,-1.095397 c -0.0665,-0.223922 -0.17249,-0.435738 -0.26327,-0.653609 -1.25877,-3.089506 -4.67207,-5.5042221 -7.98551,-5.5042221 h -20.87004 c 0,-4.8778523 -3.95495,-8.8297603 -8.82978,-8.8297603 -4.87783,0 -8.82974,3.951908 -8.82974,8.8297603 h -20.87009 c -3.31339,0 -6.72369,2.4147161 -7.98551,5.5042221 -0.0877,0.217871 -0.19364,0.429687 -0.26022,0.653609 l -0.32682,1.098425 -2.44797,8.260878 c -1.00463,3.39815 1.05302,6.15481 4.59945,6.15481 z M 348.61984,4.5771566 c 2.97151,0 5.38017,2.4086662 5.38017,5.3801653 h -10.76034 c -0.005,-2.9714991 2.40866,-5.3801653 5.38017,-5.3801653 z"
       id="path9-0"
       inkscape:connector-curvature="0" /><path
       style="fill:#666666"
       d="m 389.45029,64.433881 c -5.18648,-2.311839 -12.358,-8.324424 -18.56124,-6.908273 -10.35482,2.366304 -19.64759,7.876581 -29.9419,10.64836 -6.33028,1.703616 -10.70587,-7.806983 -17.13602,-8.148916 -4.86879,-0.257207 -10.13394,5.337797 -13.24462,8.372838 -4.4512,4.342255 2.36327,11.150673 6.81143,6.811441 7.21387,-7.03839 13.42015,4.051763 21.95639,2.844404 7.37727,-1.043956 13.96783,-3.727985 20.87004,-6.421089 9.65585,-3.770354 15.40823,-2.880717 24.38321,1.119605 5.62224,2.505499 10.52735,-5.794719 4.86271,-8.31837 z"
       id="path11-4"
       inkscape:connector-curvature="0" /><path
       style="fill:#666666"
       d="m 381.40428,97.1052 6.99299,-4.036638 2.2695,-1.310241 1.02883,0.59309 c -0.34498,-0.895688 -1.04699,-1.697566 -2.2483,-2.230136 -5.18654,-2.311834 -12.35805,-8.324425 -18.56125,-6.908273 -10.35486,2.366303 -19.64758,7.876581 -29.94194,10.648365 -6.33029,1.703616 -10.70582,-7.806984 -17.13602,-8.148917 -4.86875,-0.257207 -10.13394,5.337797 -13.24462,8.372839 -4.4512,4.342251 2.36327,11.150671 6.81143,6.811441 7.21392,-7.038391 13.42015,4.05176 21.95639,2.8444 7.37732,-1.04395 13.96783,-3.72798 20.87004,-6.42109 8.46666,-3.307377 13.93457,-3.028986 21.20295,-0.21484 z"
       id="path13-7"
       inkscape:connector-curvature="0" /><path
       style="fill:#666666"
       d="m 341.73087,122.63222 v -2.62049 l 2.2695,-1.31024 7.41059,-4.27871 c -3.42542,1.37984 -6.88411,2.68101 -10.46381,3.64629 -6.33028,1.70361 -10.70587,-7.80699 -17.13602,-8.14892 -4.86879,-0.25721 -10.13394,5.3378 -13.24462,8.37284 -4.4512,4.34225 2.36327,11.15067 6.81143,6.81144 7.21387,-7.03839 13.42015,4.05176 21.95639,2.8444 0.82003,-0.11498 1.59771,-0.31772 2.39958,-0.47205 v -4.84456 z"
       id="path15-8"
       inkscape:connector-curvature="0" /><path
       style="fill:#80ffb3"
       d="m 435.06672,122.63222 -11.89507,-6.86894 -6.86894,-11.89506 h -5.31059 -8.4273 l -4.70838,-2.71731 -7.18668,-4.1486 -0.0514,0.0303 -3.11676,1.79742 -8.72987,5.04126 h -13.73788 l -3.81573,6.61172 -3.05017,5.28636 -11.89811,6.86894 v 3.8006 9.93727 l -6.86894,11.89505 6.86894,11.89506 v 11.98584 1.74901 l 11.89811,6.86893 5.77657,10.00383 1.09237,1.89123 h 13.73784 l 11.8981,6.86894 11.89811,-6.86894 h 13.73784 l 6.86894,-11.89506 11.89506,-6.86893 v -13.73787 l 6.86894,-11.89809 -6.86894,-11.89808 v -13.73485 z m -17.84108,15.42938 -6.23651,6.23651 -13.13573,13.13571 -11.81336,11.81335 c -0.9562,0.95621 -2.21498,1.41918 -3.46772,1.40405 -1.25279,0.0182 -2.51156,-0.44482 -3.46777,-1.40405 l -14.99366,-14.99364 c -1.87909,-1.87913 -1.87909,-4.92627 0,-6.80539 l 3.97006,-3.97007 c 1.87913,-1.87912 4.92626,-1.87912 6.8024,0 l 7.68897,7.68898 15.28412,-15.28414 8.59674,-8.59676 c 1.23159,-1.23157 2.95939,-1.64007 4.53894,-1.25578 0.82911,0.20274 1.61891,0.60822 2.26646,1.25578 l 3.97006,3.97006 c 1.87609,1.88215 1.87609,4.92627 -0.005,6.80539 z"
       id="path17-4"
       inkscape:connector-curvature="0" /><path
       style="fill:#666666"
       inkscape:connector-curvature="0"
       id="path3136"
       d="M 56.795673,171.90911 H 43.728828 l 0,0 h 3.088344 V 137.43556 H 14.141896 V 16.810724 H 6.9129495 c -3.8180862,0 -6.9129542357502,3.094863 -6.9129542357502,6.912954 V 185.04437 c 0,3.81809 3.0948680357502,6.91295 6.9129542357502,6.91295 H 75.065176 l -4.153663,-7.19312 -11.672552,-6.74029 -2.443288,-1.41061 v -2.82121 -1.88298 z M 37.043915,147.20882 v 18.01538 l -18.01539,-18.01538 h 18.01539 z" /><path
       style="fill:#666666"
       inkscape:connector-curvature="0"
       id="path3138"
       d="M 117.2205,16.810724 V 179.96785 l 6.37866,8.2332 h 7.76323 V 32.257989 c 0,-8.531675 -3.09485,-15.447265 -6.91293,-15.447265 h -7.22896 z" /><path
       style="fill:#666666"
       inkscape:connector-curvature="0"
       id="path3140"
       d="m 26.475776,32.330662 h 77.778834 c 3.81809,0 6.03336,-2.967817 4.94855,-6.629531 l -2.63554,-8.893667 -0.34857,-1.179306 c -0.0717,-0.241074 -0.1857,-0.469115 -0.28343,-0.703676 -1.3552,-3.326163 -5.02996,-5.9258491 -8.597209,-5.9258491 H 74.869705 c 0,-5.2515 -4.257897,-9.50612669 -9.506148,-9.50612669 -5.251473,0 -9.506147,4.25462669 -9.506147,9.50612669 H 33.388704 c -3.567248,0 -7.238731,2.5996861 -8.597205,5.9258491 -0.09446,0.234561 -0.20852,0.462602 -0.280158,0.703676 l -0.351849,1.182566 -2.635536,8.893667 c -1.081539,3.658454 1.133734,6.626271 4.95182,6.626271 z M 65.366833,3.2063426 c 3.199075,0 5.792295,2.5931721 5.792295,5.7922903 h -11.58459 c -0.0053,-3.1991182 2.593167,-5.7922903 5.792295,-5.7922903 z" /><path
       style="fill:#666666"
       inkscape:connector-curvature="0"
       id="path3142"
       d="M 108.17044,55.94286 C 102.58666,53.453932 94.865802,46.980778 88.187387,48.505408 77.039332,51.052972 67.034786,56.985341 55.951923,59.96944 c -6.815245,1.834114 -11.525949,-8.405003 -18.44865,-8.773129 -5.241752,-0.276909 -10.910214,5.746676 -14.259221,9.014204 -4.792115,4.674874 2.544299,12.004821 7.333191,7.333201 7.766504,-7.577535 14.448142,4.36213 23.63826,3.062287 7.942428,-1.123924 15.037831,-4.013551 22.468758,-6.912947 10.39549,-4.059166 16.588449,-3.101382 26.250969,1.205366 6.05291,2.697421 11.3337,-6.238598 5.23521,-8.955562 z" /><path
       inkscape:connector-curvature="0"
       id="path3144"
       d="m 1091.8771,638.76466 14.2507,-8.22607 4.6248,-2.67008 2.0966,1.20863 c -0.7029,-1.82528 -2.1336,-3.45939 -4.5817,-4.54469 -10.5693,-4.71118 -25.1838,-16.96396 -37.8251,-14.07805 -21.1016,4.82218 -40.0389,16.05132 -61.0172,21.69981 -12.90015,3.47172 -21.81695,-15.90949 -34.92065,-16.6063 -9.9219,-0.52415 -20.6515,10.87765 -26.9906,17.06262 -9.0709,8.84888 4.816,22.72343 13.8807,13.88072 14.7008,-14.34321 27.3483,8.2569 44.74385,5.79648 15.0338,-2.12743 28.4644,-7.59709 42.5301,-13.08525 17.2538,-6.73995 28.3966,-6.17263 43.2085,-0.43782 z"
       clip-path="url(#clipPath3108)"
       transform="matrix(-0.52830127,0,0,0.52830127,604.94825,-189.51677)"
       style="fill:#ff8080" /><path
       inkscape:connector-curvature="0"
       id="path3146"
       d="m 106.99488,84.228283 c -5.58377,-2.488927 -13.304638,-8.962081 -19.983053,-7.437451 -11.148055,2.547564 -21.152596,8.479932 -32.235459,11.464032 -6.815245,1.834114 -11.525949,-8.405004 -18.44865,-8.77313 -5.241752,-0.276909 -10.910214,5.746677 -14.259221,9.014204 -4.792115,4.674875 2.544299,12.004822 7.333191,7.333202 7.766505,-7.577536 14.448142,4.36213 23.63826,3.06229 7.942428,-1.12393 15.037831,-4.013555 22.468753,-6.912951 10.39549,-4.059166 16.588449,-3.101382 26.250979,1.205367 6.05291,2.697422 11.3337,-6.238599 5.2352,-8.955563 z"
       style="fill:#ff8080" /><path
       style="fill:#666666"
       inkscape:connector-curvature="0"
       id="path3148"
       d="m 111.05302,113.98793 c -5.58378,-2.48893 -13.304642,-8.96208 -19.983057,-7.43745 -11.148055,2.54756 -21.152597,8.47993 -32.235459,11.46403 -6.815245,1.83411 -11.525949,-8.405 -18.44865,-8.77313 -5.241753,-0.27691 -10.910214,5.74667 -14.259221,9.0142 -4.792115,4.67488 2.544299,12.00483 7.333191,7.33321 7.766504,-7.57754 14.448142,4.36213 23.638259,3.06229 7.942429,-1.12393 15.037832,-4.01356 22.468754,-6.91296 10.395489,-4.05916 16.588448,-3.10138 26.250983,1.20537 6.0529,2.69743 11.3337,-6.2386 5.2352,-8.95556 z" /><path
       style="fill:#666666"
       inkscape:connector-curvature="0"
       id="path3150"
       d="m 1091.8771,638.76466 14.2507,-8.22607 4.6248,-2.67008 2.0966,1.20863 c -0.7029,-1.82528 -2.1336,-3.45939 -4.5817,-4.54469 -10.5693,-4.71118 -25.1838,-16.96396 -37.8251,-14.07805 -21.1016,4.82218 -40.0389,16.05132 -61.0172,21.69981 -12.90015,3.47172 -21.81695,-15.90949 -34.92065,-16.6063 -9.9219,-0.52415 -20.6515,10.87765 -26.9906,17.06262 -9.0709,8.84888 4.816,22.72343 13.8807,13.88072 14.7008,-14.34321 27.3483,8.2569 44.74385,5.79648 15.0338,-2.12743 28.4644,-7.59709 42.5301,-13.08525 17.2538,-6.73995 28.3966,-6.17263 43.2085,-0.43782 z"
       clip-path="url(#clipPath3108-3)"
       transform="matrix(-0.52830127,0,0,0.52830127,606.33853,-164.24453)" /><g
       style="fill:#666666"
       transform="matrix(-1.25,0,0,-1.25,218.02352,82.9846)"
       id="g3602"><path
         id="path3604"
         style="fill:#666666;fill-opacity:1;fill-rule:nonzero;stroke:none"
         d="m 0,0 18.132,18.627 -21.548,0 -23.165,-23.797 23.165,-23.798 21.548,0.001 -18.114,18.608 40.423,0 L 40.442,0 0,0 z"
         inkscape:connector-curvature="0" /></g></g></svg>