<svg xmlns="http://www.w3.org/2000/svg" width="79.52" height="79.52" viewBox="0 0 79.52 79.52"><g fill="#666"><path d="M72.8 1.57s-.226 0 0 0C72.128.447 71.007 0 69.888 0H9.632C7.615 0 6.048 1.57 6.048 3.584v72.351c0 .672.224 1.344.672 2.017.672.897 1.792 1.568 2.912 1.568h60.256c2.016 0 3.584-1.567 3.584-3.584V3.583c-.226-.895-.448-1.344-.672-2.015zM28.896 68.32c0 .897-.672 1.57-1.567 1.57H19.04c-.896 0-1.568-.674-1.568-1.57v-3.583c0-.896.672-1.568 1.568-1.568h8.287c.895 0 1.566.67 1.566 1.567v3.584zm0-12.095c0 .896-.672 1.567-1.567 1.567H19.04c-.896 0-1.568-.672-1.568-1.567V52.64c0-.895.672-1.567 1.568-1.567h8.287c.895 0 1.566.672 1.566 1.568v3.585zm0-11.872c0 .896-.672 1.566-1.567 1.566H19.04c-.896 0-1.568-.673-1.568-1.567V40.77c0-.897.672-1.57 1.568-1.57h8.287c.895 0 1.566.673 1.566 1.57v3.583zm16.35 23.968c0 .897-.672 1.57-1.566 1.57h-8.288c-.896 0-1.568-.674-1.568-1.57v-3.583c0-.896.673-1.568 1.568-1.568h8.288c.896 0 1.566.67 1.566 1.567v3.584zm0-12.095c0 .896-.672 1.567-1.566 1.567h-8.288c-.896 0-1.568-.672-1.568-1.567V52.64c0-.895.673-1.567 1.568-1.567h8.288c.896 0 1.566.672 1.566 1.568v3.585zm0-11.872c0 .896-.672 1.566-1.566 1.566h-8.288c-.896 0-1.568-.673-1.568-1.567V40.77c0-.897.673-1.57 1.568-1.57h8.288c.896 0 1.566.673 1.566 1.57v3.583zM61.823 68.32c0 .897-.672 1.57-1.567 1.57H51.97c-.897 0-1.57-.674-1.57-1.57v-3.583c0-.896.673-1.568 1.57-1.568h8.286c.896 0 1.567.67 1.567 1.567v3.584zm0-12.095c0 .896-.672 1.567-1.567 1.567H51.97c-.897 0-1.57-.672-1.57-1.567V52.64c0-.895.673-1.567 1.57-1.567h8.286c.896 0 1.567.672 1.567 1.568v3.585zm0-11.872c0 .896-.672 1.566-1.567 1.566H51.97c-.897 0-1.57-.673-1.57-1.567V40.77c0-.897.673-1.57 1.57-1.57h8.286c.896 0 1.567.673 1.567 1.57v3.583zm.67-12.544c0 .895-.67 1.565-1.566 1.565H18.144c-.896 0-1.567-.672-1.567-1.566V10.976c0-.896.672-1.568 1.567-1.568h42.783c.896 0 1.567.67 1.567 1.567V31.81z"/><path d="M28.448 19.712c-1.566-.672-2.238-.896-2.238-1.567 0-.448.446-.896 1.566-.896 1.345 0 2.018.447 2.464.67l.448-2.015c-.672-.224-1.344-.448-2.464-.672v-1.568h-1.792v1.792c-1.792.448-2.912 1.568-2.912 3.136 0 1.793 1.344 2.688 3.136 3.137 1.346.448 1.792.896 1.792 1.567s-.672 1.12-1.792 1.12-2.238-.447-2.91-.67l-.448 2.016c.672.446 1.792.672 2.912.672v1.792h1.792V26.21c2.016-.447 3.136-1.792 3.136-3.36.222-1.346-.674-2.465-2.69-3.138z"/><path d="M40.544 19.712c-1.568-.672-2.24-.896-2.24-1.567 0-.448.448-.896 1.567-.896 1.346 0 2.018.447 2.465.67l.448-2.015c-.672-.224-1.344-.448-2.464-.672v-1.568h-1.793v1.792c-1.792.448-2.912 1.568-2.912 3.136 0 1.793 1.346 2.688 3.138 3.137 1.344.448 1.792.896 1.792 1.567s-.673 1.12-1.792 1.12c-1.12 0-2.24-.447-2.912-.67l-.447 2.016c.672.446 1.792.672 2.912.672v1.792h1.792V26.21c2.016-.447 3.136-1.792 3.136-3.36.447-1.346-.45-2.465-2.69-3.138z"/><path d="M52.864 19.712c-1.566-.672-2.238-.896-2.238-1.567 0-.448.446-.896 1.566-.896 1.345 0 2.018.447 2.464.67l.448-2.015c-.672-.224-1.345-.448-2.464-.672v-1.568h-1.792v1.792c-1.792.448-2.912 1.568-2.912 3.136 0 1.793 1.344 2.688 3.136 3.137 1.345.448 1.792.896 1.792 1.567s-.672 1.12-1.792 1.12-2.24-.447-2.912-.67l-.447 2.015c.672.446 1.79.672 2.91.672v1.792h1.792v-2.018c2.018-.446 3.138-1.79 3.138-3.358.223-1.346-.673-2.465-2.69-3.138z"/></g></svg>