<svg xmlns="http://www.w3.org/2000/svg" width="1000" height="1000"><defs><clipPath><path d="M0 800h800V0H0v800z"/></clipPath><clipPath><path d="M0 800h800V0H0v800z"/></clipPath></defs><g><g><g><g><path d="M568.457 344.75c0 11.348-9.2 20.55-20.547 20.55H392.124c-11.348 0-20.547-9.202-20.547-20.55v-.74c0-11.348 9.2-20.548 20.547-20.548H547.91c11.348 0 20.547 9.2 20.547 20.547v.74z" fill="#e6d91e"/></g><g><path d="M597.984 398.885c0 11.348-9.2 20.547-20.55 20.547H362.59c-11.35 0-20.55-9.2-20.55-20.547v-.743c0-11.348 9.2-20.547 20.55-20.547h214.845c11.35 0 20.55 9.2 20.55 20.547v.743z" fill="#e6d91e"/></g><g><path d="M597.984 453.018c0 11.348-9.2 20.55-20.55 20.55H362.59c-11.35 0-20.55-9.202-20.55-20.55v-.74c0-11.348 9.2-20.548 20.55-20.548h214.845c11.35 0 20.55 9.2 20.55 20.547v.74z" fill="#e6d91e"/></g><g><path d="M597.984 507.152c0 11.348-9.2 20.547-20.55 20.547H362.59c-11.35 0-20.55-9.2-20.55-20.548v-.743c0-11.35 9.2-20.548 20.55-20.548h214.845c11.35 0 20.55 9.2 20.55 20.547v.742z" fill="#e6d91e"/></g><g><path d="M435.583 568.134c0 7.565-6.133 13.698-13.698 13.698h-19.363c-7.565 0-13.698-6.133-13.698-13.698v-14.44c0-7.566 6.133-13.7 13.698-13.7h19.363c7.565 0 13.698 6.134 13.698 13.7v14.44z" fill="#e6d91e"/></g><g><path d="M553.693 568.134c0 7.565-6.133 13.698-13.695 13.698h-19.37c-7.56 0-13.694-6.133-13.694-13.698v-14.44c0-7.566 6.133-13.7 13.695-13.7h19.368c7.562 0 13.695 6.134 13.695 13.7v14.44z" fill="#e6d91e"/></g><g><path d="M497.1 868.25c0-4.623-3.213-8.37-7.175-8.37h-37.333c-3.962 0-7.174 3.747-7.174 8.37v.484c0 4.624 3.212 8.372 7.174 8.372h37.333c3.962 0 7.174-3.748 7.174-8.372v-.485z" fill="#999"/></g><g><path d="M555.527 594.133H384.512c-14.05 0-25.44 12.305-25.44 24.61h221.894c0-12.305-11.39-24.61-25.44-24.61" fill="#999"/></g><g><path d="M359.304 686.743c0 14.05 11.188 25.503 25.238 25.503h171.014c14.05 0 25.238-11.453 25.238-25.503v-50.788h-221.49v50.788z" fill="#999"/></g><g><path d="M398.674 821.27c0 14.05 12.312 26.31 26.36 26.31h89.04c14.05 0 24.877-12.26 24.877-26.31v-20.547l-140.276 19.57v.977z" fill="#999"/></g><g><path d="M398.674 804.64l140.277-19.57v-19.567L398.675 785.07v19.57z" fill="#999"/></g><g><path d="M514.054 724.546h-89.037c-14.05 0-26.362 11.266-26.362 25.314v19.57l140.378-19.506c0-14.05-10.93-25.378-24.98-25.378" fill="#999"/></g><g><path d="M547.914 365.296c11.345 0 20.547-9.2 20.547-20.55v-.738c0-11.35-9.2-20.55-20.546-20.55H470.02v41.838h77.894z" fill="#fcee21"/></g><g><path d="M577.44 419.43c11.347 0 20.548-9.2 20.548-20.548v-.743c0-11.35-9.2-20.548-20.55-20.548H470.017v41.837H577.44z" fill="#fcee21"/></g><g><path d="M577.44 473.563c11.347 0 20.548-9.2 20.548-20.55v-.738c0-11.35-9.2-20.55-20.55-20.55H470.017v41.838H577.44z" fill="#fcee21"/></g><g><path d="M577.44 527.696c11.347 0 20.548-9.2 20.548-20.547v-.744c0-11.348-9.2-20.547-20.55-20.547H470.017v41.836H577.44z" fill="#fcee21"/></g><g><path d="M520.636 540c-7.563 0-13.695 6.132-13.695 13.697v14.44c0 7.566 6.133 13.7 13.696 13.7h19.366c7.562 0 13.698-6.134 13.698-13.7v-14.44c0-7.565-6.136-13.698-13.698-13.698h-19.366z" fill="#fcee21"/></g><g><path d="M489.926 877.104c3.962 0 7.174-3.748 7.174-8.37v-.487c0-4.622-3.212-8.37-7.174-8.37H470.03v17.227h19.896z" fill="#ccc"/></g><g><path d="M580.962 618.74c0-12.306-11.39-24.61-25.44-24.61h-85.507v24.61h110.947z" fill="#ccc"/></g><g><path d="M555.527 712.243c14.05 0 25.238-11.453 25.238-25.503v-50.788H470.02v76.29h85.507z" fill="#ccc"/></g><g><path d="M514.054 847.577c14.05 0 24.878-12.26 24.878-26.31V800.72l-68.908 9.612v37.245h44.03z" fill="#ccc"/></g><g><path d="M538.93 785.074v-19.567l-68.91 9.612v19.567l68.91-9.613z" fill="#ccc"/></g><g><path d="M539.03 749.918c0-14.05-10.93-25.378-24.98-25.378h-44.03v34.966l69.01-9.588z" fill="#ccc"/></g></g><g><path d="M700 438.17c-23.696 0-42.912 6.132-42.912 13.697v14.44c0 7.566 19.216 13.7 42.912 13.7h60.678c23.696 0 42.92-6.134 42.92-13.7v-14.44c0-7.565-19.224-13.698-42.92-13.698H700z" fill="#fcee21"/></g><g><path d="M179.322 420c-23.696 0-42.912 6.133-42.912 13.698v14.44c0 7.566 19.216 13.7 42.912 13.7H240c23.696 0 42.92-6.134 42.92-13.7V433.7c0-7.565-19.224-13.698-42.92-13.698h-60.678z" fill="#fcee21"/></g><g><path d="M438.17 220c0 23.696 6.132 42.912 13.697 42.912h14.44c7.566 0 13.7-19.216 13.7-42.912v-60.678c0-23.696-6.134-42.92-13.7-42.92h-14.44c-7.565 0-13.698 19.224-13.698 42.92V220z" fill="#fcee21"/></g><g><path d="M648.1 232.94c-15.328 18.07-23.083 36.69-17.316 41.584l11.008 9.342c5.767 4.894 22.872-5.792 38.2-23.86l39.25-46.27c15.33-18.07 23.09-36.696 17.322-41.59l-11.008-9.342c-5.767-4.894-22.877 5.798-38.205 23.867l-39.25 46.27z" fill="#fcee21"/></g><g><path d="M220.787 208.85c-18.07-15.33-36.69-23.084-41.583-17.317l-9.342 11.008c-4.894 5.768 5.792 22.873 23.86 38.2l46.27 39.252c18.07 15.328 36.696 23.088 41.59 17.32l9.342-11.007c4.894-5.767-5.798-22.877-23.867-38.205l-46.27-39.25z" fill="#fcee21"/></g></g></g></svg>