<svg xmlns="http://www.w3.org/2000/svg" xmlns:xlink="http://www.w3.org/1999/xlink" width="300" height="396.151"><defs><radialGradient r="1" fy="0" fx="0" cy="0" cx="0" spreadMethod="pad" gradientTransform="matrix(200 0 0 -200 200 200)" gradientUnits="userSpaceOnUse" xlink:href="#a"/><clipPath><path d="M0 400h400V0H0v400z"/></clipPath><radialGradient id="a" spreadMethod="pad" gradientTransform="matrix(200 0 0 -200 200 200)" gradientUnits="userSpaceOnUse" r="1" cy="0" cx="0" fy="0" fx="0"><stop offset="0" stop-color="#ededed"/><stop offset=".798" stop-color="#dadada"/><stop offset=".798" stop-color="#dadada"/><stop offset="1" stop-color="#dadada"/></radialGradient><mask height="1" width="1" y="0" x="0" maskUnits="userSpaceOnUse"><g><g clip-path="url(#b)"><g><g><path d="M-32767 32767h65534v-65534h-65534v65534z" fill="url(#c)"/></g></g></g></g></mask><radialGradient id="c" spreadMethod="pad" gradientTransform="matrix(200 0 0 -200 200 200)" gradientUnits="userSpaceOnUse" r="1" cy="0" cx="0" fy="0" fx="0"><stop offset="0" stop-opacity="0" stop-color="#fff"/><stop offset=".798" stop-opacity=".651" stop-color="#fff"/><stop offset=".798" stop-opacity=".651" stop-color="#fff"/><stop offset="1" stop-opacity=".95" stop-color="#fff"/></radialGradient><clipPath id="b"><path d="M-32767 32767h65534v-65534h-65534v65534z"/></clipPath><clipPath><path d="M0 0h400v400H0V0z"/></clipPath></defs><g><g><g><path d="M213.276 104.042v291.974l-63.192-37.764L86.9 396.016V104.042h126.376z" fill="#d9553f"/></g><g><path d="M152.602 352.73l-2.515-1.502-2.518 1.502-.883-1.478 3.4-2.032 3.397 2.032-.882 1.478z" fill="#fff"/></g><g><path d="M136.372 359.42l-.882-1.477 5.598-3.345.882 1.478-5.598 3.345zm-11.196 6.69l-.882-1.473 5.598-3.35.882 1.48-5.598 3.344zm-11.193 6.695l-.882-1.478 5.596-3.345.882 1.478-5.595 3.345zm-11.196 6.693l-.882-1.477 5.598-3.345.882 1.475-5.598 3.348z" fill="#fff"/></g><g><path d="M92.93 385.39v-4.964h1.722v1.926l1.654-.986.882 1.475-4.258 2.55z" fill="#fff"/></g><path d="M94.65 128.02h-1.72v-6.82h1.72v6.82zm0 13.646h-1.72v-6.82h1.72v6.82zm0 13.643h-1.72v-6.822h1.72v6.82zm0 13.64h-1.72v-6.82h1.72v6.82zm0 13.646h-1.72v-6.82h1.72v6.82zm0 13.643h-1.72v-6.822h1.72v6.82zm0 13.644h-1.72v-6.82h1.72v6.82zm0 13.643h-1.72v-6.822h1.72v6.822zm0 13.642h-1.72v-6.822h1.72v6.82zm0 13.644h-1.72v-6.82h1.72v6.82zm0 13.643h-1.72v-6.822h1.72v6.822zm0 13.645h-1.72v-6.82h1.72v6.82zm0 13.642h-1.72v-6.82h1.72v6.82zm0 13.643h-1.72v-6.82h1.72v6.82zm0 13.645h-1.72v-6.82h1.72v6.82zm0 13.642h-1.72v-6.82h1.72v6.82zm0 13.643h-1.72v-6.82h1.72v6.82zm0 13.645h-1.72v-6.82h1.72v6.82zm0 13.642h-1.72v-6.82h1.72v6.82z" fill="#fff"/><path d="M207.248 128.02h-1.723v-6.82h1.723v6.82zm0 13.643h-1.723v-6.82h1.723v6.82zm0 13.642h-1.723v-6.82h1.723v6.82zm0 13.646h-1.723v-6.82h1.723v6.82zm0 13.643h-1.723v-6.82h1.723v6.82zm0 13.646h-1.723v-6.822h1.723v6.82zm0 13.64h-1.723v-6.82h1.723v6.82zm0 13.647h-1.723v-6.822h1.723v6.822zm0 13.642h-1.723v-6.822h1.723v6.82zm0 13.64h-1.723v-6.82h1.723v6.82zm0 13.647h-1.723v-6.822h1.723v6.822zm0 13.642h-1.723v-6.822h1.723v6.82zm0 13.64h-1.723v-6.82h1.723v6.82zm0 13.647h-1.723v-6.82h1.723v6.82zm0 13.642h-1.723v-6.822h1.723v6.82zm0 13.644h-1.723v-6.82h1.723v6.82zm0 13.643h-1.723v-6.82h1.723v6.82zm0 13.642h-1.723v-6.822h1.723v6.82zm0 13.644h-1.723v-6.82h1.723v6.82z" fill="#fff"/><g><path d="M207.248 385.39l-4.258-2.55.882-1.474 1.653.986v-1.926h1.723v4.964z" fill="#fff"/></g><g><path d="M163.798 359.42l-5.598-3.344.882-1.478 5.598 3.345-.882 1.478zm11.2 6.695l-5.602-3.345.882-1.482 5.602 3.345-.882 1.482zm11.196 6.69l-5.598-3.345.882-1.478 5.598 3.345-.882 1.478zm11.196 6.69l-5.598-3.345.882-1.478 5.598 3.345-.882 1.478z" fill="#fff"/></g><g><path d="M150.085 4.302c9.098 0 27.32-6.208 36.145-4.03 8.83 2.18 22.076 16.136 30.123 20.366 8.054 4.224 27.078 7.197 33.878 13.226 6.812 6.032 12.052 24.55 17.212 32.035 5.168 7.48 20.632 18.95 23.854 27.452 3.224 8.502-.74 27.34.35 36.358 1.096 9.03 9.46 26.375 8.365 35.4-1.098 9.027-13.362 23.86-16.586 32.36-3.22 8.5-3.883 27.74-9.05 35.222-5.16 7.482-22.916 14.92-29.727 20.95-6.8 6.024-16.323 22.76-24.377 26.983-8.048 4.227-27.23 2.56-36.06 4.734-8.825 2.173-25.034 12.563-34.125 12.563-9.084 0-25.293-10.39-34.12-12.564-8.83-2.175-28.01-.508-36.058-4.735-8.048-4.223-17.576-20.96-24.377-26.984-6.81-6.028-24.566-13.466-29.727-20.948-5.167-7.483-5.83-26.723-9.05-35.222-3.224-8.5-15.49-23.333-16.588-32.36-1.095-9.025 7.27-26.37 8.365-35.4 1.1-9.02-2.873-27.856.35-36.358 3.222-8.502 18.687-19.97 23.855-27.453 5.16-7.487 10.4-26.004 17.21-32.036 6.8-6.03 25.824-9.002 33.88-13.226 8.046-4.23 21.292-18.19 30.122-20.367 8.826-2.176 27.047 4.032 36.138 4.032" fill="#366f7c"/></g><g><path d="M281.076 148.866c0-72.342-58.644-130.986-130.982-130.986C77.75 17.88 19.1 76.524 19.1 148.866c0 72.345 58.65 130.99 130.994 130.99 72.338 0 130.982-58.645 130.982-130.99" fill="#366f7c"/></g><g><path d="M150.092 17.88c-72.345 0-130.99 58.643-130.99 130.985 0 72.345 58.645 130.992 130.99 130.992 72.338 0 130.982-58.647 130.982-130.992 0-72.342-58.644-130.986-130.982-130.986m0 6.89c68.425 0 124.092 55.67 124.092 124.095 0 68.43-55.667 124.102-124.092 124.102-68.428 0-124.1-55.67-124.1-124.102 0-68.425 55.672-124.096 124.1-124.096" fill="#fff"/></g><g><path d="M150.092 226.79l3.94 7.985 8.813 1.284-6.373 6.214 1.5 8.778-7.88-4.144-7.89 4.144 1.506-8.778-6.373-6.215 8.812-1.285 3.945-7.986z" fill="#fff"/></g><g><path d="M123.942 226.79l2.27 4.605 5.082.737-3.68 3.583.87 5.06-4.542-2.387-4.547 2.388.87-5.06-3.682-3.584 5.082-.737 2.277-4.606z" fill="#fff"/></g><g><path d="M176.24 226.79l2.27 4.605 5.084.737-3.672 3.583.858 5.06-4.54-2.387-4.542 2.388.87-5.06-3.68-3.584 5.08-.737 2.27-4.606z" fill="#fff"/></g><g><path d="M150.092 48.762l3.94 7.986 8.813 1.284-6.373 6.215 1.5 8.778-7.88-4.144-7.89 4.145 1.506-8.778-6.373-6.215 8.812-1.284 3.945-7.986z" fill="#fff"/></g><g><path d="M123.942 59.04l2.27 4.606 5.082.737-3.68 3.583.87 5.06-4.542-2.387-4.547 2.387.87-5.06-3.682-3.584 5.082-.737 2.277-4.606z" fill="#fff"/></g><g><path d="M176.24 59.04l2.27 4.606 5.084.737-3.672 3.583.858 5.06-4.54-2.387-4.542 2.387.87-5.06-3.68-3.584 5.08-.737 2.27-4.606z" fill="#fff"/></g><text transform="matrix(3.445 0 0 3.445 -462.648 1324.984)" y="-350.365" x="178.835" style="text-align:center;line-height:100%;-inkscape-font-specification:Sans Bold" font-size="12.8" font-weight="bold" letter-spacing="0" word-spacing="0" text-anchor="middle" font-family="Sans"><tspan style="text-align:center;line-height:100%;-inkscape-font-specification:Sans Bold" y="-350.365" x="178.835" font-size="12.8" font-weight="bold" text-anchor="middle" fill="#fff" font-family="Sans">Best</tspan><tspan style="text-align:center;line-height:100%;-inkscape-font-specification:Sans Bold" y="-337.565" x="178.835" font-size="12.8" font-weight="bold" text-anchor="middle" fill="#fff" font-family="Sans">Academic</tspan><tspan style="text-align:center;line-height:100%;-inkscape-font-specification:Sans Bold" y="-324.765" x="178.835" font-size="12.8" font-weight="bold" text-anchor="middle" fill="#fff" font-family="Sans">Essays</tspan></text></g></g></svg>