<svg xmlns="http://www.w3.org/2000/svg" width="1000" height="1000"><defs><clipPath><path d="M0 800h800V0H0v800z"/></clipPath><clipPath><path d="M421.045 163.73h49.646v-35.246h-49.645v35.245z"/></clipPath><clipPath><path d="M0 800h800V0H0v800z"/></clipPath><clipPath><path d="M145.983 281.312h64.87V115.35h-64.87v165.962z"/></clipPath><clipPath><path d="M635.974 292.096h64.868V125.994h-64.868v166.102z"/></clipPath><clipPath><path d="M398.324 467.748h71.742v-147.61h-71.742v147.61z"/></clipPath><clipPath><path d="M399.395 699.382h70.66v-145.69h-70.66v145.69z"/></clipPath><clipPath><path d="M102.827 393.944h99.934v-62.516h-99.933v62.516z"/></clipPath><clipPath><path d="M146.895 484.816h61.643V329.72h-61.643v155.096z"/></clipPath><clipPath><path d="M640.01 722.9h60.59V570.21h-60.59V722.9z"/></clipPath><clipPath><path d="M594.684 631.927h99.933V569.41h-99.933v62.517z"/></clipPath><clipPath id="a"><path d="M96.49 670.36h13.937v-2.718H96.49v2.72z"/></clipPath><clipPath id="b"><path d="M96.49 640.745h13.937v-2.72H96.49v2.72z"/></clipPath><clipPath id="c"><path d="M96.49 610.79h13.937v-2.72H96.49v2.72z"/></clipPath><clipPath id="d"><path d="M96.49 581.415h13.937v-2.72H96.49v2.72z"/></clipPath><clipPath id="e"><path d="M165.723 640.807h26.548v-37.655h-26.547v37.655z"/></clipPath><clipPath id="f"><path d="M167.465 644.49h44.39v-49.63h-44.39v49.63z"/></clipPath><clipPath><path d="M637.885 439.68h73.92v-97.805h-73.92v97.805z"/></clipPath><clipPath><path d="M646.304 438.283h10.578v-28.515h-10.578v28.515z"/></clipPath></defs><g><g><g><path d="M278.337 87.67v820.994H692.143V782.172h126.49V87.67H278.338z" fill="#edf1ef"/></g><g><path d="M692.143 908.667l63.246-63.246 63.245-63.245H692.143v126.492z" fill="#f5fffa"/></g><g><path d="M219.783 208.365c-16.005 0-28.988-12.976-28.988-28.98 0-16.013 12.983-28.988 28.988-28.988s28.988 12.975 28.988 28.987c0 16.005-12.982 28.98-28.987 28.98m0 212.56c-16.005 0-28.988-12.975-28.988-28.987s12.983-28.987 28.988-28.987 28.988 12.975 28.988 28.987-12.982 28.988-28.987 28.988m0 212.546c-16.005 0-28.988-12.968-28.988-28.98s12.983-28.988 28.988-28.988 28.988 12.976 28.988 28.988-12.982 28.98-28.987 28.98m0 212.56c-16.005 0-28.988-12.975-28.988-28.987s12.983-28.988 28.988-28.988 28.988 12.976 28.988 28.988-12.982 28.988-28.987 28.988m18.01-758.278c-42.286 0-76.558 34.273-76.558 76.566v667.8c0 42.277 34.272 76.55 76.558 76.55h40.545V87.752h-40.545z" fill="#75b13a"/></g><g><path d="M232.553 180.533c0 10.756-8.715 19.478-19.478 19.478h-60.86c-10.757 0-19.472-8.72-19.472-19.477 0-10.756 8.715-19.47 19.47-19.47h60.862c10.763 0 19.478 8.714 19.478 19.47" fill="#c5c9c8"/></g><g><g><g clip-path="url(#a)" opacity=".28" transform="matrix(7.161 0 0 -7.161 -558.219 4980.992)"><g><path d="M110.427 670.36c0-1.5-1.217-2.72-2.72-2.72h-8.5c-1.5 0-2.718 1.22-2.718 2.72h13.937z" fill="#c5c9c8"/></g></g></g></g><g><path d="M232.553 392.614c0 10.756-8.715 19.47-19.478 19.47h-60.86c-10.757 0-19.472-8.714-19.472-19.47 0-10.763 8.715-19.478 19.47-19.478h60.862c10.763 0 19.478 8.715 19.478 19.478" fill="#c5c9c8"/></g><g><g><g clip-path="url(#b)" opacity=".28" transform="matrix(7.161 0 0 -7.161 -558.219 4980.992)"><g><path d="M110.427 640.745c0-1.502-1.217-2.72-2.72-2.72h-8.5c-1.5 0-2.718 1.218-2.718 2.72h13.937z" fill="#c5c9c8"/></g></g></g></g><g><path d="M232.553 607.13c0 10.762-8.715 19.477-19.478 19.477h-60.86c-10.757 0-19.472-8.715-19.472-19.478 0-10.757 8.715-19.48 19.47-19.48h60.862c10.763 0 19.478 8.723 19.478 19.48" fill="#c5c9c8"/></g><g><g><g clip-path="url(#c)" opacity=".28" transform="matrix(7.161 0 0 -7.161 -558.219 4980.992)"><g><path d="M110.427 610.79c0-1.504-1.217-2.72-2.72-2.72h-8.5c-1.5 0-2.718 1.216-2.718 2.72h13.937z" fill="#c5c9c8"/></g></g></g></g><g><path d="M232.553 817.477c0 10.756-8.715 19.478-19.478 19.478h-60.86c-10.757 0-19.472-8.722-19.472-19.478 0-10.756 8.715-19.478 19.47-19.478h60.862c10.763 0 19.478 8.72 19.478 19.477" fill="#c5c9c8"/></g><g><g><g clip-path="url(#d)" opacity=".28" transform="matrix(7.161 0 0 -7.161 -558.219 4980.992)"><g><path d="M110.427 581.415c0-1.502-1.217-2.72-2.72-2.72h-8.5c-1.5 0-2.718 1.218-2.718 2.72h13.937z" fill="#c5c9c8"/></g></g></g></g><path d="M772.627 219.483H324.34v-19.477h448.287v19.477z" fill="#8b8b8c"/><path d="M772.627 288.2H324.34v-19.477h448.287V288.2z" fill="#8b8b8c"/><path d="M772.627 356.903H324.34v-19.485h448.287v19.485z" fill="#8b8b8c"/><path d="M772.627 425.6H324.34v-19.48h448.287v19.48z" fill="#8b8b8c"/><path d="M772.627 494.3H324.34v-19.47h448.287v19.47z" fill="#8b8b8c"/><path d="M772.627 563.018H324.34v-19.485h448.287v19.485z" fill="#8b8b8c"/><path d="M772.627 631.72H324.34v-19.477h448.287v19.478z" fill="#8b8b8c"/><path d="M772.627 700.416H324.34v-19.478h448.287v19.478z" fill="#8b8b8c"/><g><g><g clip-path="url(#e)" opacity=".11" transform="matrix(7.161 0 0 -7.161 -558.219 4980.992)"><g><path d="M192.27 624.92L178.9 638.106l-8.8 1.797-4.35.89-.015.015.003-.013-.013.003.894-4.375 1.797-8.8 23.857-24.47v21.77z" fill="#1c1c1b"/></g></g></g></g><g><path d="M996.346 646.2l-75.076 75.076-261.07-261.07 75.077-75.067 261.07 261.06z" fill="#ff4234"/></g><g><path d="M953.244 603.108l-75.076 75.07-13.584-13.578 75.076-75.076 13.584 13.584z" fill="#fff09e"/></g><g><path d="M660.2 460.21l75.075-75.07-63.017-12.874-24.927 24.92 12.87 63.024z" fill="#fff09e"/></g><g><path d="M647.328 397.188l24.927-24.92-31.33-6.402 6.403 31.322z" fill="#1c1c1b"/></g><g><g><g clip-path="url(#f)" opacity=".28" transform="matrix(7.161 0 0 -7.161 -558.219 4980.992)"><g><path d="M211.855 600.1l-5.242-5.24-6.018 6.018 5.242 5.242 6.018-6.02z" fill="#ff4234"/></g><g><path d="M175.398 636.558l28.54-28.54-5.24-5.242-28.542 28.54 5.242 5.242z" fill="#ff4234"/></g><g><path d="M205.837 606.12l-5.242-5.242-1.898 1.897 5.242 5.24 1.897-1.896z" fill="#fff09e"/></g><g><path d="M175.398 636.558l-5.242-5.24-1.798 8.8 1.74 1.74 5.3-5.3z" fill="#fff09e"/></g><g><path d="M168.358 640.116l-.894 4.374 2.635-2.633-1.742-1.74z" fill="#1c1c1b"/></g></g></g></g></g></g></svg>