<svg xmlns="http://www.w3.org/2000/svg" width="512" height="512" viewBox="0 0 512 512"><g fill="#666"><path d="M176 209.75c2.53-24.406 10.97-44.14 25.375-59.22 14.344-15.03 34-22.53 58.86-22.53 12.233 0 23.17 2.14 32.593 6.484 9.422 4.297 17.375 10.14 23.72 17.484 6.327 7.28 11.218 15.547 14.515 24.797 3.28 9.266 4.938 18.844 4.938 28.703 0 8.625-.983 16.39-3.06 23.266-2.095 6.875-4.954 12.984-8.69 18.297-3.75 5.44-8.03 10.376-13.108 15-4.922 4.69-10.328 9.08-16.188 13.235-10.844 8.406-22.125 16.453-33.672 24.203-11.594 7.75-22.72 16.53-33.375 26.328-3.875 3.672-7.062 7.438-9.594 11.453-2.5 4.015-4.594 9.03-6.266 15.015h117.375V384h-150.89v-24.203c0-10.047 3.187-20 9.624-29.578 6.438-9.735 14.438-19.19 24.125-28.22 9.626-9.03 20.19-17.828 31.782-26.36 11.61-8.515 22.53-16.765 32.89-24.78 7.845-5.984 14.032-12.36 18.673-19.234 4.516-6.86 6.86-15.625 6.86-26.344 0-15.172-3.813-27.03-11.735-35.53-7.78-8.485-17.938-12.735-30.516-12.735-15.36 0-27.53 4.703-36.453 14.11-9 9.374-13.437 22.25-13.437 38.624H176z"/></g></svg>