<svg xmlns="http://www.w3.org/2000/svg" width="512" height="512" viewBox="0 0 512 512"><g fill="#666"><path d="M182.828 204.78c2.688-24.06 9.672-42.92 20.938-56.5C215.03 134.767 232.812 128 257.25 128c21.156 0 37.938 5.97 50.25 17.875s18.47 27.75 18.47 47.47c0 14.124-2.563 25.374-7.782 33.78-5.234 8.375-13.453 14.906-24.78 19.625 5.42 1.75 10.64 4.25 15.687 7.5 5.188 3.25 9.734 7.406 13.672 12.594 4.062 5.156 7.266 11.234 9.734 18.344 2.345 7.047 3.5 15.36 3.5 25.094 0 12.172-2.077 22.688-6.233 31.75-4.28 9.188-9.984 16.906-17.078 22.984-7.235 6.22-15.642 10.938-25.048 14.188-9.53 3.234-19.672 4.797-30.39 4.797-21.97 0-40.157-6.983-54.5-20.983-14.345-13.984-23.25-34.547-26.75-62h32.56c3.19 20 8.735 34.047 16.5 42.203 7.75 8.03 18.532 12.062 32.19 12.062 6.155 0 12.093-1.016 17.702-3.047 5.64-2.016 10.516-5.016 14.812-9.016 4.312-4 7.734-8.735 10.39-14.282 2.5-5.688 3.704-11.906 3.704-18.656 0-13.516-4.125-25.016-12.5-34.438-8.25-9.375-19.64-14.094-34.11-14.094h-18.515v-28.72h18.516c6.72 0 12.423-1.06 17.11-3.28 4.656-2.234 8.484-5.094 11.453-8.625 2.953-3.5 5.03-7.5 6.22-11.875 1.296-4.47 1.796-8.875 1.796-13.25 0-12.375-3.407-22.11-10.25-29.156-6.83-7.078-15.923-10.594-27.19-10.594-6.952 0-12.796 1.28-17.655 3.984-4.812 2.64-8.875 6.156-12.078 10.547-3.188 4.454-5.72 9.595-7.625 15.485-1.86 5.875-3.22 12.11-4 18.516h-32.204z"/></g></svg>