<svg xmlns="http://www.w3.org/2000/svg" width="57.557" height="30.985" viewBox="0 0 57.557091 30.985264" enable-background="new 0 0 64 64"><g fill="#666"><path d="M37.423 12.53c-.1.005-.424.284-.424.284.173.075.523-.29.423-.285zm.043-.058l-.025.015.026-.01v-.005zM49.47 0c1.798 0 3.256 1.458 3.256 3.256 0 1.798-1.458 3.255-3.256 3.255-1.798 0-3.256-1.456-3.256-3.254S47.672 0 49.47 0zM29.926 13.96h.872v-.42h-.872c-.238 0-.41-.048-.472-.13-.048-.062-.027-.144-.027-.144l.01-2.532h-.42v2.443c-.018.085-.04.29.097.478.147.2.42.304.812.304zm27.576 5.948l-.12-.96c-.466-3.75-.485-3.892-.304-10.5.005-.232-.175-.424-.41-.43-.218-.015-.422.175-.43.407-.18 6.67-.162 6.818.313 10.625l.12.962c.12.92.014 1.56-.3 1.805-.364.28-1.003.03-1.047.013-3.084-.948-6.926 1.012-7.09 1.093-.204.105-.285.36-.18.565.076.144.223.225.374.225.065 0 .13-.014.193-.047.025-.012 1.74-.884 3.686-1.175v6.53h-1.74c-.356 0-.644.287-.644.64 0 .355.288.643.643.643h4.948c.355 0 .642-.288.642-.642 0-.353-.288-.64-.642-.64h-1.605v-6.6c.386.026.767.086 1.133.2.046.016 1.086.444 1.84-.136.578-.444.79-1.313.622-2.576zm-1.994-1.903c-.073-2.758-.976-5.403-1.047-8.15-.104-3.998-6.233-4.09-6.283-.188-2.346.4-4.69.61-7.074.5-2.164-.102-2.17 3.25-.02 3.352 2.504.116 4.988-.122 7.456-.527.252 1.468.552 2.928.648 4.413C44.083 19.19 41.254 23.51 40.532 29c-.005.036-.006.077-.01.116V16.96h3.22V14.09H32.196c.007-.037.01-.08.012-.132 0-.032.002-.066.004-.106.015-.242.057-.325.295-.37.06-.013.135-.016.21-.015v.202h3.1c.09.017.18.03.263.03.13 0 .242-.03.308-.12.036-.046.036-.11.035-.172 0-.06 0-.122.03-.158.044-.055.13-.09.19-.097-.063.125-.104.257-.104.397h3.51c0-.675-.786-1.222-1.754-1.222-.303 0-.58.058-.83.15.06.58-.485.523-.695.48-.024.03-.045.064-.067.096-.01 0-.017-.006-.028-.007-.093-.004-.228.052-.3.14-.053.064-.052.148-.052.222 0 .045 0 .092-.013.11-.037.05-.11.067-.194.07v-.482h-3.394v.256c-.09 0-.175.007-.232.018-.3.058-.36.196-.378.465l-.005.108c-.002.062-.004.104-.013.137H25.72v2.873h1.75v13.937h13.052v-1.395c.213 2.147 3.878 1.95 4.2-.507.56-4.247 3.036-7.083 7.2-8.02 1.732.262 3.644-.722 3.586-2.97zM30.453 4.628l.528 7.522-1.392.098-.528-7.522 1.393-.098z"/><g><g><path d="M17.414 13.13l-2.497-2.995-1.732 1.445c-.77-.513-1.628-.895-2.545-1.135V9.072h1.388V6.76H6.343V9.07H7.93v1.116C3.51 10.48 0 14.158 0 18.65c0 4.685 3.81 8.494 8.492 8.494 4.683 0 8.493-3.81 8.493-8.493 0-1.534-.416-2.973-1.133-4.217l1.562-1.303zM8.822 25.54V23.55h-.33v2.01c-1.8 0-3.436-.698-4.668-1.83.147-.097.25-.256.25-.445 0-.298-.24-.54-.54-.54-.176 0-.326.092-.425.224-.95-1.182-1.522-2.68-1.524-4.31h1.717v-.33h-1.7c.08-1.68.758-3.203 1.83-4.36.1.117.243.197.41.197.298 0 .54-.242.54-.54 0-.152-.064-.288-.164-.386 1.176-.93 2.66-1.492 4.272-1.492v2.317h.33v-2.3c1.453.068 2.788.586 3.87 1.42-.076.093-.13.208-.13.34 0 .3.242.54.54.54.153 0 .29-.065.387-.165 1.108 1.165 1.812 2.715 1.892 4.428h-1.625v.33H15.4c-.002 1.35-.397 2.606-1.07 3.67-.092-.072-.203-.122-.33-.122-.298 0-.54.242-.54.54 0 .183.097.336.236.435-1.2 1.374-2.932 2.27-4.874 2.36z"/><path d="M8.92 13.623v2.666c1.146.2 2.023 1.164 2.1 2.347l2.622-.428c-.28-2.444-2.257-4.378-4.72-4.587z"/></g></g></g></svg>