<svg xmlns="http://www.w3.org/2000/svg" width="23.412" height="23.303" viewBox="0 0 23.412 23.303"><g fill="#666"><path d="M6.23 15.152H1.526C.69 15.152 0 15.922 0 16.87v4.718c0 .943.69 1.715 1.526 1.715H6.23c.837 0 1.524-.77 1.524-1.715v-4.72c0-.946-.686-1.716-1.524-1.716z"/><circle cx="3.875" cy="11.742" r="2.932"/><path d="M21.886 15.152h-4.703c-.836 0-1.524.77-1.524 1.718v4.72c0 .942.687 1.714 1.523 1.714h4.703c.84 0 1.525-.77 1.525-1.715v-4.72c.002-.948-.684-1.718-1.524-1.718z"/><path d="M19.533 14.674c1.624 0 2.934-1.312 2.934-2.932s-1.31-2.932-2.934-2.932c-1.618 0-2.93 1.312-2.93 2.932s1.312 2.932 2.93 2.932z"/><path d="M12.365 17.798H9.287v1.91h3.078v1.313l2.27-2.268-2.27-2.268z"/><path d="M14.48 6.66c-.263-.263-.6-.484-1.016-.668-.215-.094-.657-.226-1.33-.398V1.778c.433.088.774.273 1.02.552.25.277.41.68.493 1.205l1.37-.208c-.118-.85-.467-1.515-1.046-2-.45-.384-1.062-.61-1.834-.686V0h-.79v.64c-.883.09-1.545.33-1.993.727-.672.584-1.007 1.35-1.007 2.296 0 .532.114 1.008.343 1.428.23.42.556.745.983.983.57.32 1.13.55 1.674.69v4.18c-.522-.056-.968-.32-1.34-.792-.26-.335-.442-.86-.545-1.576l-1.344.257c.05.694.226 1.278.53 1.76.3.478.66.826 1.077 1.04.416.216.955.367 1.622.45v1.332h.788V12.06c.93-.044 1.692-.374 2.277-.99.59-.617.882-1.388.882-2.31 0-.42-.07-.81-.21-1.17-.142-.36-.342-.67-.605-.93zm-3.133-1.272c-.605-.155-1.034-.385-1.288-.69-.253-.306-.383-.683-.383-1.135 0-.46.15-.854.448-1.188.3-.333.705-.542 1.222-.62v3.633zm2.068 4.883c-.336.384-.764.61-1.28.673V6.966c.714.184 1.192.424 1.43.716.24.293.355.68.355 1.163 0 .567-.168 1.04-.505 1.426z"/></g></svg>