<svg xmlns="http://www.w3.org/2000/svg" width="890.882" height="166.09"><defs><clipPath><path d="M0 800h800V0H0v800z"/></clipPath></defs><g><g fill="#666"><g><path d="M32.917 138.3c-4.436 0-8.03-3.594-8.03-8.03 0-4.43 3.594-8.026 8.03-8.026 4.433 0 8.026 3.595 8.026 8.027 0 4.436-3.593 8.03-8.026 8.03m32.91-35.472H-.002v61.769h94.754v-7.654H65.826v-54.115z"/></g><g><path d="M45.07 94.726c.766 0 1.532-.06 2.28-.177.682 1.244 1.457 2.39 2.217 3.555h10.95c-2.666-3.1-5.04-6.654-6.913-10.694l-1.897-4.074c-1.94.953-4.7 2.59-6.636 2.59-9.437 0-9.612-17.697-.212-18.034l4.466.238.627-3.883c.236-1.463.59-2.877 1-4.267 6.703-1.785 14.277-6.723 16.448-19.755 15.885 15.887 36.434 19.734 48.947 20.49.313 1.156.586 2.326.78 3.532l.626 3.883c.532-.026 3.996-.17 4.476-.238 3.887.145 7.01 4.13 7.01 9.012 0 4.975-3.24 9.022-7.23 9.022-1.93 0-4.688-1.635-6.635-2.59l-1.894 4.075c-6.388 13.77-18.14 22.666-29.94 22.666-4.426 0-8.85-1.257-12.986-3.554v9.622c4.196 1.718 8.57 2.735 12.987 2.735 14.15 0 28.025-9.436 36.19-24.33.75.116 1.51.176 2.278.176 8.84 0 16.032-7.995 16.032-17.822 0-7.658-4.377-14.185-10.494-16.7-1.323-23.02-13.596-45.887-43.965-45.887-29.13 0-42.487 22.845-43.95 45.858-6.166 2.484-10.59 9.03-10.59 16.73 0 9.826 7.195 17.82 16.033 17.82"/></g><g><path d="M113.757 112.765c-8.46 7.806-.217 36.633-27.813 38.27v-8.7c0-1.304-1.056-2.36-2.36-2.36-1.306 0-2.362 1.056-2.362 2.36v8.707c-4.432-.25-7.864-1.254-10.672-2.7v3.877h28.927v12.183h40.99c0-.065.005-.125.005-.19 0-20.515-10.497-40.148-26.715-51.448"/></g><g><path d="M70.9 64.647c-2.473 0-4.48 3.145-4.48 7.03 0 3.885 2.007 7.033 4.48 7.033 2.48 0 4.487-3.148 4.487-7.034 0-3.884-2.006-7.03-4.487-7.03"/></g><g><path d="M96.572 78.71c2.473 0 4.484-3.147 4.484-7.034 0-3.884-2.01-7.03-4.484-7.03-2.476 0-4.482 3.146-4.482 7.03 0 3.886 2.006 7.034 4.482 7.034"/></g><g><path d="M83.538 96.214c4.487 0 8.145-3.49 8.67-6.896H74.87c.525 3.405 4.183 6.896 8.67 6.896"/></g><g><path d="M128.194 98.315c-1.974.68-4.825 1.116-5.853 1.133-1.996 3.25-4.294 6.17-6.747 8.84 8.496 5.96 15.488 13.134 21.148 23.5l.098-.292c6.346-20.407-3.958-30.005-8.644-33.18"/></g><g><path d="M323.964 107.895c3.83 0 6.954-2.978 7.402-5.88h-14.8c.45 2.902 3.572 5.88 7.398 5.88"/></g><g><path d="M302.793 28.558c2.532.575 5.35.07 7.633-1.62 2.183-1.622 3.557-4.12 3.757-6.832.28-3.822 4.68-6.934 9.81-6.934 5.126 0 9.526 3.112 9.806 6.934.204 2.712 1.573 5.21 3.755 6.833 2.284 1.688 5.102 2.193 7.634 1.618 8.82-1.964 16.384 5.335 10.8 11.06-3.952 4.055-2.653 8.916-2.653 22.674h-58.69c0-13.758 1.297-18.62-2.654-22.674-5.64-5.78 2.078-13.004 10.8-11.06m54 70.565c-1.644 0-4-1.4-5.66-2.213l-1.617 3.475c-5.45 11.75-15.482 19.343-25.553 19.343-10.06 0-20.09-7.593-25.546-19.343l-1.614-3.475c-1.657.81-4.016 2.213-5.664 2.213-8.058 0-8.203-15.11-.18-15.39l3.696.194.07.05c2.707-2.17 5.21-7.09 7.273-12.324h43.933c2.054 5.2 4.54 10.09 7.23 12.28.02.014.034.03.054.044l.07-.05c.63-.035 3.306-.14 3.696-.195 3.318.12 5.985 3.522 5.985 7.687 0 4.24-2.772 7.703-6.175 7.703m-79.336-7.704c0 8.382 6.14 15.21 13.682 15.21.653 0 1.308-.055 1.942-.155 6.974 12.714 18.807 20.767 30.88 20.767 12.08 0 23.92-8.053 30.89-20.767.637.1 1.287.155 1.94.155 7.55 0 13.684-6.828 13.684-15.21 0-6.71-3.942-12.373-9.377-14.392.35-1.23.748-3.063 1.018-5.38.32 0 .58-.26.58-.575v-21.08c0-2.204.664-4.356 1.908-6.17 1.683-2.448 2.677-5.29 2.677-8.346 0-9.193-8.626-16.65-19.272-16.65-1.692 0-3.306.245-4.874.6-.634-8.703-8.917-15.617-19.143-15.617-10.23 0-18.512 6.914-19.146 15.617-1.57-.355-3.178-.6-4.876-.6-10.644 0-19.272 7.457-19.272 16.65 0 3.056.995 5.898 2.678 8.346 1.248 1.824 1.908 3.957 1.908 6.17v21.125c0 .295.235.53.53.53.27 2.317.674 4.15 1.014 5.38-5.43 2.022-9.37 7.682-9.37 14.39"/></g><g><path d="M324.02 158.043c-2.16 0-3.912-1.75-3.912-3.906 0-2.163 1.752-3.91 3.91-3.91 2.16 0 3.912 1.747 3.912 3.91 0 2.157-1.752 3.906-3.91 3.906m25.735-36.02c-7.434 6.853-16.515 20.374-25.79 20.374-9.272 0-18.353-13.52-25.782-20.375-13.84 9.64-30.866 26.4-30.866 43.908 0 .055.01.105.01.16H380.61c0-.055.004-.105.004-.16 0-17.508-17.018-34.267-30.86-43.908"/></g><g><path d="M313.18 80.955c-2.11 0-3.817 2.688-3.817 6 0 3.316 1.708 6.01 3.816 6.01 2.116 0 3.83-2.694 3.83-6.01 0-3.312-1.714-6-3.83-6"/></g><g><path d="M335.09 80.955c-2.108 0-3.822 2.688-3.822 6 0 3.316 1.714 6.01 3.82 6.01 2.113 0 3.827-2.694 3.827-6.01 0-3.312-1.714-6-3.826-6"/></g><g><path d="M533.107 166.06V114.2c0-2.883-2.33-5.216-5.21-5.216-2.878 0-5.21 2.333-5.21 5.216v51.86h10.42z"/></g><g><path d="M538.32 148.512c9.65-2.942 18.24-9.048 17.16-25.38-1.342-20.218-11.132-46.08-21.784-54.806-3.366-2.758-8.25-2.748-11.613.015-10.645 8.738-20.424 34.584-21.765 54.79-1.084 16.335 7.508 22.44 17.156 25.382v-34.314c0-5.745 4.676-10.425 10.424-10.425 5.746 0 10.422 4.68 10.422 10.425v34.314z"/></g><path d="M561.8 50.922c9.177-1.914 19.046-3.07 29.483-3.07 10.498 0 20.424 1.173 29.643 3.11.742 1.634 1.508 3.208 2.308 4.646-7.738-1.948-19.137-3.552-31.883-3.552-12.763 0-24.177 1.604-31.917 3.557.82-1.463 1.613-3.017 2.368-4.69M542.217 70c.512-4.162 2.97-7.898 7.403-8.058l1.183.065c3.303 1.514 11.353 2.758 21.9 3.443-.01.193-.037.378-.037.578 0 4.192 2.167 7.584 4.832 7.584 2.673 0 4.84-3.392 4.84-7.584 0-.05-.006-.09-.006-.13 2.906.08 5.92.13 9.02.13 3.094 0 6.104-.05 9.01-.13 0 .04-.01.08-.01.13 0 4.192 2.17 7.584 4.84 7.584 2.666 0 4.834-3.392 4.834-7.584 0-.2-.028-.385-.038-.578 10.505-.68 18.535-1.92 21.865-3.423.578-.03 1.07-.06 1.23-.085 10.155.385 9.93 19.458-.235 19.458-2.084 0-5.06-1.77-7.16-2.793-10.272 22.11-22.84 28.843-34.337 28.843-11.49 0-24.064-6.73-34.34-28.843-2.098 1.024-5.073 2.793-7.163 2.793-.253 0-.465-.065-.705-.085 1.986 4.01 3.78 8.352 5.327 12.847 8.972 14.018 22.762 22.79 36.88 22.79 15.267 0 30.228-10.18 39.04-26.25 10.508 1.648 19.754-7.44 19.754-19.034 0-8.272-4.758-15.256-11.37-17.958.293-1.923.498-3.862.498-5.86 0-24.358-21.483-44.1-47.99-44.1-26.506 0-47.99 19.742-47.99 44.1 0 2.018.212 3.976.505 5.915-4.004 1.673-7.303 4.94-9.274 9.096.846.426 1.66.92 2.4 1.525 1.83 1.503 3.598 3.427 5.293 5.615"/><g><path d="M623.948 110.352c-9.396 8.666-20.878 37.026-32.597 37.026-11.67 0-23.1-28.088-32.47-36.89.847 4.285 1.427 8.447 1.684 12.303 1.044 15.786-5.94 26.082-20.758 30.597l-1.604.49v12.184h124.752c0-.07.008-.14.008-.21 0-22.13-21.52-43.304-39.014-55.498"/></g><g><path d="M600.702 85.056h-18.71c.566 3.67 4.514 7.444 9.356 7.444s8.787-3.773 9.354-7.444"/></g><g><path d="M796.317 67.868l4.415.23.62-3.836c.232-1.45.585-2.843.99-4.22 6.627-1.77 14.12-6.655 16.266-19.54 15.713 15.717 36.035 19.52 48.41 20.267.313 1.14.58 2.298.773 3.492l.62 3.836c.525-.02 3.952-.165 4.426-.23 3.846.14 6.933 4.08 6.933 8.913 0 4.92-3.207 8.927-7.154 8.927-1.905 0-4.633-1.624-6.56-2.568l-1.875 4.036c-6.315 13.617-17.94 22.413-29.608 22.413-11.665 0-23.29-8.797-29.61-22.415l-1.87-4.036c-1.922.938-4.65 2.567-6.565 2.567-9.334 0-9.51-17.51-.21-17.84m-9.04-42.075l10.45-14.632 8.9 13.768c-4.495 4.036-7.99 9.016-10.497 14.56l-8.852-13.696zM819.234 5.14l6.797 10.522c-6.108 1.078-11.345 3.312-15.77 6.393l-8.658-13.397 17.63-3.518zm-38.565 71.64c0 9.715 7.116 17.628 15.86 17.628.755 0 1.513-.064 2.25-.18 8.08 14.732 21.8 24.07 35.794 24.07 13.994 0 27.716-9.337 35.79-24.07.745.116 1.498.18 2.254.18 8.747 0 15.86-7.912 15.86-17.628 0-7.578-4.33-14.032-10.38-16.514-1.31-22.77-13.448-45.39-43.485-45.39-1.2 0-2.332.096-3.478.176L821.406.002l-24.93 4.97-14.774 20.685 12.386 19.172c-1.626 4.944-2.615 10.166-2.947 15.4-6.098 2.458-10.472 8.932-10.472 16.55"/></g><path d="M879.495 147.126H859.46V141.8h20.035v5.326zm-.763-20.687l9.742-1.874c-6.574-7.753-15.918-10.705-20.784-11.77-2.26-.49-4.545.665-5.494 2.773-4.714 10.47-1.017 33.094-25.245 34.532v-8.606c0-1.29-1.043-2.334-2.334-2.334-1.29 0-2.336 1.044-2.336 2.334v8.61c-24.39-1.383-20.62-24.047-25.326-34.532-.944-2.108-3.24-3.267-5.495-2.777-4.87 1.064-14.218 4.016-20.79 11.77l9.74 1.872c-7.61 10.484-12.15 23.378-12.15 36.696 0 .06.007.12.007.185H890.88v-.184c0-13.318-4.536-26.212-12.148-36.697"/><g><path d="M822.073 78.564c2.453 0 4.44-3.113 4.44-6.954 0-3.84-1.988-6.954-4.44-6.954-2.445 0-4.43 3.113-4.43 6.954 0 3.84 1.985 6.954 4.43 6.954"/></g><g><path d="M847.462 78.564c2.445 0 4.436-3.113 4.436-6.954 0-3.84-1.99-6.954-4.436-6.954-2.447 0-4.434 3.113-4.434 6.954 0 3.84 1.986 6.954 4.434 6.954"/></g><g><path d="M834.57 95.877c4.438 0 8.056-3.45 8.578-6.82h-17.155c.523 3.37 4.14 6.82 8.578 6.82"/></g></g></g></svg>