<svg xmlns="http://www.w3.org/2000/svg" width="744.094" height="1052.362"><defs><clipPath><path d="M0 800h800V0H0v800z"/></clipPath><clipPath><path d="M0 800h800V0H0v800z"/></clipPath><clipPath><path d="M0 800h800V0H0v800z"/></clipPath><clipPath><path d="M646.304 438.283h10.578v-28.515h-10.578v28.515z"/></clipPath><clipPath><path d="M637.885 439.68h73.92v-97.805h-73.92v97.805z"/></clipPath><clipPath><path d="M167.465 644.49h44.39v-49.63h-44.39v49.63z"/></clipPath><clipPath><path d="M165.723 640.807h26.548v-37.655h-26.547v37.655z"/></clipPath><clipPath><path d="M96.49 581.415h13.937v-2.72H96.49v2.72z"/></clipPath><clipPath><path d="M96.49 610.79h13.937v-2.72H96.49v2.72z"/></clipPath><clipPath><path d="M96.49 640.745h13.937v-2.72H96.49v2.72z"/></clipPath><clipPath><path d="M96.49 670.36h13.937v-2.718H96.49v2.72z"/></clipPath><clipPath><path d="M594.684 631.927h99.933V569.41h-99.933v62.517z"/></clipPath><clipPath><path d="M640.01 722.9h60.59V570.21h-60.59V722.9z"/></clipPath><clipPath><path d="M146.895 484.816h61.643V329.72h-61.643v155.096z"/></clipPath><clipPath><path d="M102.827 393.944h99.934v-62.516h-99.933v62.516z"/></clipPath><clipPath><path d="M399.395 699.382h70.66v-145.69h-70.66v145.69z"/></clipPath><clipPath><path d="M398.324 467.748h71.742v-147.61h-71.742v147.61z"/></clipPath><clipPath><path d="M635.974 292.096h64.868V125.994h-64.868v166.102z"/></clipPath><clipPath><path d="M145.983 281.312h64.87V115.35h-64.87v165.962z"/></clipPath><clipPath><path d="M0 800h800V0H0v800z"/></clipPath><clipPath><path d="M421.045 163.73h49.646v-35.246h-49.645v35.245z"/></clipPath><clipPath><path d="M0 800h800V0H0v800z"/></clipPath><clipPath><path d="M0 800h800V0H0v800z"/></clipPath><clipPath><path d="M0 800h800V0H0v800z"/></clipPath><clipPath><path d="M0 800h800V0H0v800z"/></clipPath><clipPath><path d="M646.304 438.283h10.578v-28.515h-10.578v28.515z"/></clipPath><clipPath><path d="M637.885 439.68h73.92v-97.805h-73.92v97.805z"/></clipPath><clipPath><path d="M167.465 644.49h44.39v-49.63h-44.39v49.63z"/></clipPath><clipPath><path d="M165.723 640.807h26.548v-37.655h-26.547v37.655z"/></clipPath><clipPath><path d="M96.49 581.415h13.937v-2.72H96.49v2.72z"/></clipPath><clipPath><path d="M96.49 610.79h13.937v-2.72H96.49v2.72z"/></clipPath><clipPath><path d="M96.49 640.745h13.937v-2.72H96.49v2.72z"/></clipPath><clipPath><path d="M96.49 670.36h13.937v-2.718H96.49v2.72z"/></clipPath><clipPath><path d="M594.684 631.927h99.933V569.41h-99.933v62.517z"/></clipPath><clipPath><path d="M640.01 722.9h60.59V570.21h-60.59V722.9z"/></clipPath><clipPath id="b"><path d="M146.895 484.816h61.643V329.72h-61.643v155.096z"/></clipPath><clipPath id="a"><path d="M102.827 393.944h99.934v-62.516h-99.933v62.516z"/></clipPath><clipPath><path d="M399.395 699.382h70.66v-145.69h-70.66v145.69z"/></clipPath><clipPath><path d="M398.324 467.748h71.742v-147.61h-71.742v147.61z"/></clipPath><clipPath><path d="M635.974 292.096h64.868V125.994h-64.868v166.102z"/></clipPath><clipPath><path d="M145.983 281.312h64.87V115.35h-64.87v165.962z"/></clipPath><clipPath><path d="M0 800h800V0H0v800z"/></clipPath><clipPath><path d="M421.045 163.73h49.646v-35.246h-49.645v35.245z"/></clipPath><clipPath><path d="M0 800h800V0H0v800z"/></clipPath></defs><g><g><g><g><g><path d="M484.855 422.388c-10.47-21.645-7.728-26.635-12.46-50.8-4.834-24.718-11.822-44.774-15.508-64.377-.046-.227-.087-.458-.133-.685-.16-.83-.318-1.674-.482-2.46l-.084-.007c-10.014-42.69-48.307-74.487-94.06-74.487-45.75 0-84.044 31.804-94.058 74.495h-.004c-.013.067-.026.137-.04.2-.693 3-1.25 6.052-1.66 9.148-3.216 19.396-9.582 33.457-14.42 58.174-4.73 24.166-1.987 29.156-12.466 50.8-6.172 12.763-10.553 18.895 5.977 25.87 28.15 11.882 65.85 13.85 95.808 13.87 7.986.01 15.263-1.118 20.91-3.953 5.632 2.835 12.918 3.963 20.9 3.953 29.96-.02 67.657-1.988 95.812-13.87 16.524-6.975 12.15-13.107 5.968-25.87" fill="#584220"/></g><g><path d="M530.37 497.91c-6.413-6.777-52.58-30.808-106.81-42.385v-.024c-21.27-4.53-43.76-7.14-65.587-6.05-21.528-1.078-44.412 1.345-65.735 5.56v-.004c-.07.017-.144.027-.218.04-.03.01-.07.013-.1.02v.003c-55.162 11.004-102.583 34.383-106.582 42.84-8.886 18.808-38.768 143.44-32.955 174.45 5.814 31.027 48.46 67.844 48.46 67.844h314.02s42.638-36.817 48.462-67.844c5.803-31.01-15.992-156.52-32.955-174.45" fill="#ed7096"/></g><g><path d="M357.96 559.173s48.234-80.646 50.694-106.48c-16.856-2.622-33.822-4.142-50.684-3.308-16.718-.834-34.06.592-50.697 3.002 2.283 26.016 50.687 106.786 50.687 106.786" fill="#ffc95e"/></g><g><path d="M385.85 411.392h-55.778L318.528 467.9h78.858L385.85 411.39z" fill="#ffc95e"/></g><g><path d="M442.21 332.31c-.335 0-.653.114-.987.154-5.83-50.864-39.816-89.95-81.004-89.95-41.263 0-75.306 39.236-81.042 90.244-6.67 2.005-11.685 10.66-11.685 21.026 0 11.333 6 20.517 13.59 21.314 5.425 26.194 18.5 48.337 35.953 62.318v24.71h81.978l-.124-24.944c19.704-13.683 34.675-33.862 40.512-62.335.914.258 1.85.408 2.808.408 8.083 0 14.636-9.612 14.636-21.47 0-11.862-6.553-21.475-14.636-21.475" fill="#ffc95e"/></g><g><path d="M448.136 316.676l-2.487-8.957c-1.21-7.374-5.266-14.426-7.987-21.388-2.815-7.21-6.382-15.232-12.484-20.403-6.953-5.88-16.448-8.362-22.91-14.788-6.344-6.31-12.897-9.573-21.338-13.592-11.574-5.506-29.444-3.622-41.922-1.346-14.703 2.674-21.87 11.363-30.54 22.736-3.422 4.495-13.038 13.53-17.39 21.635l-1.247.037c-8.786 13.974-17.518 25.12-14.33 42.607 1.072 5.877 3.763 10.63 6.5 15.91 3.937 7.592 6.223 15.715 8.84 23.704 1.13-13.32 2.913-25.96 8.05-38.57 2.772-6.805 6.3-13.696 8.7-20.812 3.105 1.51 6.228 2.915 9.213 4.308 13.927 6.483 30.887 9.994 46.23 11.54 18.006 1.814 37.462 3.98 56.125 2.778.312.73.624 1.46.918 2.186 5.138 12.61 6.925 25.25 8.05 38.57 2.62-7.99 4.903-16.112 8.84-23.703 2.737-5.28 5.428-10.033 6.5-15.91.337-1.828.508-3.575.59-5.275 1.37-.4 2.736-.804 4.078-1.27" fill="#584220"/></g><g><path d="M522.92 734.835c0 7.568-6.134 13.7-13.702 13.7H215.124c-7.567 0-13.702-6.132-13.702-13.7l-31.067-193.16c0-7.57 6.135-13.7 13.702-13.7h356.228c7.568 0 13.703 6.13 13.703 13.7l-31.067 193.16z" fill="#cbc7ca"/></g><g><g><g clip-path="url(#a)" opacity=".28" transform="matrix(3.348 0 0 -3.348 -135.178 1852.328)"><g><path d="M198.877 393.944c2.145 0 3.884-1.738 3.884-3.884l-8.805-54.75c0-2.144-1.74-3.883-3.884-3.883h-83.36c-2.145 0-3.883 1.74-3.883 3.883l96.05 58.634z" fill="#cbc7ca"/></g></g></g></g><g><path d="M524.454 779.454c0 10.01-8.116 18.124-18.124 18.124H219.997c-10.007 0-18.12-8.113-18.12-18.124v-12.796c0-10.01 8.113-18.124 18.12-18.124H506.33c10.008 0 18.124 8.114 18.124 18.124v12.796z" fill="#8b8b8c"/></g><path d="M507.773 759.108H219.998v-10.573h287.775v10.573z" fill="#3e3e3e"/><g><g><g clip-path="url(#b)" opacity=".28" transform="matrix(3.348 0 0 -3.348 -135.178 1852.328)"><g><path d="M204.624 386.353l-8.32-51.74c3.806 3.734 10.7 11.264 11.948 17.907 1.033 5.517-.858 21.042-3.628 33.833" fill="#ed7096"/></g><g><path d="M161.923 418.17c-.924.148-1.85.285-2.78.404v-.023c.927-.117 1.854-.238 2.78-.38" fill="#ed7096"/></g><g><path d="M198.406 404.643c-1.747 1.847-13.375 7.98-27.698 11.668-1.382.357-2.787.692-4.214.996v.007c-1.468.312-2.955.59-4.454.836-.072-.747-.275-1.65-.575-2.665-1.54-5.196-5.756-13.43-9.26-19.824h49.164c.33 0 .65-.05.96-.124-1.298 4.416-2.655 7.767-3.924 9.107" fill="#ed7096"/></g><g><path d="M162.04 418.152c-.04.006-.08.01-.117.017.038-.008.077-.016.117-.022v.004z" fill="#ffc95e"/></g><g><path d="M172.066 454.12c-.1 0-.195-.035-.295-.046-.017.152-.04.303-.06.454-.355-.82-.778-1.612-1.21-2.446-1.176-2.268-1.86-4.695-2.64-7.083-.338 3.98-.87 7.756-2.406 11.524-.088.216-.182.435-.275.652-5.577-.36-11.39.29-16.77.83-.5.05-1.007.11-1.516.176V395.66h5.31c3.505 6.395 7.72 14.63 9.26 19.824.3 1.016.503 1.918.576 2.664l-.118.02c-.925.143-1.852.264-2.78.383v.024l-.02 4.213c5.888 4.088 10.36 10.117 12.105 18.623.273-.076.553-.12.84-.12 2.414 0 4.372 2.87 4.372 6.413 0 3.545-1.96 6.416-4.374 6.416" fill="#ffc95e"/></g><g><path d="M184.808 427.207c-3.128 6.467-2.31 7.958-3.723 15.177-1.444 7.386-3.532 13.378-4.633 19.235l-.04.204c-.048.248-.095.5-.144.735h-.025c-2.992 12.755-14.433 22.256-28.103 22.256-.42 0-.83-.036-1.245-.054V458.182c.51-.065 1.017-.125 1.517-.176 5.38-.54 11.192-1.19 16.768-.83.093-.217.187-.436.274-.652 1.536-3.768 2.07-7.544 2.406-11.525.782 2.387 1.465 4.814 2.64 7.082.433.834.856 1.627 1.21 2.446.02-.15.044-.3.062-.454.1.01.195.045.295.045 2.415 0 4.373-2.872 4.373-6.417 0-3.543-1.958-6.414-4.373-6.414-.286 0-.567.044-.84.12-1.743-8.506-6.216-14.535-12.104-18.623l.02-4.213c.932-.12 1.856-.256 2.78-.405.038-.008.077-.012.117-.018v-.004c1.5-.245 2.987-.523 4.455-.836v-.006c1.426-.304 2.832-.64 4.213-.995 4.365.62 8.617 1.606 12.317 3.168 4.937 2.084 3.63 3.916 1.783 7.73" fill="#584220"/></g><g><path d="M191.655 329.72v.042h-.432c.148 0 .287-.03.432-.043" fill="#3e3e3e"/></g></g></g></g></g><g><g><path d="M457.6 206.275l9.977 6.652-23.282 19.956 39.912-19.956-9.978-6.652 23.28-26.608z"/></g></g><g><g><path d="M209.096 202.972l39.912 26.608-9.978 6.652 23.282 19.956-39.912-19.956 9.978-6.652z"/></g></g><g><g><path d="M302.215 161.437l-9.956 6.666-15.657-31.666 9.296 47.016 9.955-6.666 9.516 29.122z"/></g></g><g><g><path d="M383.92 173.094l-3.025 30.498 15.036-41.988-11.8 2.09-1.57-35.302-10.44 46.792z"/></g></g></g><g fill="#784421"><g><path d="M377.684 349.57c-4.968-3.583-11.208-5.375-18.718-5.375-5.716 0-10.536 1.263-14.456 3.782-6.216 3.95-9.522 10.65-9.92 20.107h14.406c0-2.752.804-5.406 2.41-7.963 1.61-2.554 4.337-3.83 8.183-3.83 3.91 0 6.605 1.037 8.08 3.11 1.474 2.075 2.212 4.373 2.212 6.893 0 2.19-1.1 4.197-2.424 6.022-.73 1.063-1.69 2.04-2.882 2.936 0 0-7.813 5.012-11.242 9.037-1.99 2.336-2.168 5.832-2.344 10.85-.012.355.125 1.092 1.374 1.092h11.204c1.112 0 1.343-.83 1.36-1.187.078-1.83.283-2.76.615-3.815.63-1.992 2.343-3.733 4.264-5.226l3.967-2.738c3.58-2.787 6.435-5.077 7.695-6.87 2.153-2.95 3.666-6.584 3.666-10.897 0-7.033-2.485-12.342-7.452-15.926zm-18.95 55.295c-4.964-.148-9.06 3.286-9.218 8.672-.155 5.384 3.74 8.94 8.706 9.086 5.184.155 9.17-3.17 9.326-8.552.155-5.385-3.63-9.052-8.814-9.205z"/></g></g></g></g></svg>