<svg xmlns="http://www.w3.org/2000/svg" xmlns:xlink="http://www.w3.org/1999/xlink" width="1000" height="1000"><defs><clipPath><path d="M0 800h800V0H0v800z"/></clipPath><clipPath><path d="M421.045 163.73h49.646v-35.246h-49.645v35.245z"/></clipPath><clipPath><path d="M0 800h800V0H0v800z"/></clipPath><clipPath id="b"><path d="M145.983 281.312h64.87V115.35h-64.87v165.962z"/></clipPath><clipPath><path d="M635.974 292.096h64.868V125.994h-64.868v166.102z"/></clipPath><clipPath><path d="M398.324 467.748h71.742v-147.61h-71.742v147.61z"/></clipPath><clipPath><path d="M399.395 699.382h70.66v-145.69h-70.66v145.69z"/></clipPath><clipPath><path d="M102.827 393.944h99.934v-62.516h-99.933v62.516z"/></clipPath><clipPath><path d="M146.895 484.816h61.643V329.72h-61.643v155.096z"/></clipPath><clipPath><path d="M640.01 722.9h60.59V570.21h-60.59V722.9z"/></clipPath><clipPath><path d="M594.684 631.927h99.933V569.41h-99.933v62.517z"/></clipPath><clipPath><path d="M96.49 670.36h13.937v-2.718H96.49v2.72z"/></clipPath><clipPath><path d="M96.49 640.745h13.937v-2.72H96.49v2.72z"/></clipPath><clipPath><path d="M96.49 610.79h13.937v-2.72H96.49v2.72z"/></clipPath><clipPath><path d="M96.49 581.415h13.937v-2.72H96.49v2.72z"/></clipPath><clipPath><path d="M165.723 640.807h26.548v-37.655h-26.547v37.655z"/></clipPath><clipPath><path d="M167.465 644.49h44.39v-49.63h-44.39v49.63z"/></clipPath><clipPath><path d="M637.885 439.68h73.92v-97.805h-73.92v97.805z"/></clipPath><clipPath><path d="M646.304 438.283h10.578v-28.515h-10.578v28.515z"/></clipPath><clipPath><path d="M0 800h800V0H0v800z"/></clipPath><clipPath><path d="M0 800h800V0H0v800z"/></clipPath><clipPath><path d="M0 800h800V0H0v800z"/></clipPath><clipPath><path d="M646.304 438.283h10.578v-28.515h-10.578v28.515z"/></clipPath><clipPath><path d="M637.885 439.68h73.92v-97.805h-73.92v97.805z"/></clipPath><clipPath><path d="M167.465 644.49h44.39v-49.63h-44.39v49.63z"/></clipPath><clipPath><path d="M165.723 640.807h26.548v-37.655h-26.547v37.655z"/></clipPath><clipPath id="f"><path d="M96.49 581.415h13.937v-2.72H96.49v2.72z"/></clipPath><clipPath id="e"><path d="M96.49 610.79h13.937v-2.72H96.49v2.72z"/></clipPath><clipPath id="d"><path d="M96.49 640.745h13.937v-2.72H96.49v2.72z"/></clipPath><clipPath id="c"><path d="M96.49 670.36h13.937v-2.718H96.49v2.72z"/></clipPath><clipPath><path d="M594.684 631.927h99.933V569.41h-99.933v62.517z"/></clipPath><clipPath><path d="M640.01 722.9h60.59V570.21h-60.59V722.9z"/></clipPath><clipPath><path d="M146.895 484.816h61.643V329.72h-61.643v155.096z"/></clipPath><clipPath><path d="M102.827 393.944h99.934v-62.516h-99.933v62.516z"/></clipPath><clipPath><path d="M399.395 699.382h70.66v-145.69h-70.66v145.69z"/></clipPath><clipPath><path d="M398.324 467.748h71.742v-147.61h-71.742v147.61z"/></clipPath><clipPath><path d="M635.974 292.096h64.868V125.994h-64.868v166.102z"/></clipPath><clipPath><path d="M145.983 281.312h64.87V115.35h-64.87v165.962z"/></clipPath><clipPath><path d="M0 800h800V0H0v800z"/></clipPath><clipPath><path d="M421.045 163.73h49.646v-35.246h-49.645v35.245z"/></clipPath><clipPath><path d="M0 800h800V0H0v800z"/></clipPath><radialGradient gradientUnits="userSpaceOnUse" gradientTransform="matrix(.134 0 0 -.132 251.738 324.266)" r="292.311" fy="300" fx="300" cy="300" cx="300" id="g" xlink:href="#a"/><linearGradient id="a"><stop offset="0" stop-color="#008700"/><stop offset="1" stop-color="#006f00"/></linearGradient></defs><g><g><g><path d="M525.945 549.49c.316-2.775.74-5.563 1.23-8.347.49 2.784.912 5.572 1.228 8.346 2.733 24.052 2.01 48.883-1.23 72.78-3.238-23.897-3.967-48.728-1.228-72.78m106.2-5.57c18.666 8.995 29.347 9.943 49.72 7.666-28.232-16.962-43.997-54.752-47.55-86.51-1.615-14.45 1.604-28.897 3.01-43.417 1.107-11.386 4.508-20.66 4.575-37.087l-114.323-73.12c-.16.677-.264 1.357-.403 2.035-.135-.678-.245-1.358-.403-2.036l-108.69 73.563c-.325 14.988.87 24.614 1.975 36.008 1.406 14.52 1.597 29.602-.023 44.054-3.555 31.757-19.317 69.547-47.548 86.51 20.376 2.276 31.054 1.328 49.72-7.666-.498 18.634-5.64 36.98-14.298 53.772-5.136 9.95-37.467 41.112-34.722 47.66 2.726 6.492 24.857 12.576 30.305 14.19 9.06 2.673 18.952 3.838 27.93 7.23 8.204 3.108 15.988 8.754 24.83 10.202 9.698 1.587 18.973-2.216 28.505-2.894 7.662-.545 15.543-.003 23.234-.003.812 0 1.612.045 2.422.065-2.336 1.53-5.09 2.606-8.423 3.035 8.46.284 16.806-.748 25.184-1.703 8.378.955 16.717 1.987 25.185 1.703-3.333-.43-6.09-1.506-8.427-3.035.81-.02 1.613-.065 2.423-.065 7.694 0 15.572-.542 23.237.003 9.533.678 18.804 4.48 28.5 2.894 8.844-1.448 16.632-7.094 24.835-10.2 8.975-3.394 18.872-4.56 27.928-7.233 5.452-1.612 27.582-7.696 30.305-14.187 2.753-6.55-29.585-37.712-34.717-47.66-8.662-16.792-13.805-35.14-14.298-53.772" fill="#51223a"/></g><g><path d="M625.634 425.628c-.394 0-.77.132-1.168.177C617.486 364.92 576.8 318.14 527.5 318.14c-49.39 0-90.145 46.965-97.007 108.014-7.98 2.403-13.98 12.762-13.98 25.18 0 13.554 7.18 24.542 16.26 25.51 6.495 31.357 22.154 57.852 43.03 74.592v29.58h98.138l-.15-29.868c23.578-16.378 41.51-40.53 48.5-74.61 1.086.31 2.202.496 3.344.496 9.68 0 17.53-11.507 17.53-25.7 0-14.2-7.85-25.706-17.53-25.706" fill="#ffc95e"/></g><g><path d="M604.464 570.496s-3.71-28.07-19.188-19.314c-28.273 15.998-52.397 22.63-58.288 23.753-5.887-1.123-28.024-5.97-56.297-21.966-15.48-8.756-15.48 17.526-15.48 17.526l74.627 91.564 74.627-91.564z" fill="#fffffc"/></g><path d="M735.672 658.497l-131.208-88-74.626 88.794-74.622-88.793-131.205 88 .084 104.27H736.25l-.578-104.27z" fill="#444443"/><g><path d="M431.287 358.315c-15.988 14.298-4.307 42.006 9.504 52.626 17.273 13.276 42.652 13.143 63.585 12.114 23.186-1.142 49.026-3.268 69.585 7.885 7.742 4.193 15.343 10.22 22.48 15.35 6.19 4.45 11.36 13.115 17.974 15.84 3.504-4.32 4.44-8.774 6.307-13.87 1.9-5.192 3.172-11.33 4.88-16.676 4.002-12.536 4.002-26.737 3.463-39.938-.922-22.67-11.687-48.238-25.775-65.927-8.156-10.243-21.327-19.25-33.448-23.857-8.477-3.216-28.188-10.613-36.005-2.813l-102.548 59.265z" fill="#51223a"/></g><path d="M529.84 226.937L330.39 299.93v17.48l87.385 23.644v52.928s34.766-9.945 112.062-14.85c75.286 4.51 112.06 14.85 112.06 14.85v-52.928l87.386-23.643v-17.48L529.84 226.937z" fill="#444443"/><g><path d="M709.462 437.15c3.442-.646 6.052-3.656 6.052-7.29 0-4.096-3.323-7.422-7.423-7.422h-1.264V287.034c0-5.646-4.574-10.22-10.216-10.22-5.643 0-10.217 4.574-10.217 10.22v135.404h-.078c-4.1 0-7.426 3.326-7.426 7.423 0 3.25 2.1 5.98 5.006 6.99-10.13 21.633-16.55 37.73-13.823 40.118 19.21 16.86 33.856 16.86 53.07 0 2.714-2.378-3.577-18.237-13.68-39.82" fill="#5f5f5e"/></g><g><g><g clip-path="url(#b)" opacity=".28" transform="matrix(3.226 0 0 -3.226 56.46 1134.43)"><g><path d="M146.882 141.825c2.596-.296 4.342-.033 6.965.055-1.033.134-1.888.468-2.61.94.25.01.5.023.75.023 2.383 0 4.828.168 7.202-.002 2.955-.21 5.83-1.388 8.836-.896 2.74.448 5.153 2.2 7.696 3.16 2.782 1.055 5.85 1.414 8.658 2.244 1.69.5 8.548 2.386 9.393 4.398.852 2.03-9.17 11.688-10.76 14.772-2.686 5.206-4.28 10.895-4.434 16.67 5.785-2.788 9.095-3.083 15.412-2.377-8.75 5.26-13.638 16.974-14.74 26.82-.5 4.477.497 8.956.935 13.457.34 3.53 1.395 6.405 1.418 11.496L146.38 255.11c-.05-.21.005-.4-.038-.61" fill="#51223a"/></g><g><path d="M146.045 171.69h14.492l-.047 9.258c7.31 5.078 12.868 12.564 15.034 23.13.337-.1.683-.156 1.04-.156 3 0 5.43 3.568 5.43 7.967 0 4.4-2.43 7.967-5.43 7.967-.124 0-.242-.04-.365-.055-2.165 18.873-14.226 33.237-29.51 33.237" fill="#ffc95e"/></g><g><path d="M146.866 146.567l23.132 28.383s-1.15 8.7-5.947 5.987c-8.763-4.958-16.242-7.015-18.067-7.362l.883-27.008z" fill="#fffffc"/></g><g><path d="M146.956 115.35h63.896l-.18 32.32-40.674 27.28-23.132-27.525.09-32.076z" fill="#444443"/></g><g><path d="M146.16 221.01c7.186.353 8.01.66 14.383-2.797 2.398-1.3 4.756-3.168 6.968-4.76 1.92-1.38 3.522-4.064 5.57-4.91 1.087 1.34 1.378 2.72 1.956 4.3.59 1.608.984 3.513 1.514 5.17 1.24 3.886 1.24 8.286 1.074 12.38-.288 7.026-3.624 14.952-7.99 20.435-2.53 3.175-6.612 5.967-10.37 7.395-2.626.998-10.1 1.193-12.523-1.223l-.58-35.99z" fill="#51223a"/></g><g><path d="M146.045 233.94c23.34-1.397 35.384-4.273 35.384-4.273v16.407l27.086 7.33v5.418l-61.775 22.49" fill="#444443"/></g><g><path d="M202.372 216.287c1.066.2 1.874 1.133 1.874 2.258 0 1.27-1.03 2.3-2.3 2.3h-.392v41.975c0 1.75-1.418 3.166-3.167 3.166-1.75 0-3.167-1.417-3.167-3.166v-41.974h-.024c-1.27 0-2.3-1.03-2.3-2.3 0-1.007.65-1.854 1.55-2.167-3.14-6.706-5.13-11.697-4.285-12.438 5.957-5.224 10.497-5.224 16.452 0 .84.74-1.108 5.654-4.24 12.345" fill="#5f5f5e"/></g></g></g></g><path d="M530.605 524.62c-11.368 0-20.615-9.245-20.615-20.614 0-1.517 1.23-2.75 2.748-2.75 1.518 0 2.75 1.233 2.75 2.75 0 8.336 6.78 15.118 15.117 15.118 8.335 0 15.118-6.782 15.118-15.118 0-1.517 1.23-2.75 2.748-2.75 1.518 0 2.75 1.233 2.75 2.75 0 11.37-9.247 20.615-20.615 20.615" fill="#444443"/></g><g><g><path d="M289.638 552.724v232.964h117.42v-35.893h35.894v-197.07H289.638z" fill="#edf1ef"/></g><g><path d="M407.032 785.636l17.947-17.947 17.945-17.947h-35.893v35.893z" fill="#f5fffa"/></g><g><path d="M273.026 586.964c-4.542 0-8.226-3.682-8.226-8.224 0-4.543 3.684-8.225 8.226-8.225 4.542 0 8.226 3.682 8.226 8.225 0 4.542-3.684 8.224-8.226 8.224m0 60.316c-4.542 0-8.226-3.682-8.226-8.226 0-4.543 3.684-8.225 8.226-8.225 4.542 0 8.226 3.68 8.226 8.224 0 4.544-3.684 8.226-8.226 8.226m0 60.312c-4.542 0-8.226-3.68-8.226-8.224 0-4.543 3.684-8.225 8.226-8.225 4.542 0 8.226 3.682 8.226 8.225 0 4.544-3.684 8.224-8.226 8.224m0 60.316c-4.542 0-8.226-3.682-8.226-8.226 0-4.544 3.684-8.226 8.226-8.226 4.542 0 8.226 3.682 8.226 8.226 0 4.544-3.684 8.226-8.226 8.226m5.11-215.17c-11.998 0-21.724 9.726-21.724 21.727V763.96c0 11.996 9.726 21.72 21.724 21.72h11.506V552.74h-11.506z" fill="#75b13a"/></g><g><path d="M276.65 579.068c0 3.052-2.474 5.527-5.528 5.527h-17.27c-3.052 0-5.525-2.475-5.525-5.527s2.473-5.525 5.525-5.525h17.27c3.054 0 5.527 2.473 5.527 5.525" fill="#c5c9c8"/></g><g><g><g clip-path="url(#c)" opacity=".28" transform="matrix(2.031 0 0 -2.031 52.314 1940.929)"><g><path d="M110.427 670.36c0-1.5-1.217-2.72-2.72-2.72h-8.5c-1.5 0-2.718 1.22-2.718 2.72h13.937z" fill="#c5c9c8"/></g></g></g></g><g><path d="M276.65 639.235c0 3.052-2.474 5.525-5.528 5.525h-17.27c-3.052 0-5.525-2.473-5.525-5.525 0-3.054 2.473-5.527 5.525-5.527h17.27c3.054 0 5.527 2.473 5.527 5.527" fill="#c5c9c8"/></g><g><g><g clip-path="url(#d)" opacity=".28" transform="matrix(2.031 0 0 -2.031 52.314 1940.929)"><g><path d="M110.427 640.745c0-1.502-1.217-2.72-2.72-2.72h-8.5c-1.5 0-2.718 1.218-2.718 2.72h13.937z" fill="#c5c9c8"/></g></g></g></g><g><path d="M276.65 700.09c0 3.055-2.474 5.528-5.528 5.528h-17.27c-3.052 0-5.525-2.473-5.525-5.527 0-3.05 2.473-5.526 5.525-5.526h17.27c3.054 0 5.527 2.475 5.527 5.527" fill="#c5c9c8"/></g><g><g><g clip-path="url(#e)" opacity=".28" transform="matrix(2.031 0 0 -2.031 52.314 1940.929)"><g><path d="M110.427 610.79c0-1.504-1.217-2.72-2.72-2.72h-8.5c-1.5 0-2.718 1.216-2.718 2.72h13.937z" fill="#c5c9c8"/></g></g></g></g><g><path d="M276.65 759.766c0 3.052-2.474 5.527-5.528 5.527h-17.27c-3.052 0-5.525-2.475-5.525-5.527s2.473-5.527 5.525-5.527h17.27c3.054 0 5.527 2.474 5.527 5.526" fill="#c5c9c8"/></g><g><g><g clip-path="url(#f)" opacity=".28" transform="matrix(2.031 0 0 -2.031 52.314 1940.929)"><g><path d="M110.427 581.415c0-1.502-1.217-2.72-2.72-2.72h-8.5c-1.5 0-2.718 1.218-2.718 2.72h13.937z" fill="#c5c9c8"/></g></g></g></g><path d="M429.865 590.118H302.69v-5.525h127.175v5.525z" fill="#8b8b8c"/><path d="M429.865 609.613H302.69v-5.526h127.175v5.526z" fill="#8b8b8c"/><path d="M429.865 629.104H302.69v-5.528h127.175v5.528z" fill="#8b8b8c"/><path d="M429.865 648.592H302.69v-5.526h127.175v5.526z" fill="#8b8b8c"/><path d="M429.865 668.083H302.69v-5.524h127.175v5.523z" fill="#8b8b8c"/><path d="M429.865 687.577H302.69v-5.528h127.175v5.527z" fill="#8b8b8c"/><path d="M429.865 707.068H302.69v-5.526h127.175v5.526z" fill="#8b8b8c"/><path d="M429.865 726.556H302.69v-5.526h127.175v5.526z" fill="#8b8b8c"/></g><path d="M252.77 270.696s15.444-17.392 18.533-24.497h13.282c5.56 16.99 27.183 57.548 45.717 71.757 3.84 4.938-5.807 6.976-13.59 3.707-11.734-4.926-33.863-42.535-37.996-51.586-5.87-1.544-12.047 9.885-12.047 9.885l-13.9-9.267z" fill="url(#g)" fill-rule="evenodd" transform="matrix(1.25 0 0 -1.25 0 1000)"/></g></svg>