<svg xmlns="http://www.w3.org/2000/svg" viewBox="0 0 800 800" enable-background="new 0 0 800 800"><path d="M337.174 439.31c0 22.686-18.39 41.076-41.076 41.076-22.685 0-41.075-18.39-41.075-41.076s18.39-41.076 41.075-41.076c22.686 0 41.076 18.39 41.076 41.076zm166.73-41.075c-22.687 0-41.077 18.39-41.077 41.076 0 22.687 18.39 41.077 41.076 41.077 22.685 0 41.076-18.39 41.076-41.076-.002-22.686-18.392-41.075-41.077-41.075zM800 416.415v78.06c0 39.194-31.77 70.966-70.965 70.966H677.54C626.514 707.12 496.215 792.697 400 792.697S173.486 707.12 122.46 565.44H70.965C31.77 565.44 0 533.67 0 494.477v-78.062c0-26.97 15.047-50.423 37.203-62.43.744-110.83 33.046-197.388 96.148-257.228C195.94 37.402 285.656 7.304 400 7.304s204.06 30.098 266.65 89.45c63.1 59.84 95.402 146.4 96.148 257.23C784.953 365.99 800 389.443 800 416.413zM649.802 439.57c0-18.26-.934-35.416-2.315-52.04-31.495-28.816-88.67-50.68-160.828-58.804 9.473 10.654 17.657 24.668 22.62 43.115-44.197-34.82-130.955-26.53-196.577-104.45-3.762-4.352-7.015-8.51-9.83-12.31-.032-.045-.068-.08-.1-.126l.008.003c-11.673-15.788-15.654-25.18-15.877-14.784-1.925 89.56-65.404 159.38-135.893 169.23-.446 9.85-.81 19.793-.81 30.17 0 37.855 6.18 72.355 16.69 103.447 39.595 47.76 104.983 61.246 162.86 64.823 10.742-17.094 34.85-29.027 62.922-29.027 38.06 0 68.915 21.902 68.915 48.92s-30.854 48.918-68.915 48.918c-29.277 0-54.226-12.98-64.212-31.26-40.45-2.35-84.914-9.245-124.544-27.96C259.65 699.58 346.046 743.02 400 743.02c84.784 0 249.802-107.106 249.802-303.45zm70.27-94.12C715.557 152.05 605.166 49.883 400 49.883S84.445 152.05 79.928 345.45h27.303c9.984-65.186 31.084-118.796 63.118-160.016 51.05-65.684 128.316-98.99 229.652-98.99s178.6 33.306 229.653 98.99c32.033 41.22 53.134 94.83 63.117 160.015h27.303z" fill="#1a1a1a"/></svg>