<svg xmlns="http://www.w3.org/2000/svg" width="1000" height="1000"><defs><clipPath><path d="M0 800h800V0H0v800z"/></clipPath><clipPath><path d="M0 800h800V0H0v800z"/></clipPath></defs><g><g><g fill="#ccc"><path d="M320.2 292.377c-7.382-7.386-18.342-7.953-25.732-.568l-32.1 32.103c-7.385 7.382-6.822 18.342.564 25.732 6.472 6.464 16.277 7 24.376 1.384l18.54 18.538 34.276-34.284-18.53-18.54c5.61-8.098 5.078-17.9-1.394-24.367"/></g><g fill="#ccc"><path d="M529.563 78.316c-55.372 0-100.416 41.32-100.416 92.108 0 50.788 45.044 92.104 100.416 92.104s100.416-41.316 100.416-92.104c0-50.787-45.045-92.108-100.417-92.108m0 207.384c-68.147 0-123.592-51.713-123.592-115.276 0-63.567 55.446-115.284 123.593-115.284S653.15 106.857 653.15 170.424c0 63.563-55.44 115.276-123.587 115.276"/></g><g fill="#ccc"><path d="M527.633 292.557c-146.904 0-266.42 119.514-266.42 266.42 0 146.903 119.516 266.43 266.42 266.43s266.42-119.527 266.42-266.43c0-146.906-119.516-266.42-266.42-266.42m0 567.606c-166.072 0-301.18-135.116-301.18-301.187 0-166.068 135.11-301.18 301.18-301.18 166.076 0 301.18 135.112 301.18 301.18 0 166.07-135.104 301.187-301.18 301.187"/></g><path d="M543.735 356.115h-24.153V315.86h24.153v40.255z" fill="#e6e6e6"/><g fill="#e6e6e6"><path d="M392.833 406.854l-16.39 16.386-28.67-28.678 16.382-16.382 28.678 28.674z"/></g><path d="M330.387 573.488h-44.28v-24.153h44.28v24.153z" fill="#e6e6e6"/><g fill="#ececec"><path d="M376.442 693.645l16.39 16.382-28.678 28.678-16.386-16.39 28.674-28.67z"/></g><path d="M519.582 762.683h24.153v40.254h-24.153v-40.254z" fill="#ececec"/><g fill="#ececec"><path d="M663.232 710.03l16.382-16.382 28.678 28.67-16.386 16.39-28.674-28.678z"/></g><path d="M732.93 549.335h40.254v24.153H732.93v-24.153z" fill="#ececec"/><g fill="#e6e6e6"><path d="M679.617 423.242l-16.382-16.386 28.674-28.674 16.385 16.382-28.678 28.678z"/></g><path d="M571.913 287.683H495.43v-96.61h76.483v96.61z" fill="#b3b3b3"/><g fill="#b3b3b3"><path d="M600.09 201.38c0 3.2-2.595 5.792-5.79 5.792H473.057c-3.196 0-5.792-2.592-5.792-5.792v-64.887c0-3.2 2.596-5.796 5.792-5.796h121.24c3.197 0 5.793 2.596 5.793 5.796v64.887z"/></g><g><path d="M712.803 558.314v.692c0 49.705-22.65 94.604-55.263 127.118-.12.11.455-.073.33.11-32.494 32.38-73.867 52.364-126.192 52.364V377.62c52.325 0 92.83 20.394 125.552 53.303.12.108 1.952.165 2.004.286 32.337 32.61 53.57 77.512 53.57 127.104" fill="#c1272d"/></g><g fill="#ececec"><path d="M493.323 560.02c-1.835-20.89 11.443-34.832 32.405-34.832h1.856c20.974 0 34.245 13.926 32.41 34.812-4.058 46.617-20.484 136.294-26.84 176.93-1.34 8.47-11.938 7.78-12.98.798-7.056-47.576-22.79-131.107-26.85-177.708"/></g></g></g></svg>