<svg xmlns="http://www.w3.org/2000/svg" width="200" height="200"><defs><clipPath><path d="M0 800h800V0H0v800z"/></clipPath><clipPath><path d="M421.045 163.73h49.646v-35.246h-49.645v35.245z"/></clipPath><clipPath><path d="M0 800h800V0H0v800z"/></clipPath><clipPath><path d="M145.983 281.312h64.87V115.35h-64.87v165.962z"/></clipPath><clipPath><path d="M635.974 292.096h64.868V125.994h-64.868v166.102z"/></clipPath><clipPath><path d="M398.324 467.748h71.742v-147.61h-71.742v147.61z"/></clipPath><clipPath id="a"><path d="M399.395 699.382h70.66v-145.69h-70.66v145.69z"/></clipPath><clipPath><path d="M102.827 393.944h99.934v-62.516h-99.933v62.516z"/></clipPath><clipPath><path d="M146.895 484.816h61.643V329.72h-61.643v155.096z"/></clipPath><clipPath><path d="M640.01 722.9h60.59V570.21h-60.59V722.9z"/></clipPath><clipPath><path d="M594.684 631.927h99.933V569.41h-99.933v62.517z"/></clipPath><clipPath><path d="M96.49 670.36h13.937v-2.718H96.49v2.72z"/></clipPath><clipPath><path d="M96.49 640.745h13.937v-2.72H96.49v2.72z"/></clipPath><clipPath><path d="M96.49 610.79h13.937v-2.72H96.49v2.72z"/></clipPath><clipPath><path d="M96.49 581.415h13.937v-2.72H96.49v2.72z"/></clipPath><clipPath><path d="M165.723 640.807h26.548v-37.655h-26.547v37.655z"/></clipPath><clipPath><path d="M167.465 644.49h44.39v-49.63h-44.39v49.63z"/></clipPath><clipPath><path d="M637.885 439.68h73.92v-97.805h-73.92v97.805z"/></clipPath><clipPath><path d="M646.304 438.283h10.578v-28.515h-10.578v28.515z"/></clipPath></defs><g><g><g><path d="M141.697 108.764c-3.29-6.797-2.426-8.365-3.914-15.954-1.518-7.764-3.427-21.806-2.968-29.687.297-5.103-.745-14.716-1.902-20.873l-.042-.216c-.05-.26-.1-.525-.15-.77l-.027-.004c-3.145-13.407-15.17-23.395-29.54-23.395s-26.396 9.99-29.54 23.398h-.003l-.012.063c-.217.942-.393 1.9-.52 2.873-1.01 6.09-1.828 14.33-1.562 18.923.46 7.88-1.45 21.923-2.97 29.687-1.484 7.59-.623 9.156-3.913 15.954-1.938 4.007-3.315 5.934 1.878 8.125 8.84 3.73 20.682 4.348 30.09 4.355 2.508.003 4.793-.35 6.566-1.24 1.77.89 4.057 1.243 6.566 1.24 9.41-.007 21.248-.625 30.09-4.356 5.19-2.192 3.816-4.12 1.875-8.126" fill="#eda729"/></g><g><path d="M155.976 100.688c-2.014-2.13-16.514-9.675-33.545-13.31v-.01c-6.68-1.422-13.744-2.242-20.598-1.9-6.762-.338-13.948.423-20.645 1.746-.022.004-.045.01-.068.013l-.033.005c-17.325 3.46-32.217 10.8-33.473 13.456-2.792 5.907-12.177 45.05-10.35 54.79 1.826 9.743 15.22 21.305 15.22 21.305h98.622s13.39-11.562 15.22-21.306c1.823-9.74-5.022-49.156-10.35-54.79" fill="#655174"/></g><g><path d="M101.83 119.928s15.148-25.328 15.92-33.443c-5.294-.822-10.622-1.3-15.917-1.037-5.252-.262-10.698.185-15.923.94.716 8.172 15.92 33.54 15.92 33.54" fill="#ffc95e"/></g><g><path d="M110.588 73.516h-17.52l-3.624 17.746h24.766l-3.622-17.746z" fill="#ffc95e"/></g><g><path d="M128.288 48.678c-.105 0-.205.036-.31.048-1.83-15.974-12.505-28.25-25.44-28.25-12.96 0-23.65 12.322-25.452 28.342-2.095.63-3.67 3.35-3.67 6.605 0 3.557 1.885 6.442 4.268 6.694 1.704 8.226 5.81 15.18 11.292 19.57v7.762h25.745l-.038-7.836c6.19-4.297 10.89-10.635 12.725-19.576.285.08.58.128.88.128 2.54 0 4.6-3.02 4.6-6.743 0-3.726-2.06-6.745-4.6-6.745" fill="#ffc95e"/></g><g><path d="M101.827 134.363l-47.554-8.25v64.54H149.382v-64.54l-47.555 8.25z" fill="#c8dac9"/></g><path d="M191.492 185.554H12.166v14.426h179.326v-14.426z" fill="#61878b"/><g><path d="M67.04 166.404c0-5.964-4.834-10.8-10.796-10.8-5.964 0-10.798 4.836-10.798 10.8v8.355c0 5.96 4.834 10.794 10.798 10.794 5.962 0 10.796-4.834 10.796-10.795v-8.356z" fill="#ffc95e"/></g><g><path d="M158.21 166.404c0-5.964-4.834-10.8-10.796-10.8-5.964 0-10.798 4.836-10.798 10.8v8.355c0 5.96 4.834 10.794 10.798 10.794 5.962 0 10.796-4.834 10.796-10.795v-8.356z" fill="#ffc95e"/></g><g><path d="M76.204 39.685c-.66 1.806-3.54 8-1.86 9.534 1.46 1.334 9.95.804 11.566.44 8.554-1.927 15.53-3.34 22.583-5.938 5.836-2.147 10.016-3.57 15.11-7.212 5.72-4.09-2.458-11.615-6.48-13.7-6.644-3.445-13.914-4.354-21.232-2.256-3.88 1.113-7.925 2.268-11.014 4.983-2.237 1.964-7.92 8.19-7.735 10.71l-.936 3.438z" fill="#eda729"/></g><g><g><g clip-path="url(#a)" opacity=".28" transform="matrix(1.25 0 0 -1.25 -396.079 892.114)"><g><path d="M441.644 633.125c-1.1 1.162-6.85 4.34-14.72 7.167-3.663 1.316-7.786 2.558-12.116 3.482v.006c-1.234.264-2.486.496-3.748.703-.506-5.31-8.693-19.813-11.665-24.93V606.372l36.974 6.414V589.04c4.016-.742 7.06-4.256 7.06-8.488v-2.535c2.82 3.263 5.775 7.445 6.493 11.277 1.46 7.792-4.017 39.326-8.28 43.832" fill="#655174"/></g><g><path d="M410.966 644.5c-.775.126-1.557.242-2.34.342v-.02c.78-.1 1.563-.2 2.34-.322" fill="#655174"/></g><g><path d="M411.062 644.487c-.03.005-.064.01-.096.013l.094-.016.002.003" fill="#ffc95e"/></g><g><path d="M419.493 674.733c-.084 0-.164-.03-.248-.038-.426 3.72-1.455 7.186-2.95 10.236-.165-.16-.34-.314-.55-.463-4.076-2.913-7.42-4.05-12.09-5.77-1.416-.522-2.83-.985-4.26-1.408V619.553c2.97 5.116 11.16 19.62 11.664 24.93l-.094.016c-.778.12-1.56.222-2.34.322v.02l-.018 3.542c4.95 3.438 8.713 8.508 10.18 15.66.228-.063.465-.1.705-.1 2.03 0 3.678 2.414 3.678 5.393 0 2.98-1.646 5.396-3.677 5.396" fill="#ffc95e"/></g><g><path d="M436.368 565.232v.148c-.512-.093-1.035-.148-1.574-.148h1.574z" fill="#c8dac9"/></g><g><path d="M399.394 606.37v-41.138h35.4c-4.216 0-7.722 3.022-8.48 7.018-.103.525-.16 1.064-.16 1.62v6.683c0 4.77 3.868 8.638 8.64 8.638.538 0 1.062-.055 1.574-.15v23.745l-36.974-6.414z" fill="#c8dac9"/></g><g><path d="M436.368 565.232h-36.974V553.69h70.662v11.542h-33.688z" fill="#61878b"/></g><g><path d="M436.368 589.04c-.512.094-1.035.15-1.574.15-4.772 0-8.64-3.867-8.64-8.638v-6.684c0-.555.058-1.094.16-1.62.757-3.995 4.263-7.017 8.48-7.017.54 0 1.062.056 1.574.15 4.018.742 7.063 4.256 7.063 8.488v6.684c0 4.232-3.044 7.746-7.062 8.488" fill="#ffc95e"/></g><g><path d="M426.925 640.293c-1.184 6.342-2.56 16.86-2.21 22.885.237 4.082-.597 11.773-1.522 16.698l-.034.173c-.042.207-.08.42-.122.616h-.02c-2.517 10.724-12.132 18.71-23.623 18.716v-22.095c1.43.424 2.844.887 4.26 1.408 4.67 1.72 8.014 2.858 12.09 5.77.21.15.385.305.55.465 1.495-3.05 2.525-6.515 2.95-10.236.084.01.164.038.248.038 2.032 0 3.678-2.415 3.678-5.395 0-2.98-1.645-5.395-3.677-5.395-.24 0-.476.038-.705.103-1.467-7.153-5.228-12.224-10.18-15.66l.018-3.544c.783-.1 1.565-.215 2.34-.34l.096-.014-.002-.003c1.26-.207 2.513-.44 3.748-.703v-.006c4.33-.924 8.453-2.166 12.117-3.482" fill="#eda729"/></g></g></g></g></g></g></svg>